<svg width="550" height="551" viewBox="0 0 550 551" fill="none" xmlns="http://www.w3.org/2000/svg">
<path d="M485.453 118.917L485.986 109.976L482.651 105.594C481.382 102.792 481.541 99.2316 483.053 96.6524L486.455 95.3094L489.726 96.5621L492.863 97.634C493.463 98.7059 493.798 100.139 494.399 100.226L494.395 100.23C499.929 102.875 504.947 107.154 509.077 112.748C510.745 117.578 514.282 120.436 516.352 124.908C518.421 129.377 519.687 131.882 521.557 135.279V135.275C522.98 137.48 524.494 139.567 526.094 141.534C529.194 148.393 531.787 155.638 533.838 163.17C537.643 175.192 540.656 187.64 542.845 200.364C546.273 215.416 548.511 230.909 549.519 246.585C549.884 252.298 549.884 258.04 549.519 263.753C549.519 273.675 548.584 283.512 548.787 293.525C548.569 299.784 547.738 305.973 546.316 311.941C545.85 314.446 545.249 316.948 544.715 319.453C544.096 324.611 542.735 329.561 540.712 334.025C540.043 338.666 538.63 343.06 536.573 346.9C535.577 349.771 534.795 352.765 534.237 355.841L522.29 379.712L521.355 384.18H521.358C518.537 386.973 516.002 390.25 513.816 393.926C510.147 400.719 506.075 407.159 502.338 413.505V413.509C501.192 414.166 500.131 415.074 499.202 416.191C496.066 421.645 491.06 424.327 487.924 429.691C484.588 432.282 481.986 436.307 478.448 438.632C473.678 442.123 469.085 446.037 464.698 450.342C459.56 454.991 454.088 459.283 449.281 464.29C448.879 465.719 449.281 466.434 450.081 466.347L455.82 465.809C457.957 468.849 457.889 468.939 454.952 473.679L448.278 476.541L443.539 485.482L442.87 491.651L442.877 491.647C442.346 493.631 441.166 495.179 439.673 495.853C436.736 496.834 435.136 499.787 432.999 503.274V503.27C428.535 505.689 423.964 507.747 419.32 509.439L415.782 513.908V513.912C409.878 516.643 403.862 518.91 397.762 520.705C395.092 521.329 392.692 523.387 390.089 524.192C387.363 524.557 384.727 525.683 382.348 527.502C377.213 529.913 371.977 531.913 366.664 533.49C359.991 534.652 353.316 536.71 346.642 537.244C334.496 538.316 322.55 540.912 310.538 542.965L310.541 542.969C309.395 543.273 308.236 543.454 307.071 543.503C296.114 543.737 285.194 545.265 274.437 548.062C270.994 549.035 267.472 549.397 263.958 549.138C262.404 548.97 260.84 548.97 259.286 549.138C255.05 550.001 250.758 550.3 246.475 550.029C242.603 549.224 238.734 551.459 234.795 550.029C233.645 549.787 232.474 549.787 231.324 550.029C220.956 551.364 210.518 551.302 200.159 549.853C196.689 549.853 193.485 548.957 189.68 548.69C186.21 547.988 182.712 547.54 179.205 547.347C176.439 547.253 173.686 546.772 170.995 545.918L164.321 544.218C160.449 543.322 156.58 542.875 152.775 541.626C148.395 539.872 143.937 538.472 139.431 537.425C134.559 534.028 128.952 533.4 123.949 530.541H123.946C120.344 529.375 116.818 527.818 113.403 525.892C110.368 524.914 107.464 523.317 104.794 521.152C103.703 520.709 102.587 520.38 101.455 520.171C97.5774 516.483 93.3594 513.476 88.9111 511.23C87.084 510.318 85.3887 508.987 83.9049 507.295C74.0948 498.354 64.8184 488.965 55.8755 479.309C55.1398 477.576 54.2906 475.929 53.3402 474.393C50.5198 471.481 48.0458 468.015 45.9979 464.113C44.3302 460.002 40.4583 458.121 39.324 453.205H39.3271C35.0811 447.139 31.2396 440.584 27.8461 433.622C26.6842 431.556 25.6358 429.375 24.71 427.096C23.5849 424.373 22.3372 421.749 20.9729 419.231C18.3487 415.411 16.914 410.384 16.9692 405.192C16.9692 404.297 16.3683 403.315 16.1691 402.33C14.5688 394.284 11.7637 386.681 10.6294 378.459C8.27499 371.33 6.24862 364.015 4.55634 356.556L1.88619 352.979C0.117311 346.03 -0.541849 338.658 -0.0482051 331.343C0.819399 306.323 4.46138 281.614 10.7641 258.031C12.067 253.131 13.56 248.326 15.2338 243.636C17.1682 238.629 18.4374 233.085 20.24 227.902C20.24 227.006 20.24 225.758 20.7734 224.862C23.3884 219.737 25.7521 214.393 27.8459 208.857C29.5197 203.554 31.6228 198.519 34.1213 193.837L42.2605 178.46L43.729 175.778L44.8633 169.786C45.4641 168.533 46.0649 167.194 46.7976 165.942L57.9411 145.468C60.6113 141.89 63.3459 140.638 64.615 137.422C65.4827 135.635 66.4851 134.025 67.417 132.415H67.4201C69.514 128.641 71.9849 125.273 74.7624 122.402C78.1652 119.096 80.1671 113.461 84.3731 111.136H84.3701C88.7509 104.22 94.0726 98.4868 100.054 94.2359C102.589 88.605 107.261 86.3667 110.866 82.5221V82.5262C114.195 79.0352 117.797 76.037 121.608 73.5851C124.426 70.8415 127.393 68.3896 130.486 66.2538C131.489 66.2538 132.086 64.1099 133.156 62.5862H133.153C136.706 61.0091 140.057 58.7173 143.098 55.7931C150.306 49.7147 158.047 45.2421 165.787 39.6108H169.457C172.792 37.4668 176.131 35.4995 179.8 32.9942H179.803C184.077 30.2506 188.55 28.0944 193.148 26.5584C195.751 25.4865 198.688 25.663 201.156 24.4144C203.624 23.1618 206.095 21.6422 208.63 20.3895H208.633C211.913 18.7426 215.282 17.4283 218.71 16.4549C222.6 15.7854 226.411 14.463 230.056 12.5203C231.901 11.6085 233.833 11.0376 235.795 10.8199C246.871 8.676 257.95 6.35142 269.229 4.11716C272.663 3.06986 276.2 2.76588 279.705 3.22182C280.879 3.43128 282.068 3.43128 283.242 3.22182C287.078 2.24023 290.956 1.61599 294.855 1.34483C298.393 1.34483 301.928 0.539847 305.334 1.34483C309.23 1.22162 313.13 1.39822 317.011 1.87875C318.936 2.23606 320.892 2.23606 322.817 1.87875C325.911 1.21751 329.065 1.21751 332.161 1.87875C339.537 1.23394 346.938 1.23394 354.316 1.87875C355.463 2.05125 356.597 2.32232 357.719 2.68374C363.112 3.85428 368.547 4.63054 374.004 5.00831C377.526 4.9426 381.03 5.73116 384.348 7.33289C389.486 9.92442 394.958 10.4625 400.096 12.8774C405.233 15.2923 410.706 15.9166 415.844 18.422H415.847C420.752 20.0894 425.451 22.7097 429.793 26.1967C431.908 27.6012 434.152 28.624 436.467 29.24L447.077 39.7007C450.548 43.1876 451.483 49.7138 455.351 51.771L459.089 69.6535L457.755 72.0644C453.15 72.0644 448.614 69.0251 444.407 71.5263C440.602 69.1113 437.733 65.3575 433.662 65.5341L423.585 56.593L423.588 56.5971C418.95 55.636 414.449 53.7385 410.24 50.9621C409.925 50.6294 409.563 50.383 409.173 50.2475C400.179 46.8509 390.978 44.5181 381.678 43.2736C378.971 43.097 376.285 42.5261 373.67 41.5774C362.631 39.109 351.484 37.5853 340.3 37.0186H339.099H339.102C331.756 38.3451 324.319 38.5259 316.943 37.5525C316.168 37.4293 315.386 37.4293 314.607 37.5525C306.465 39.4295 298.258 38.7148 290.116 40.3247C281.974 41.9347 274.567 43.0067 266.826 44.6166C257.929 46.4648 249.03 48.5224 240.133 50.7855C235.93 51.8574 231.859 53.6482 227.653 54.9871C223.413 56.0097 219.241 57.476 215.173 59.3694C212.304 60.889 209.033 60.9793 206.096 62.499H206.099C203.591 63.9077 201.028 65.1316 198.423 66.1626C195.02 67.4152 191.749 68.9348 188.413 70.5449C186.589 71.4525 184.808 72.4958 183.073 73.6745C178.953 77.0095 174.474 79.4819 169.792 81.0057C169.026 81.2316 168.302 81.6546 167.659 82.2543C161.72 87.3512 155.179 91.1954 149.041 95.397H149.038C147.594 96.1814 146.226 97.2041 144.966 98.4403C141.269 102.128 137.413 105.533 133.421 108.63C129.751 112.384 125.481 115.337 122.075 119.448C118.672 123.559 115.87 124.007 113.733 128.389H113.736C110.984 130.381 108.559 133.088 106.593 136.349C104.457 139.298 101.854 141.713 99.9196 144.485L99.9226 144.481C98.2059 147.339 96.2101 149.865 93.9814 151.993C92.6908 153.151 91.5626 154.605 90.646 156.284C87.844 160.576 85.7747 165.76 81.6364 168.445C80.3672 169.25 79.5671 171.484 78.632 173.185L50.069 224.055C49.5693 227.431 48.6925 230.684 47.4663 233.711C45.6085 236.467 44.3822 239.88 43.9316 243.544C43.766 244.558 43.4748 245.527 43.064 246.406C41.5434 249.425 40.3324 252.702 39.4587 256.152C38.7904 260.444 36.5218 263.574 35.7217 267.595C34.7897 270.905 33.9896 274.277 33.3182 277.698C32.6376 281.194 31.58 284.537 30.182 287.621C29.5965 290.706 29.1734 293.843 28.9159 297.01C28.9159 300.316 26.9815 302.821 26.8466 305.951C26.8466 311.138 26.8466 316.412 26.3132 321.599C25.7798 326.787 25.9116 329.912 25.5805 335.28C26.1139 338.053 26.914 342.073 27.5149 346.189C28.1158 350.3 28.6492 356.559 29.3849 361.747L29.3819 361.738C30.5591 370.548 32.8154 379.037 36.0558 386.862C37.5242 391.154 39.2594 395.265 40.5929 399.557C41.9265 403.849 45.5991 406.35 46.3992 411.271C48.769 414.762 50.7678 418.676 52.3374 422.894C52.7819 424.34 53.441 425.65 54.2749 426.738C57.6778 429.777 58.7477 435.679 61.749 438.719C63.7324 443.853 66.7338 448.153 70.425 451.147C74.8978 455.348 79.3004 460.088 83.773 463.932H83.77C87.6112 468.495 92.176 471.826 97.118 473.678L106.195 480.829C109.8 480.829 112.869 484.496 116.339 484.763C119.126 486.595 122.06 488.008 125.08 488.965C134.197 493.515 143.6 496.957 153.177 499.249C154.713 499.249 156.181 500.23 157.714 500.678C162.944 502.752 168.349 503.923 173.796 504.165C176.037 504.284 178.266 504.613 180.47 505.147C187.389 506.65 194.36 507.664 201.359 508.19C209.569 508.19 217.708 509.352 225.918 508.19C229.456 508.19 232.592 508.728 236.397 508.19C239.496 507.656 242.636 507.656 245.738 508.19C247.681 508.334 249.634 508.157 251.544 507.652C256.216 507.114 260.821 506.49 265.557 506.49C273.779 506.005 281.943 504.387 289.916 501.66C291.385 501.66 292.718 499.783 294.187 499.245C296.79 498.263 299.258 496.653 301.796 495.4V495.405C304.34 494.612 306.839 493.565 309.27 492.275C311.606 490.575 314.475 490.308 316.879 488.431C319.325 486.849 321.87 485.564 324.485 484.587C325.941 483.819 327.434 483.19 328.958 482.71C336.14 480.34 343.17 477.198 349.979 473.321C356.653 469.924 363.927 466.971 370.533 462.593C372.894 461.977 375.156 460.794 377.207 459.106C383.035 454.843 389.028 450.991 395.157 447.569C396.873 446.374 398.504 444.965 400.028 443.367C404.433 440.061 408.903 436.841 413.376 433.712C417.294 431.354 421.083 428.635 424.722 425.575C428.526 421.908 432.864 419.407 436.669 415.829C442.941 409.751 449.483 404.029 455.556 397.947L455.553 397.951C458.533 395.359 461.307 392.365 463.827 389.01C466.029 385.523 469.566 383.736 471.703 380.069C472.859 378.594 474.189 377.387 475.639 376.492L482.779 364.868C485.581 361.291 489.453 359.952 490.52 354.765L491.789 348.239C494.324 343.499 497.194 338.492 499.864 333.309C502.534 328.122 505.07 322.849 507.605 317.842H507.608C508.138 315.259 508.785 312.721 509.542 310.244C510.907 307.537 511.857 304.498 512.344 301.303C512.344 297.997 514.613 295.849 515.349 292.9C515.861 289.86 516.529 286.87 517.351 283.959C518.298 281.096 518.994 278.094 519.42 275.017C520.913 267.982 521.633 260.692 521.554 253.381C521.554 247.66 521.554 241.848 521.152 236.214C519.95 223.696 518.482 211.271 516.747 198.93L516.75 198.934C515.652 192.276 514.202 185.733 512.412 179.351C511.379 175.967 510.174 172.681 508.807 169.519C507.059 164.266 505.076 159.16 502.868 154.228C500.842 149.817 498.613 145.574 496.194 141.533C493.972 137.935 491.964 134.112 490.189 130.091C488.386 126.78 487.12 122.936 485.449 118.915L485.453 118.917Z" fill="black"/>
</svg>
