<svg width="551" height="550" viewBox="0 0 551 550" fill="none" xmlns="http://www.w3.org/2000/svg">
<path d="M550.496 1.97599C448.963 90.9793 353.39 176.03 261.81 274.912C353.39 373.805 448.953 458.853 550.496 545.875C510.677 567.633 345.434 446.983 212.036 330.289C156.291 395.56 100.551 466.757 46.7843 549.832C-20.9057 498.407 -2.98793 441.052 28.8665 397.536C46.7843 373.803 92.5765 326.332 150.315 274.912C92.5775 221.512 46.7853 176.02 28.8665 152.288C-2.98793 106.797 -20.9057 51.4223 46.7843 -0.00735918C100.538 83.0626 156.283 154.262 212.036 219.536C345.424 102.842 510.676 -17.8084 550.496 1.97599V1.97599Z" fill="black"/>
</svg>
