<?xml version="1.0" encoding="utf-8"?>
<!-- Generator: Adobe Illustrator 24.0.1, SVG Export Plug-In . SVG Version: 6.00 Build 0)  -->
<svg version="1.1" id="Layer_1" xmlns="http://www.w3.org/2000/svg" xmlns:xlink="http://www.w3.org/1999/xlink" x="0px" y="0px"
	 viewBox="0 0 782.7 273" style="enable-background:new 0 0 782.7 273;" xml:space="preserve">
<style type="text/css">
	.st0{fill:none;stroke:#000000;stroke-width:3;}
	.st1{fill:url(#SVGID_1_);}
	.st2{fill:url(#SVGID_2_);}
	.st3{fill:url(#SVGID_3_);}
	.st4{fill:url(#SVGID_4_);}
	.st5{fill:url(#SVGID_5_);}
	.st6{fill:url(#SVGID_6_);}
	.st7{fill:url(#SVGID_7_);}
	.st8{fill:url(#SVGID_8_);}
	.st9{fill:url(#SVGID_9_);}
	.st10{fill:url(#SVGID_10_);}
	.st11{fill:none;stroke:#1D1D1B;stroke-width:3;}
	.st12{fill:#E0424A;}
	.st13{fill:#FFFFFF;}
	.st14{fill:#DC1626;}
	.st15{fill:none;stroke:#DC1626;stroke-width:6;}
	.st16{fill:none;stroke:#F2F2F2;}
	.st17{fill:url(#SVGID_11_);}
	.st18{fill:url(#SVGID_12_);}
</style>
<g>
	<g>
		<path d="M47.6,51.3c28.9-4.9,57.8-9.8,86.7-14.6c-3.4,13.1-6.8,26.1-10.1,39.2c-9.8,2-19.7,4.1-29.5,6.2
			c-14.5,53.2-28.4,106.6-41.2,160.2c-11.2,4.6-22.3,9.4-33.4,14.3c14.1-56.3,29.3-112.3,45.4-168.2c-10.5,2.3-20.9,4.8-31.4,7.2
			C38.5,80.9,43.1,66.1,47.6,51.3z"/>
		<path d="M165.6,53.6c-2.5,10.9-9.8,24.6-20.4,26.9C133.9,83,135,64.7,136,59c1.7-10,9.9-24.6,20.8-27.1
			C164.2,30.3,168.6,40.4,165.6,53.6z M98.9,224.7c9.7-3.6,19.5-7,29.3-10.3c7.4-37.5,15.4-74.8,23.8-112
			c-10.3,2.2-15.6,3.4-26.3,5.9C116.4,147,107.3,185.8,98.9,224.7z"/>
		<path d="M180.6,149.1c-2,8.6,0.5,24.5,13.1,21.4c7.6-1.9,12.8-7.6,12.8-7.6c1.9,8.7,2.9,12.9,5.1,20.9
			c-7.2,7.2-16.2,12.1-25.9,15.2c-29.9,9.5-36.3-22.3-32.9-42.6c4.1-24.4,24.3-61.9,51.7-67.6c14.6-3,20.6,6.4,20.6,6.4
			c-3.9,8.9-7.9,17.8-12,26.7c0,0-4-4.5-10.7-2.7C190.5,122.2,183.3,137.4,180.6,149.1z"/>
		<path d="M239.5,21.2c22.3-2.5,44.5-4.3,66.9-5.6c-1.3,11-2.7,21.9-4.1,32.9c-9.8,1.1-14.6,1.6-24.2,2.8
			c-5.3,41.5-11.7,83.1-15,124.9c-8.9,2.1-13.5,3.2-23.2,5.6c4.2-42.9,11.1-85.6,17.2-128.3c-9,1.1-13.7,1.7-23.2,3
			C235.8,44.8,237.7,33,239.5,21.2z"/>
		<path d="M325,71.6c8.5-1.2,15.4,2.7,19.8,9.9c0.5-3.7,0.7-5.6,1.2-9.4c9-0.9,13.6-1.4,22.6-2.2c-3.5,29.8-7.3,59.5-9.5,89.4
			c-9.4,1.2-14,1.8-23.3,3.2c0.3-3.4,0.4-5.2,0.8-8.8c-0.1,0-0.2,0-0.3,0c-5.6,7.3-14,12.9-23,14.5c-23.9,4.4-29.9-21.7-27.3-39.8
			C289,107.1,300.8,75,325,71.6z M322.5,143.3c10.6-1.8,16.8-12.9,17.9-23c1.4-12.7-4.5-21.7-12.6-20.4c-10.8,1.8-17,14.4-18.3,24.7
			C308,137.3,313.4,144.8,322.5,143.3z"/>
		<path d="M398.6,114c-1,9,3.5,20.9,14.2,20.2c6.9-0.4,11.5-4.7,11.5-4.7c2.6,7.9,4,11.6,6.9,18.5c0,0-7.8,6.9-23,8.3
			c-23.2,2.1-36.8-18.2-34.2-39.7c2.5-21.2,17.5-51.2,41.5-52.9c14.1-1,20.8,7.6,20.8,7.6c-3.7,9-5.5,13.5-9.3,22.5
			c0,0-4.2-4.4-10.6-3.7C405.8,91.3,399.6,104.1,398.6,114z"/>
		<path d="M486.4,113.5c-0.4,21.3-10,38.6-32.8,39.6c-15,0.7-24.7-9.8-24.7-9.8c3.6-9.7,5.4-15,9.2-25.9c0,0,7,9,13.1,8.7
			c6.8-0.3,12.1-5.7,12.9-20.3c1.7-30.9,3.7-61.8,4.3-92.7c8.6,0.3,12.9,0.5,21.2,1C489.9,47.2,487.6,80.4,486.4,113.5z"/>
		<path d="M532.3,62.8c24.5,1.5,36,28.6,36.1,49.9c0.1,21.7-12.5,39.3-35.4,38.8c-24-0.5-38.7-18.5-37.9-42
			C495.9,88.9,507.7,61.2,532.3,62.8z M532.1,130c8.3,0.3,13.9-7.1,14-18.9c0.1-8.8-4.3-20.9-14.1-21.8c-7.6-0.7-14.3,8.4-14.4,20.5
			C517.6,121.8,523.5,129.7,532.1,130z"/>
		<path d="M619.9,122.8c0,19.2-8.2,34.6-29.2,32.1c-13.3-1.6-22.8-12.3-22.8-12.3c2.5-8.6,3.8-13.4,6.7-23.5c0,0,6.9,9.7,12.5,10.3
			c6.3,0.7,11-3.6,11.3-17.7c0.6-29.1,2.1-58.3,0.8-87.4c9.2,1.2,13.9,1.9,22.9,3.3C623.2,59.3,620.9,91.1,619.9,122.8z"/>
		<path d="M665.2,79.8c23.6,5.3,30.9,36,30.8,56.5c-0.1,20.9-11.7,36.1-33.7,30.7c-22.1-5.5-34.7-24.1-33.9-46.7
			C629.1,101.1,641.6,74.5,665.2,79.8z M662.3,146.7c7.6,1.8,13.2-4.2,13.6-16.1c0.4-8.9-2.7-21.7-12.1-24.3
			c-6.9-1.9-13.8,6.1-14.2,18.1C649.1,136.2,654.3,144.8,662.3,146.7z"/>
		<path class="st0" d="M47.6,51.3c28.9-4.9,57.8-9.8,86.7-14.6c-3.4,13.1-6.8,26.1-10.1,39.2c-9.8,2-19.7,4.1-29.5,6.2
			c-14.5,53.2-28.4,106.6-41.2,160.2c-11.2,4.6-22.3,9.4-33.4,14.3c14.1-56.3,29.3-112.3,45.4-168.2c-10.5,2.3-20.9,4.8-31.4,7.2
			C38.5,80.9,43.1,66.1,47.6,51.3z"/>
		<path class="st0" d="M165.6,53.6c-2.5,10.9-9.8,24.6-20.4,26.9C133.9,83,135,64.7,136,59c1.7-10,9.9-24.6,20.8-27.1
			C164.2,30.3,168.6,40.4,165.6,53.6z M98.9,224.7c9.7-3.6,19.5-7,29.3-10.3c7.4-37.5,15.4-74.8,23.8-112
			c-10.3,2.2-15.6,3.4-26.3,5.9C116.4,147,107.3,185.8,98.9,224.7z"/>
		<path class="st0" d="M180.6,149.1c-2,8.6,0.5,24.5,13.1,21.4c7.6-1.9,12.8-7.6,12.8-7.6c1.9,8.7,2.9,12.9,5.1,20.9
			c-7.2,7.2-16.2,12.1-25.9,15.2c-29.9,9.5-36.3-22.3-32.9-42.6c4.1-24.4,24.3-61.9,51.7-67.6c14.6-3,20.6,6.4,20.6,6.4
			c-3.9,8.9-7.9,17.8-12,26.7c0,0-4-4.5-10.7-2.7C190.5,122.2,183.3,137.4,180.6,149.1z"/>
		<path class="st0" d="M239.5,21.2c22.3-2.5,44.5-4.3,66.9-5.6c-1.3,11-2.7,21.9-4.1,32.9c-9.8,1.1-14.6,1.6-24.2,2.8
			c-5.3,41.5-11.7,83.1-15,124.9c-8.9,2.1-13.5,3.2-23.2,5.6c4.2-42.9,11.1-85.6,17.2-128.3c-9,1.1-13.7,1.7-23.2,3
			C235.8,44.8,237.7,33,239.5,21.2z"/>
		<path class="st0" d="M325,71.6c8.5-1.2,15.4,2.7,19.8,9.9c0.5-3.7,0.7-5.6,1.2-9.4c9-0.9,13.6-1.4,22.6-2.2
			c-3.5,29.8-7.3,59.5-9.5,89.4c-9.4,1.2-14,1.8-23.3,3.2c0.3-3.4,0.4-5.2,0.8-8.8c-0.1,0-0.2,0-0.3,0c-5.6,7.3-14,12.9-23,14.5
			c-23.9,4.4-29.9-21.7-27.3-39.8C289,107.1,300.8,75,325,71.6z M322.5,143.3c10.6-1.8,16.8-12.9,17.9-23
			c1.4-12.7-4.5-21.7-12.6-20.4c-10.8,1.8-17,14.4-18.3,24.7C308,137.3,313.4,144.8,322.5,143.3z"/>
		<path class="st0" d="M398.6,114c-1,9,3.5,20.9,14.2,20.2c6.9-0.4,11.5-4.7,11.5-4.7c2.6,7.9,4,11.6,6.9,18.5c0,0-7.8,6.9-23,8.3
			c-23.2,2.1-36.8-18.2-34.2-39.7c2.5-21.2,17.5-51.2,41.5-52.9c14.1-1,20.8,7.6,20.8,7.6c-3.7,9-5.5,13.5-9.3,22.5
			c0,0-4.2-4.4-10.6-3.7C405.8,91.3,399.6,104.1,398.6,114z"/>
		<path class="st0" d="M486.4,113.5c-0.4,21.3-10,38.6-32.8,39.6c-15,0.7-24.7-9.8-24.7-9.8c3.6-9.7,5.4-15,9.2-25.9
			c0,0,7,9,13.1,8.7c6.8-0.3,12.1-5.7,12.9-20.3c1.7-30.9,3.7-61.8,4.3-92.7c8.6,0.3,12.9,0.5,21.2,1
			C489.9,47.2,487.6,80.4,486.4,113.5z"/>
		<path class="st0" d="M532.3,62.8c24.5,1.5,36,28.6,36.1,49.9c0.1,21.7-12.5,39.3-35.4,38.8c-24-0.5-38.7-18.5-37.9-42
			C495.9,88.9,507.7,61.2,532.3,62.8z M532.1,130c8.3,0.3,13.9-7.1,14-18.9c0.1-8.8-4.3-20.9-14.1-21.8c-7.6-0.7-14.3,8.4-14.4,20.5
			C517.6,121.8,523.5,129.7,532.1,130z"/>
		<path class="st0" d="M619.9,122.8c0,19.2-8.2,34.6-29.2,32.1c-13.3-1.6-22.8-12.3-22.8-12.3c2.5-8.6,3.8-13.4,6.7-23.5
			c0,0,6.9,9.7,12.5,10.3c6.3,0.7,11-3.6,11.3-17.7c0.6-29.1,2.1-58.3,0.8-87.4c9.2,1.2,13.9,1.9,22.9,3.3
			C623.2,59.3,620.9,91.1,619.9,122.8z"/>
		<path class="st0" d="M665.2,79.8c23.6,5.3,30.9,36,30.8,56.5c-0.1,20.9-11.7,36.1-33.7,30.7c-22.1-5.5-34.7-24.1-33.9-46.7
			C629.1,101.1,641.6,74.5,665.2,79.8z M662.3,146.7c7.6,1.8,13.2-4.2,13.6-16.1c0.4-8.9-2.7-21.7-12.1-24.3
			c-6.9-1.9-13.8,6.1-14.2,18.1C649.1,136.2,654.3,144.8,662.3,146.7z"/>
	</g>
	<g>
		<g>
			<g>
				<linearGradient id="SVGID_1_" gradientUnits="userSpaceOnUse" x1="70.2065" y1="249.6844" x2="70.2065" y2="29.6924">
					<stop  offset="0" style="stop-color:#FFFFFF"/>
					<stop  offset="1" style="stop-color:#EF0097"/>
				</linearGradient>
				<path class="st1" d="M40.6,44.3c28.9-4.9,57.8-9.8,86.7-14.6c-3.4,13.1-6.8,26.1-10.1,39.2c-9.8,2-19.7,4.1-29.5,6.2
					c-14.5,53.2-28.4,106.6-41.2,160.2c-11.2,4.6-22.3,9.4-33.4,14.3c14.1-56.3,29.3-112.3,45.4-168.2c-10.5,2.3-20.9,4.8-31.4,7.2
					C31.5,73.9,36.1,59.1,40.6,44.3z"/>
				<linearGradient id="SVGID_2_" gradientUnits="userSpaceOnUse" x1="125.7309" y1="217.7143" x2="125.7309" y2="24.7382">
					<stop  offset="0" style="stop-color:#FFFFFF"/>
					<stop  offset="1" style="stop-color:#EF0097"/>
				</linearGradient>
				<path class="st2" d="M158.6,46.6c-2.5,10.9-9.8,24.6-20.4,26.9C126.9,76,128,57.7,129,52c1.7-10,9.9-24.6,20.8-27.1
					C157.2,23.3,161.6,33.4,158.6,46.6z M91.9,217.7c9.7-3.6,19.5-7,29.3-10.3c7.4-37.5,15.4-74.8,23.8-112
					c-10.3,2.2-15.6,3.4-26.3,5.9C109.4,140,100.3,178.8,91.9,217.7z"/>
				<linearGradient id="SVGID_3_" gradientUnits="userSpaceOnUse" x1="181.5288" y1="193.7524" x2="181.5288" y2="81.2193">
					<stop  offset="0" style="stop-color:#FFFFFF"/>
					<stop  offset="1" style="stop-color:#EF0097"/>
				</linearGradient>
				<path class="st3" d="M173.6,142.1c-2,8.6,0.5,24.5,13.1,21.4c7.6-1.9,12.8-7.6,12.8-7.6c1.9,8.7,2.9,12.9,5.1,20.9
					c-7.2,7.2-16.2,12.1-25.9,15.2c-29.9,9.5-36.3-22.3-32.9-42.6c4.1-24.4,24.3-61.9,51.7-67.6c14.6-3,20.6,6.4,20.6,6.4
					c-3.9,8.9-7.9,17.8-12,26.7c0,0-4-4.5-10.7-2.7C183.5,115.2,176.3,130.4,173.6,142.1z"/>
				<linearGradient id="SVGID_4_" gradientUnits="userSpaceOnUse" x1="263.1298" y1="174.7835" x2="263.1298" y2="8.566">
					<stop  offset="0" style="stop-color:#FFFFFF"/>
					<stop  offset="1" style="stop-color:#EF0097"/>
				</linearGradient>
				<path class="st4" d="M232.5,14.2c22.3-2.5,44.5-4.3,66.9-5.6c-1.3,11-2.7,21.9-4.1,32.9c-9.8,1.1-14.6,1.6-24.2,2.8
					c-5.3,41.5-11.7,83.1-15,124.9c-8.9,2.1-13.5,3.2-23.2,5.6c4.2-42.9,11.1-85.6,17.2-128.3c-9,1.1-13.7,1.7-23.2,3
					C228.8,37.8,230.7,26,232.5,14.2z"/>
				<linearGradient id="SVGID_5_" gradientUnits="userSpaceOnUse" x1="319.9898" y1="161.7486" x2="319.9898" y2="62.9423">
					<stop  offset="0" style="stop-color:#FFFFFF"/>
					<stop  offset="1" style="stop-color:#EF0097"/>
				</linearGradient>
				<path class="st5" d="M318,64.6c8.5-1.2,15.4,2.7,19.8,9.9c0.5-3.7,0.7-5.6,1.2-9.4c9-0.9,13.6-1.4,22.6-2.2
					c-3.5,29.8-7.3,59.5-9.5,89.4c-9.4,1.2-14,1.8-23.3,3.2c0.3-3.4,0.4-5.2,0.8-8.8c-0.1,0-0.2,0-0.3,0c-5.6,7.3-14,12.9-23,14.5
					c-23.9,4.4-29.9-21.7-27.3-39.8C282,100.1,293.8,68,318,64.6z M315.5,136.3c10.6-1.8,16.8-12.9,17.9-23
					c1.4-12.7-4.5-21.7-12.6-20.4c-10.8,1.8-17,14.4-18.3,24.7C301,130.3,306.4,137.8,315.5,136.3z"/>
				<linearGradient id="SVGID_6_" gradientUnits="userSpaceOnUse" x1="397.9044" y1="149.4189" x2="397.9044" y2="56.6107">
					<stop  offset="0" style="stop-color:#FFFFFF"/>
					<stop  offset="1" style="stop-color:#EF0097"/>
				</linearGradient>
				<path class="st6" d="M391.6,107c-1,9,3.5,20.9,14.2,20.2c6.9-0.4,11.5-4.7,11.5-4.7c2.6,7.9,4,11.6,6.9,18.5c0,0-7.8,6.9-23,8.3
					c-23.2,2.1-36.8-18.2-34.2-39.7c2.5-21.2,17.5-51.2,41.5-52.9c14.1-1,20.8,7.6,20.8,7.6c-3.7,9-5.5,13.5-9.3,22.5
					c0,0-4.2-4.4-10.6-3.7C398.8,84.3,392.6,97.1,391.6,107z"/>
				<linearGradient id="SVGID_7_" gradientUnits="userSpaceOnUse" x1="452.2225" y1="146.105" x2="452.2225" y2="6.0968">
					<stop  offset="0" style="stop-color:#FFFFFF"/>
					<stop  offset="1" style="stop-color:#EF0097"/>
				</linearGradient>
				<path class="st7" d="M479.4,106.5c-0.4,21.3-10,38.6-32.8,39.6c-15,0.7-24.7-9.8-24.7-9.8c3.6-9.7,5.4-15,9.2-25.9
					c0,0,7,9,13.1,8.7c6.8-0.3,12.1-5.7,12.9-20.3c1.7-30.9,3.7-61.8,4.3-92.7c8.6,0.3,12.9,0.5,21.2,1
					C482.9,40.2,480.6,73.4,479.4,106.5z"/>
				<linearGradient id="SVGID_8_" gradientUnits="userSpaceOnUse" x1="524.81" y1="144.4764" x2="524.81" y2="55.7293">
					<stop  offset="0" style="stop-color:#FFFFFF"/>
					<stop  offset="1" style="stop-color:#EF0097"/>
				</linearGradient>
				<path class="st8" d="M525.3,55.8c24.5,1.5,36,28.6,36.1,49.9c0.1,21.7-12.5,39.3-35.4,38.8c-24-0.5-38.7-18.5-37.9-42
					C488.9,81.9,500.7,54.2,525.3,55.8z M525.1,123c8.3,0.3,13.9-7.1,14-18.9c0.1-8.8-4.3-20.9-14.1-21.8
					c-7.6-0.7-14.3,8.4-14.4,20.5C510.6,114.8,516.5,122.7,525.1,123z"/>
				<linearGradient id="SVGID_9_" gradientUnits="userSpaceOnUse" x1="588.1408" y1="148.141" x2="588.1408" y2="17.2939">
					<stop  offset="0" style="stop-color:#FFFFFF"/>
					<stop  offset="1" style="stop-color:#EF0097"/>
				</linearGradient>
				<path class="st9" d="M612.9,115.8c0,19.2-8.2,34.6-29.2,32.1c-13.3-1.6-22.8-12.3-22.8-12.3c2.5-8.6,3.8-13.4,6.7-23.5
					c0,0,6.9,9.7,12.5,10.3c6.3,0.7,11-3.6,11.3-17.7c0.6-29.1,2.1-58.3,0.8-87.4c9.2,1.2,13.9,1.9,22.9,3.3
					C616.2,52.3,613.9,84.1,612.9,115.8z"/>
				<linearGradient id="SVGID_10_" gradientUnits="userSpaceOnUse" x1="655.1733" y1="161.1344" x2="655.1733" y2="72.1295">
					<stop  offset="0" style="stop-color:#FFFFFF"/>
					<stop  offset="1" style="stop-color:#EF0097"/>
				</linearGradient>
				<path class="st10" d="M658.2,72.8c23.6,5.3,30.9,36,30.8,56.5c-0.1,20.9-11.7,36.1-33.7,30.7c-22.1-5.5-34.7-24.1-33.9-46.7
					C622.1,94.1,634.6,67.5,658.2,72.8z M655.3,139.7c7.6,1.8,13.2-4.2,13.6-16.1c0.4-8.9-2.7-21.7-12.1-24.3
					c-6.9-1.9-13.8,6.1-14.2,18.1C642.1,129.2,647.3,137.8,655.3,139.7z"/>
			</g>
		</g>
		<g>
			<g>
				<path class="st11" d="M40.6,44.3c28.9-4.9,57.8-9.8,86.7-14.6c-3.4,13.1-6.8,26.1-10.1,39.2c-9.8,2-19.7,4.1-29.5,6.2
					c-14.5,53.2-28.4,106.6-41.2,160.2c-11.2,4.6-22.3,9.4-33.4,14.3c14.1-56.3,29.3-112.3,45.4-168.2c-10.5,2.3-20.9,4.8-31.4,7.2
					C31.5,73.9,36.1,59.1,40.6,44.3z"/>
				<path class="st11" d="M158.6,46.6c-2.5,10.9-9.8,24.6-20.4,26.9C126.9,76,128,57.7,129,52c1.7-10,9.9-24.6,20.8-27.1
					C157.2,23.3,161.6,33.4,158.6,46.6z M91.9,217.7c9.7-3.6,19.5-7,29.3-10.3c7.4-37.5,15.4-74.8,23.8-112
					c-10.3,2.2-15.6,3.4-26.3,5.9C109.4,140,100.3,178.8,91.9,217.7z"/>
				<path class="st11" d="M173.6,142.1c-2,8.6,0.5,24.5,13.1,21.4c7.6-1.9,12.8-7.6,12.8-7.6c1.9,8.7,2.9,12.9,5.1,20.9
					c-7.2,7.2-16.2,12.1-25.9,15.2c-29.9,9.5-36.3-22.3-32.9-42.6c4.1-24.4,24.3-61.9,51.7-67.6c14.6-3,20.6,6.4,20.6,6.4
					c-3.9,8.9-7.9,17.8-12,26.7c0,0-4-4.5-10.7-2.7C183.5,115.2,176.3,130.4,173.6,142.1z"/>
				<path class="st11" d="M232.5,14.2c22.3-2.5,44.5-4.3,66.9-5.6c-1.3,11-2.7,21.9-4.1,32.9c-9.8,1.1-14.6,1.6-24.2,2.8
					c-5.3,41.5-11.7,83.1-15,124.9c-8.9,2.1-13.5,3.2-23.2,5.6c4.2-42.9,11.1-85.6,17.2-128.3c-9,1.1-13.7,1.7-23.2,3
					C228.8,37.8,230.7,26,232.5,14.2z"/>
				<path class="st11" d="M318,64.6c8.5-1.2,15.4,2.7,19.8,9.9c0.5-3.7,0.7-5.6,1.2-9.4c9-0.9,13.6-1.4,22.6-2.2
					c-3.5,29.8-7.3,59.5-9.5,89.4c-9.4,1.2-14,1.8-23.3,3.2c0.3-3.4,0.4-5.2,0.8-8.8c-0.1,0-0.2,0-0.3,0c-5.6,7.3-14,12.9-23,14.5
					c-23.9,4.4-29.9-21.7-27.3-39.8C282,100.1,293.8,68,318,64.6z M315.5,136.3c10.6-1.8,16.8-12.9,17.9-23
					c1.4-12.7-4.5-21.7-12.6-20.4c-10.8,1.8-17,14.4-18.3,24.7C301,130.3,306.4,137.8,315.5,136.3z"/>
				<path class="st11" d="M391.6,107c-1,9,3.5,20.9,14.2,20.2c6.9-0.4,11.5-4.7,11.5-4.7c2.6,7.9,4,11.6,6.9,18.5
					c0,0-7.8,6.9-23,8.3c-23.2,2.1-36.8-18.2-34.2-39.7c2.5-21.2,17.5-51.2,41.5-52.9c14.1-1,20.8,7.6,20.8,7.6
					c-3.7,9-5.5,13.5-9.3,22.5c0,0-4.2-4.4-10.6-3.7C398.8,84.3,392.6,97.1,391.6,107z"/>
				<path class="st11" d="M479.4,106.5c-0.4,21.3-10,38.6-32.8,39.6c-15,0.7-24.7-9.8-24.7-9.8c3.6-9.7,5.4-15,9.2-25.9
					c0,0,7,9,13.1,8.7c6.8-0.3,12.1-5.7,12.9-20.3c1.7-30.9,3.7-61.8,4.3-92.7c8.6,0.3,12.9,0.5,21.2,1
					C482.9,40.2,480.6,73.4,479.4,106.5z"/>
				<path class="st11" d="M525.3,55.8c24.5,1.5,36,28.6,36.1,49.9c0.1,21.7-12.5,39.3-35.4,38.8c-24-0.5-38.7-18.5-37.9-42
					C488.9,81.9,500.7,54.2,525.3,55.8z M525.1,123c8.3,0.3,13.9-7.1,14-18.9c0.1-8.8-4.3-20.9-14.1-21.8
					c-7.6-0.7-14.3,8.4-14.4,20.5C510.6,114.8,516.5,122.7,525.1,123z"/>
				<path class="st11" d="M612.9,115.8c0,19.2-8.2,34.6-29.2,32.1c-13.3-1.6-22.8-12.3-22.8-12.3c2.5-8.6,3.8-13.4,6.7-23.5
					c0,0,6.9,9.7,12.5,10.3c6.3,0.7,11-3.6,11.3-17.7c0.6-29.1,2.1-58.3,0.8-87.4c9.2,1.2,13.9,1.9,22.9,3.3
					C616.2,52.3,613.9,84.1,612.9,115.8z"/>
				<path class="st11" d="M658.2,72.8c23.6,5.3,30.9,36,30.8,56.5c-0.1,20.9-11.7,36.1-33.7,30.7c-22.1-5.5-34.7-24.1-33.9-46.7
					C622.1,94.1,634.6,67.5,658.2,72.8z M655.3,139.7c7.6,1.8,13.2-4.2,13.6-16.1c0.4-8.9-2.7-21.7-12.1-24.3
					c-6.9-1.9-13.8,6.1-14.2,18.1C642.1,129.2,647.3,137.8,655.3,139.7z"/>
			</g>
		</g>
	</g>
</g>
<g>
	<g>
		<g>
			<path class="st12" d="M218,255.2l13.4-55.5h15.1c4.7,0,8.2,0.4,10.4,1.1c2.4,0.7,4.1,2.2,5.1,4.5c1,2.2,0.9,5.7-0.2,10.6
				c-0.8,3.3-1.9,5.6-3.3,6.9c-1.1,1.1-2.9,1.9-5.2,2.6c2.3,0.8,3.8,1.9,4.5,3.4c0.9,1.8,0.8,4.5-0.1,8.2l-1.2,5.1
				c-0.9,3.7-2,6.5-3.4,8.4c-1.4,1.9-3.1,3.1-5.3,3.8c-2.1,0.7-6.1,1-12.1,1H218z M236.3,244.9c2-0.1,2.9-0.5,3.2-0.8
				c0.4-0.3,1.1-1.3,1.7-3.9l1.2-5.1c0.8-3.1,0.4-3.7,0.4-3.8c-0.1-0.1-0.6-0.5-3.1-0.6L236.3,244.9z M242,221.2c0.3,0,0.6,0,0.8,0
				c1.3,0,2.2-0.3,2.6-0.8c0.4-0.4,1-1.8,1.9-5.7c0.5-2,0.5-2.9,0.4-3.4c-0.2-0.8-0.5-0.9-0.7-0.9c-0.3-0.1-0.9-0.2-2.4-0.3
				L242,221.2z"/>
			<path class="st13" d="M246.5,200.3c4.6,0,8.1,0.3,10.3,1c2.2,0.7,3.8,2.1,4.8,4.2c1,2.1,0.9,5.5-0.3,10.2
				c-0.8,3.2-1.8,5.4-3.2,6.7c-1.3,1.3-3.6,2.2-6.8,2.9c3.2,0.7,5.2,2,6,3.7c0.8,1.7,0.8,4.4-0.1,7.9l-1.2,5.1
				c-0.9,3.7-2,6.4-3.3,8.2c-1.3,1.8-3,3-5.1,3.6c-2.1,0.7-6.1,1-12,1h-17l13.2-54.5H246.5 M241.4,221.7c0.6,0,1.1,0,1.5,0
				c1.4,0,2.4-0.3,3-1c0.6-0.7,1.2-2.6,2-5.9c0.4-1.7,0.5-2.9,0.4-3.6c-0.2-0.7-0.5-1.1-1-1.3c-0.5-0.2-1.5-0.3-3-0.3L241.4,221.7
				 M235.6,245.4c2.1-0.1,3.5-0.4,4.2-0.9c0.7-0.6,1.3-1.9,1.9-4.1l1.2-5.1c0.6-2.3,0.6-3.7,0.3-4.2c-0.4-0.5-1.7-0.8-3.9-0.8
				L235.6,245.4 M246.5,199.3h-14.7H231l-0.2,0.8l-13.2,54.5l-0.3,1.2h1.3h17c6.1,0,10.1-0.3,12.3-1c2.3-0.7,4.1-2.1,5.6-4
				c1.4-1.9,2.5-4.7,3.5-8.5l1.2-5.1c0.9-3.8,0.9-6.6,0-8.6c-0.6-1.3-1.8-2.4-3.5-3.2c1.8-0.6,3.1-1.4,4.1-2.3
				c1.5-1.4,2.6-3.7,3.5-7.2c1.2-5,1.3-8.5,0.2-10.9c-1.1-2.4-2.9-4-5.4-4.8C254.8,199.6,251.3,199.3,246.5,199.3L246.5,199.3z
				 M242.6,220.7l2.4-10.1c1.3,0.1,1.7,0.2,1.9,0.2c0.1,0.1,0.3,0.3,0.3,0.6c0.1,0.3,0.1,1.1-0.4,3.1c-1,4.2-1.6,5.2-1.8,5.5
				c-0.4,0.5-1.5,0.7-2.2,0.7C242.8,220.7,242.7,220.7,242.6,220.7L242.6,220.7z M236.9,244.3l3.2-13.1c1.6,0.1,2.2,0.3,2.3,0.4
				c0.1,0.2,0.2,0.9-0.4,3.4l-1.2,5.1c-0.6,2.7-1.3,3.4-1.5,3.6C239,243.9,238.4,244.2,236.9,244.3L236.9,244.3z"/>
		</g>
		<g>
			<path class="st12" d="M257.1,255.2l11.1-45.7h15.6l-11.1,45.7H257.1z M268.6,207.9l2-8.1h15.6l-2,8.1H268.6z"/>
			<path class="st13" d="M285.5,200.3l-1.7,7.1h-14.5l1.7-7.1H285.5 M283.1,210.1l-10.8,44.7h-14.5l10.8-44.7H283.1 M286.8,199.3
				h-1.3H271h-0.8L270,200l-1.7,7.1l-0.3,1.2h1.3h14.5h0.8l0.2-0.8l1.7-7.1L286.8,199.3L286.8,199.3z M284.4,209.1h-1.3h-14.5h-0.8
				l-0.2,0.8l-10.8,44.7l-0.3,1.2h1.3h14.5h0.8l0.2-0.8l10.8-44.7L284.4,209.1L284.4,209.1z"/>
		</g>
		<g>
			<polygon class="st12" points="274.7,255.2 277.1,245.2 293.7,219.5 284.4,219.5 286.8,209.6 310.8,209.6 308.3,220.2 292,245.3 
				302.2,245.3 299.8,255.2 			"/>
			<path class="st13" d="M310.2,210.1l-2.4,9.9l-16.7,25.8h10.4l-2.2,9h-24.1l2.3-9.4l17-26.4H285l2.2-9H310.2 M311.5,209.1h-1.3
				h-23h-0.8l-0.2,0.8l-2.2,9l-0.3,1.2h1.3h7.7l-16,24.8l-0.1,0.1l0,0.2l-2.3,9.4l-0.3,1.2h1.3h24.1h0.8l0.2-0.8l2.2-9l0.3-1.2h-1.3
				H293l15.7-24.3l0.1-0.1l0-0.2l2.4-9.9L311.5,209.1L311.5,209.1z"/>
		</g>
		<g>
			<path class="st12" d="M311.6,256.1c-2.6,0-4.8-0.7-6.6-2.1c-1.9-1.5-2.3-4.5-1.2-9.3l0.9-3.7c0.8-3.5,2-5.8,3.5-7.1
				c1.4-1.3,4.5-2.7,9.3-4.3c2-0.7,3.5-1.2,4.6-1.7h-14.2l0.9-3.6c0.8-3.5,1.9-6.2,3.2-8.2c1.3-1.9,3.5-3.7,6.4-5.1
				c2.9-1.5,6.4-2.2,10.5-2.2c4.9,0,8.4,0.9,10.5,2.5c2.2,1.7,3.2,3.9,3.1,6.4c-0.1,2.4-1,7.2-2.8,14.7l-5.5,22.8h-14.8l0.6-2.7
				c-0.9,0.9-1.9,1.7-3,2.2C315.4,255.6,313.6,256.1,311.6,256.1z M324,234.6c-2,1.3-3.2,2.3-3.7,3.2c-0.6,1-1.1,2.5-1.6,4.5
				c-0.7,2.8-0.7,3.8-0.6,4.2c0,0.2,0.1,0.6,1.1,0.6c0.7,0,1.2-0.2,1.5-0.6c0.2-0.3,0.7-1.3,1.3-4L324,234.6z M326.4,217.7
				c-0.8,0-1.3,0.2-1.6,0.7c-0.2,0.4-0.7,1.5-1.4,4.5l-1.2,5c2.7-1.1,3.3-1.5,3.4-1.7c0.3-0.4,0.8-1.3,1.3-3.5
				c0.7-2.8,0.7-3.9,0.6-4.3C327.3,218,327.1,217.7,326.4,217.7z"/>
			<path class="st13" d="M328.8,209.3c4.8,0,8.2,0.8,10.2,2.4c2,1.6,3,3.6,2.9,6c-0.1,2.4-1,7.2-2.8,14.6l-5.4,22.4H320l1-4
				c-1.2,1.6-2.7,2.8-4.2,3.6c-1.6,0.8-3.3,1.2-5.2,1.2c-2.5,0-4.6-0.7-6.3-2c-1.7-1.3-2.1-4.3-1-8.8l0.9-3.7
				c0.8-3.3,1.9-5.6,3.3-6.8c1.4-1.2,4.4-2.6,9.2-4.2c5.1-1.7,7.8-2.9,8.3-3.5c0.5-0.6,0.9-1.8,1.4-3.7c0.6-2.3,0.8-3.9,0.6-4.6
				c-0.2-0.7-0.7-1.1-1.5-1.1c-1,0-1.6,0.3-2,0.9c-0.4,0.6-0.9,2.1-1.5,4.6l-1.1,4.7h-13.3l0.7-3c0.8-3.5,1.9-6.1,3.2-8
				c1.3-1.9,3.3-3.5,6.2-5C321.4,210,324.9,209.3,328.8,209.3 M324.8,233.5c-2.6,1.6-4.3,2.9-4.9,4c-0.6,1.1-1.2,2.6-1.7,4.6
				c-0.6,2.3-0.8,3.8-0.6,4.5c0.2,0.7,0.7,1,1.6,1c0.9,0,1.5-0.3,1.9-0.8c0.4-0.5,0.9-1.9,1.4-4.2L324.8,233.5 M328.8,208.3
				c-4.1,0-7.7,0.8-10.7,2.3c-3,1.5-5.2,3.3-6.6,5.3c-1.3,2-2.5,4.8-3.3,8.3l-0.7,3l-0.3,1.2h1.3h10.8c-0.6,0.2-1.3,0.5-2,0.7
				c-4.9,1.7-8,3.1-9.5,4.4c-1.6,1.4-2.7,3.8-3.6,7.4l-0.9,3.7c-1.2,5-0.8,8.2,1.3,9.8c1.9,1.5,4.2,2.2,6.9,2.2c2,0,3.9-0.4,5.6-1.3
				c0.7-0.3,1.3-0.8,1.9-1.2l-0.1,0.5l-0.3,1.2h1.3h13.7h0.8l0.2-0.8l5.4-22.4c1.8-7.5,2.7-12.4,2.8-14.8c0.1-2.7-1-5-3.3-6.8
				C337.5,209.1,333.9,208.3,328.8,208.3L328.8,208.3z M322.9,227l1-4.1c0.8-3.1,1.2-4,1.3-4.3c0.1-0.1,0.3-0.4,1.2-0.4
				c0.5,0,0.5,0.1,0.6,0.3c0.1,0.2,0.2,1-0.6,4.1c-0.5,2.2-1,3-1.2,3.3C325.1,226,324.7,226.3,322.9,227L322.9,227z M319.2,246.6
				c-0.6,0-0.6-0.2-0.7-0.2c0-0.2-0.1-1,0.6-4c0.5-1.9,1-3.4,1.6-4.4c0.3-0.5,0.9-1.2,2.5-2.3l-1.6,6.8c-0.7,2.9-1.1,3.6-1.2,3.8
				C320.3,246.3,320,246.6,319.2,246.6L319.2,246.6z"/>
		</g>
		<g>
			<path class="st12" d="M338,255.2l11.1-45.7h15.2l-1.3,3.9c2.7-2.9,5.8-4.5,9.2-4.7l0.7,0l-4.1,16.8h-0.4c-2.5,0-4.4,0.3-5.7,1
				c-1.3,0.6-2.2,1.5-2.7,2.6c-0.6,1.2-1.4,3.9-2.4,8.2l-4.4,18H338z"/>
			<path class="st13" d="M372.1,209.3l-3.8,15.7c-2.6,0-4.6,0.3-5.9,1c-1.4,0.7-2.3,1.6-2.9,2.8c-0.6,1.2-1.4,4-2.4,8.3l-4.3,17.6
				h-14.1l10.8-44.7h14.1l-2,5.9C364.6,211.8,368.2,209.5,372.1,209.3 M373.4,208.2l-1.4,0.1c-2.9,0.2-5.6,1.3-8,3.4l0.4-1.3
				l0.4-1.3h-1.4h-14.1h-0.8l-0.2,0.8l-10.8,44.7l-0.3,1.2h1.3h14.1h0.8l0.2-0.8l4.3-17.6c1-4.2,1.8-7,2.4-8.1
				c0.5-1,1.3-1.8,2.5-2.3c1.2-0.6,3.1-0.9,5.5-0.9h0.8l0.2-0.8l3.8-15.7L373.4,208.2L373.4,208.2z"/>
		</g>
		<g>
			<path class="st12" d="M363.6,255.2l11.1-45.7h15.2l-1.3,3.9c2.7-2.9,5.8-4.5,9.2-4.7l0.7,0l-4.1,16.8h-0.4c-2.5,0-4.4,0.3-5.7,1
				c-1.3,0.6-2.2,1.5-2.7,2.6c-0.6,1.2-1.4,3.9-2.4,8.2l-4.4,18H363.6z"/>
			<path class="st13" d="M397.7,209.3l-3.8,15.7c-2.6,0-4.6,0.3-5.9,1c-1.4,0.7-2.3,1.6-2.9,2.8c-0.6,1.2-1.4,4-2.4,8.3l-4.3,17.6
				h-14.1l10.8-44.7h14.1l-2,5.9C390.3,211.8,393.8,209.5,397.7,209.3 M399,208.2l-1.4,0.1c-2.9,0.2-5.6,1.3-8,3.5l0.4-1.3l0.4-1.3
				h-1.4h-14.1h-0.8l-0.2,0.8l-10.8,44.7l-0.3,1.2h1.3h14.1h0.8l0.2-0.8l4.3-17.6c1-4.2,1.8-7,2.4-8.1c0.5-1,1.3-1.8,2.5-2.3
				c1.2-0.6,3.1-0.9,5.5-0.9h0.8l0.2-0.8l3.8-15.7L399,208.2L399,208.2z"/>
		</g>
		<g>
			<path class="st12" d="M405.9,256.1c-3,0-5.7-0.4-7.8-1.3c-2.2-0.9-3.8-2.1-4.7-3.6c-1-1.5-1.5-3.2-1.6-5
				c-0.1-1.8,0.3-4.4,1.1-7.7l3.2-13c1-4,2.3-7.1,4-9.4c1.7-2.3,4-4.1,6.8-5.3c2.8-1.2,5.9-1.8,9.2-1.8c4,0,7.3,0.8,9.6,2.3
				c2.3,1.5,3.8,3.6,4.2,6.1c0.5,2.5,0.2,5.9-0.9,10.3l-1.5,6.3h-18.3l-2.2,9.3c-0.6,2.5-0.6,3.4-0.5,3.7c0,0.1,0.1,0.5,1.1,0.5
				c0.9,0,1.6-0.3,2-1c0.5-0.7,1-2.2,1.6-4.3l1.5-6.3H427l-0.9,3.9c-0.7,2.8-1.4,5-2.1,6.5c-0.7,1.5-2,3.2-3.8,4.9
				c-1.8,1.7-3.8,3-6.1,3.9C411.7,255.6,409,256.1,405.9,256.1z M414.3,225.4l0.7-2.9c0.7-2.8,0.7-3.9,0.7-4.3
				c0-0.3-0.1-0.6-0.8-0.6c-0.8,0-1.3,0.2-1.6,0.6c-0.2,0.4-0.7,1.4-1.4,4.5l-0.6,2.6H414.3z"/>
			<path class="st13" d="M416.1,209.3c4,0,7.1,0.7,9.3,2.2c2.2,1.4,3.6,3.4,4,5.8c0.5,2.4,0.2,5.7-0.9,10.1l-1.4,5.9h-18.3l-2.3,9.7
				c-0.5,2-0.7,3.3-0.5,3.9c0.2,0.6,0.7,0.9,1.5,0.9c1.1,0,1.9-0.4,2.4-1.2c0.5-0.8,1.1-2.3,1.6-4.5l1.4-5.9h13.4l-0.8,3.3
				c-0.7,2.8-1.4,4.9-2.1,6.4c-0.7,1.5-1.9,3.1-3.7,4.7c-1.7,1.7-3.7,2.9-6,3.8c-2.2,0.8-4.9,1.3-8,1.3c-3,0-5.5-0.4-7.6-1.2
				c-2.1-0.8-3.6-2-4.5-3.4c-0.9-1.4-1.4-3-1.5-4.8c-0.1-1.7,0.3-4.3,1.1-7.6l3.2-13c0.9-3.9,2.2-7,3.9-9.2c1.6-2.3,3.9-4,6.6-5.2
				C409.8,209.9,412.9,209.3,416.1,209.3 M410.6,225.9h4.1l0.8-3.3c0.6-2.3,0.8-3.8,0.7-4.5c-0.1-0.7-0.5-1-1.3-1
				c-1,0-1.7,0.3-2,0.9s-0.9,2.1-1.5,4.6L410.6,225.9 M416.1,208.3c-3.4,0-6.5,0.6-9.4,1.9c-2.9,1.3-5.3,3.1-7.1,5.5
				c-1.7,2.4-3.1,5.6-4,9.6l-3.2,13c-0.8,3.4-1.2,6-1.1,7.9c0.1,1.9,0.6,3.7,1.6,5.3c1,1.6,2.7,2.9,5,3.8c2.2,0.9,4.9,1.3,8,1.3
				c3.2,0,6-0.4,8.3-1.3c2.4-0.9,4.5-2.2,6.3-4c1.8-1.8,3.1-3.4,3.9-5c0.7-1.5,1.5-3.7,2.2-6.6l0.8-3.3l0.3-1.2h-1.3H413h-0.8
				l-0.2,0.8l-1.4,5.9c-0.6,2.6-1.1,3.7-1.5,4.1c-0.2,0.3-0.6,0.7-1.6,0.7c-0.1,0-0.5,0-0.6-0.1c0-0.1-0.1-0.8,0.5-3.4l2.2-8.9h17.5
				h0.8l0.2-0.8l1.4-5.9c1.1-4.5,1.4-7.9,0.9-10.5c-0.5-2.7-2-4.8-4.5-6.4C423.5,209.1,420.2,208.3,416.1,208.3L416.1,208.3z
				 M411.8,224.9l0.5-2c0.8-3.3,1.2-4.1,1.3-4.3c0.2-0.3,0.6-0.4,1.2-0.4c0.2,0,0.3,0,0.3,0c0,0,0,0,0,0.1c0,0.2,0,1.1-0.7,4.1
				l-0.6,2.5H411.8L411.8,224.9z"/>
		</g>
		<g>
			<path class="st12" d="M457.8,255.2l1.6-9.8H455l-3.3,9.8h-16.3l21.1-55.5h22.2l-4.9,55.5H457.8z M461.4,234.8
				c0.6-5,1.4-10.9,2.5-17.8c-3,7.8-5.1,13.7-6.4,17.8H461.4z"/>
			<path class="st13" d="M478.2,200.3l-4.8,54.5h-15l1.6-9.8h-5.3l-3.3,9.8h-15.2l20.7-54.5H478.2 M465.2,212.4
				c-4,10.4-6.8,18.1-8.4,22.9h5.1C462.6,229.1,463.7,221.5,465.2,212.4 M479.3,199.3h-1.1h-21.3h-0.7l-0.2,0.6l-20.7,54.5l-0.5,1.4
				h1.4h15.2h0.7l0.2-0.7l3-9.1h3.4l-1.4,8.6l-0.2,1.2h1.2h15h0.9l0.1-0.9l4.8-54.5L479.3,199.3L479.3,199.3z M458.2,234.3
				c1.1-3.2,2.6-7.4,4.6-12.7c-0.7,4.7-1.3,9-1.7,12.7H458.2L458.2,234.3z"/>
		</g>
		<g>
			<path class="st12" d="M484.3,256.1c-2.3,0-4.2-0.6-5.6-1.8c-1.4-1.2-2.2-2.6-2.3-4.2c-0.1-1.5,0.2-3.9,1.1-7.3l5.1-20.9
				c0.8-3.5,1.7-5.9,2.5-7.4c0.8-1.5,2.3-2.8,4.2-4c2-1.1,4.1-1.7,6.5-1.7c1.8,0,3.4,0.3,4.8,1c1.1,0.5,2,1.2,2.8,2.1l2.9-12.1h15.2
				L508,255.2h-15.2l0.6-2.5c-1.3,1-2.7,1.7-4,2.2C487.8,255.7,486,256.1,484.3,256.1z M500.4,217.7c-0.7,0-1.2,0.2-1.5,0.6
				c-0.2,0.3-0.7,1.1-1.2,3.2l-5.3,21.9c-0.5,2.3-0.5,3.1-0.4,3.3c0,0.2,0.1,0.5,0.9,0.5c0.7,0,1.3-0.2,1.6-0.8
				c0.3-0.4,0.8-1.5,1.5-4.5l5-20.7c0.5-2,0.4-2.8,0.4-3C501.4,218,501.3,217.7,500.4,217.7z"/>
			<path class="st13" d="M520.8,200.3l-13.2,54.5h-14.1l0.8-3.2c-1.7,1.3-3.3,2.4-5,3c-1.7,0.7-3.3,1-4.9,1c-2.2,0-4-0.6-5.3-1.7
				c-1.3-1.1-2.1-2.4-2.2-3.9c-0.1-1.5,0.2-3.8,1-7.1L483,222c0.8-3.4,1.6-5.9,2.4-7.3c0.8-1.4,2.2-2.7,4-3.8c1.9-1.1,4-1.6,6.2-1.6
				c1.7,0,3.3,0.3,4.6,0.9c1.3,0.6,2.4,1.5,3.3,2.7l3.1-12.7H520.8 M492.9,247.6c0.9,0,1.6-0.3,2.1-1c0.5-0.6,1-2.2,1.6-4.7l5-20.7
				c0.4-1.6,0.5-2.7,0.4-3.3c-0.2-0.6-0.7-0.8-1.5-0.8c-0.8,0-1.5,0.3-1.9,0.8c-0.4,0.5-0.8,1.6-1.3,3.4l-5.3,21.9
				c-0.4,1.8-0.6,3-0.4,3.6C491.7,247.4,492.1,247.6,492.9,247.6 M522.1,199.3h-1.3h-14.1h-0.8l-0.2,0.8l-2.6,10.8
				c-0.7-0.6-1.5-1.2-2.4-1.6c-1.4-0.7-3.1-1-5-1c-2.4,0-4.7,0.6-6.7,1.8c-2,1.2-3.5,2.6-4.4,4.2c-0.9,1.5-1.7,4-2.5,7.6l-5.1,20.9
				c-0.8,3.4-1.2,5.9-1.1,7.4c0.1,1.7,1,3.3,2.5,4.6c1.5,1.3,3.5,1.9,5.9,1.9c1.8,0,3.5-0.4,5.3-1.1c1-0.4,2-0.9,3-1.6l-0.1,0.6
				l-0.3,1.2h1.3h14.1h0.8l0.2-0.8l13.2-54.5L522.1,199.3L522.1,199.3z M492.9,246.6c-0.3,0-0.4-0.1-0.4-0.1c0-0.2-0.1-0.8,0.4-3.1
				l5.3-21.9c0.5-2.2,0.9-2.8,1.1-3c0.1-0.1,0.3-0.4,1.1-0.4c0.4,0,0.6,0.1,0.6,0.1c0,0.1,0.1,0.7-0.4,2.8l-5,20.7
				c-0.7,3.1-1.2,4-1.4,4.3C494,246.4,493.7,246.6,492.9,246.6L492.9,246.6z"/>
		</g>
		<g>
			<path class="st12" d="M516.3,255.2l3.8-45.7h13.6l-3.4,28.6c1-3.1,2.5-7.5,4.3-13.2c1.6-5.2,3.3-10.2,5-15.1l0.1-0.3h13.7
				l-17.8,45.7H516.3z"/>
			<path class="st13" d="M552.7,210.1l-17.4,44.7h-18.5l3.7-44.7h12.6l-3.9,32.6c0.9-2.4,2.8-8.2,5.8-17.5c1.7-5.2,3.3-10.2,5-15.1
				H552.7 M554.2,209.1h-1.5h-12.6h-0.7l-0.2,0.7c-1.7,4.8-3.4,9.9-5,15.1c-1,3.2-2,6-2.7,8.4l2.8-23.1l0.1-1.1h-1.1h-12.6h-0.9
				l-0.1,0.9l-3.7,44.7l-0.1,1.1h1.1h18.5h0.7l0.2-0.6l17.4-44.7L554.2,209.1L554.2,209.1z"/>
		</g>
		<g>
			<path class="st12" d="M560,256.1c-3,0-5.7-0.4-7.8-1.3c-2.2-0.9-3.8-2.1-4.7-3.6c-1-1.5-1.5-3.2-1.6-5c-0.1-1.8,0.3-4.4,1.1-7.7
				l3.2-13c1-4,2.3-7.1,4-9.4c1.7-2.3,4-4.1,6.8-5.3c2.8-1.2,5.9-1.8,9.2-1.8c4,0,7.3,0.8,9.6,2.3c2.3,1.5,3.8,3.6,4.2,6.1
				c0.5,2.5,0.2,5.9-0.9,10.3l-1.5,6.3h-18.3l-2.2,9.3c-0.6,2.5-0.6,3.4-0.5,3.7c0,0.1,0.1,0.5,1.1,0.5c0.9,0,1.6-0.3,2-1
				c0.5-0.7,1-2.2,1.6-4.3l1.5-6.3h14.4l-0.9,3.9c-0.7,2.8-1.4,5-2.1,6.5c-0.7,1.5-2,3.2-3.8,4.9c-1.8,1.7-3.8,3-6.1,3.9
				C565.8,255.6,563.1,256.1,560,256.1z M568.4,225.4l0.7-2.9c0.7-2.8,0.7-3.9,0.7-4.3c0-0.3-0.1-0.6-0.8-0.6
				c-0.8,0-1.3,0.2-1.6,0.6c-0.2,0.4-0.7,1.4-1.4,4.5l-0.6,2.6H568.4z"/>
			<path class="st13" d="M570.2,209.3c4,0,7.1,0.7,9.3,2.2c2.2,1.4,3.6,3.4,4,5.8c0.5,2.4,0.2,5.7-0.9,10.1l-1.4,5.9h-18.3l-2.3,9.7
				c-0.5,2-0.7,3.3-0.5,3.9c0.2,0.6,0.7,0.9,1.5,0.9c1.1,0,1.9-0.4,2.4-1.2c0.5-0.8,1.1-2.3,1.6-4.5l1.4-5.9h13.4l-0.8,3.3
				c-0.7,2.8-1.4,4.9-2.1,6.4c-0.7,1.5-1.9,3.1-3.7,4.7c-1.7,1.7-3.7,2.9-6,3.8c-2.2,0.8-4.9,1.3-8,1.3c-3,0-5.5-0.4-7.6-1.2
				c-2.1-0.8-3.6-2-4.5-3.4c-0.9-1.4-1.4-3-1.5-4.8c-0.1-1.7,0.3-4.3,1.1-7.6l3.2-13c0.9-3.9,2.2-7,3.9-9.2c1.6-2.3,3.9-4,6.6-5.2
				C563.9,209.9,567,209.3,570.2,209.3 M564.7,225.9h4.1l0.8-3.3c0.6-2.3,0.8-3.8,0.7-4.5c-0.1-0.7-0.5-1-1.3-1c-1,0-1.7,0.3-2,0.9
				c-0.4,0.6-0.9,2.1-1.5,4.6L564.7,225.9 M570.2,208.3c-3.4,0-6.5,0.6-9.4,1.9c-2.9,1.3-5.3,3.1-7.1,5.5c-1.7,2.4-3.1,5.6-4,9.6
				l-3.2,13c-0.8,3.4-1.2,6-1.1,7.9c0.1,1.9,0.6,3.7,1.6,5.3c1,1.6,2.7,2.9,5,3.8c2.2,0.9,4.9,1.3,8,1.3c3.2,0,6-0.4,8.3-1.3
				c2.4-0.9,4.5-2.2,6.3-4c1.8-1.8,3.1-3.4,3.9-5c0.7-1.5,1.5-3.7,2.2-6.6l0.8-3.3l0.3-1.2h-1.3h-13.4h-0.8l-0.2,0.8l-1.4,5.9
				c-0.6,2.6-1.1,3.7-1.5,4.1c-0.2,0.3-0.6,0.7-1.6,0.7c-0.1,0-0.5,0-0.6-0.1c0-0.1-0.1-0.8,0.5-3.4l2.2-8.9h17.5h0.8l0.2-0.8
				l1.4-5.9c1.1-4.5,1.4-7.9,0.9-10.5c-0.5-2.7-2-4.8-4.5-6.4C577.6,209.1,574.3,208.3,570.2,208.3L570.2,208.3z M565.9,224.9l0.5-2
				c0.8-3.3,1.2-4.1,1.3-4.3c0.2-0.3,0.6-0.4,1.2-0.4c0.2,0,0.3,0,0.3,0c0,0,0,0,0,0.1c0,0.2,0,1.1-0.7,4.1l-0.6,2.5H565.9
				L565.9,224.9z"/>
		</g>
		<g>
			<path class="st12" d="M598.4,255.2l7.6-31.5c0.9-3.7,1.1-5,1-5.5c0-0.2,0-0.5-1-0.5c-0.8,0-1.4,0.3-1.7,0.9
				c-0.3,0.5-0.8,2-1.8,6.1l-7.4,30.6H580l11.1-45.7h15.4l-0.8,2.8c1.1-1,2.2-1.7,3.4-2.3c1.7-0.9,3.6-1.3,5.6-1.3
				c2.5,0,4.5,0.6,5.9,1.8c1.4,1.2,2.1,2.7,2.1,4.5c0,1.7-0.4,4.5-1.4,8.5l-7.7,31.7H598.4z"/>
			<path class="st13" d="M614.6,209.3c2.4,0,4.3,0.6,5.5,1.6c1.3,1.1,1.9,2.5,2,4.2c0,1.7-0.4,4.5-1.4,8.4l-7.6,31.3h-14.1l7.5-30.9
				c0.7-3.1,1.1-4.9,1-5.6c0-0.7-0.5-1-1.5-1c-1,0-1.7,0.4-2.2,1.2c-0.4,0.8-1.1,2.8-1.9,6.2l-7.3,30.2h-14.1l10.8-44.7h14.4
				l-1.2,4.1c1.4-1.6,3-2.9,4.7-3.7S612.7,209.3,614.6,209.3 M614.6,208.3c-2.1,0-4.1,0.4-5.9,1.3c-0.8,0.4-1.5,0.8-2.2,1.3l0.2-0.6
				l0.4-1.3h-1.3h-14.4h-0.8l-0.2,0.8l-10.8,44.7l-0.3,1.2h1.3h14.1h0.8l0.2-0.8l7.3-30.2c1-4.1,1.5-5.5,1.8-5.9
				c0.2-0.3,0.5-0.7,1.3-0.7c0.3,0,0.4,0,0.5,0.1c0,0.3-0.1,1.4-1,5.3l-7.5,30.9l-0.3,1.2h1.3h14.1h0.8l0.2-0.8l7.6-31.3
				c1-4,1.4-6.8,1.4-8.6c0-2-0.8-3.6-2.3-4.9C619.4,208.9,617.3,208.3,614.6,208.3L614.6,208.3z"/>
		</g>
		<g>
			<path class="st12" d="M631.6,255.2c-3.3,0-5.5-0.1-6.9-0.4c-1.4-0.3-2.6-0.9-3.5-1.9c-0.9-1-1.3-2.2-1.3-3.5c0-1.2,0.6-4,1.7-8.6
				l5.3-22.1h-3l2-8.1h3l1.7-7h15.2l-1.7,7h3.8l-2,8.1h-3.8l-5.7,23.5c-0.9,3.7-0.8,4.4-0.8,4.6c0,0,0,0,0,0c0.1,0,0.6,0.2,3.4,0.2
				h0.6l-2,8.2H631.6z"/>
			<path class="st13" d="M645.2,204.1l-1.7,7h3.8l-1.7,7.1h-3.8l-5.8,23.9c-0.7,2.9-1,4.6-0.7,4.9c0.2,0.3,1.5,0.5,3.8,0.5l-1.7,7.2
				h-5.7c-3.2,0-5.5-0.1-6.8-0.4c-1.3-0.3-2.4-0.9-3.2-1.8c-0.8-0.9-1.2-2-1.2-3.2c0-1.2,0.6-4,1.7-8.5l5.5-22.7h-3l1.7-7.1h3l1.7-7
				H645.2 M646.5,203.1h-1.3H631h-0.8l-0.2,0.8l-1.5,6.3h-2.3h-0.8l-0.2,0.8l-1.7,7.1l-0.3,1.2h1.3h1.8l-5.2,21.4
				c-1.1,4.6-1.7,7.4-1.7,8.7c0,1.5,0.4,2.8,1.4,3.9c1,1.1,2.2,1.8,3.8,2.1c1.4,0.3,3.7,0.4,7,0.4h5.7h0.8l0.2-0.8l1.7-7.2l0.3-1.2
				h-1.3c-1.7,0-2.5-0.1-2.9-0.2c0-0.5,0.2-1.5,0.8-4l5.6-23.1h3h0.8l0.2-0.8l1.7-7.1l0.3-1.2h-1.3h-2.5l1.4-5.8L646.5,203.1
				L646.5,203.1z"/>
		</g>
		<g>
			<path class="st12" d="M649.3,256.1c-2.2,0-4-0.4-5.3-1.1c-1.3-0.8-2.2-1.8-2.6-3.1c-0.4-1.3-0.5-2.6-0.4-3.9
				c0.2-1.3,0.7-3.9,1.6-7.7l7.4-30.5h15.2l-7.5,31c-1.1,4.5-1.2,5.7-1.2,6c0,0.2,0.1,0.5,1.1,0.5c0.9,0,1.4-0.2,1.7-0.7
				c0.2-0.4,0.7-1.9,1.8-6.4l7.4-30.4h15.2l-11.1,45.7h-15.4l0.8-2.4c-1,0.9-2,1.6-3.2,2.1C653.1,255.7,651.2,256.1,649.3,256.1z"/>
			<path class="st13" d="M683,210.1l-10.8,44.7h-14.4l1.1-3.7c-1.3,1.5-2.8,2.6-4.4,3.4c-1.6,0.8-3.4,1.1-5.2,1.1
				c-2.1,0-3.8-0.4-5-1.1c-1.2-0.7-2-1.7-2.4-2.9c-0.4-1.2-0.5-2.4-0.3-3.7c0.1-1.3,0.7-3.9,1.6-7.7l7.3-30.1h14.1l-7.4,30.4
				c-0.8,3.5-1.2,5.5-1.2,6.2c0.1,0.7,0.6,1,1.6,1c1,0,1.8-0.3,2.1-1c0.4-0.7,1-2.8,1.9-6.5l7.3-30.1H683 M684.3,209.1H683h-14.1
				h-0.8l-0.2,0.8l-7.3,30.1c-1.1,4.7-1.6,5.9-1.8,6.3c-0.1,0.1-0.3,0.5-1.2,0.5c-0.3,0-0.5-0.1-0.6-0.1c0-0.3,0.1-1.4,1.1-5.9
				l7.4-30.4l0.3-1.2h-1.3h-14.1h-0.8l-0.2,0.8l-7.3,30.1c-0.9,3.9-1.5,6.5-1.6,7.8c-0.2,1.4,0,2.8,0.4,4.1c0.5,1.4,1.4,2.6,2.8,3.4
				c1.4,0.8,3.2,1.2,5.5,1.2c2,0,3.9-0.4,5.6-1.2c0.7-0.3,1.4-0.7,2-1.2l-0.1,0.3l-0.4,1.3h1.4h14.4h0.8l0.2-0.8l10.8-44.7
				L684.3,209.1L684.3,209.1z"/>
		</g>
		<g>
			<path class="st12" d="M676.6,255.2l11.1-45.7h15.2l-1.3,3.9c2.7-2.9,5.8-4.5,9.2-4.7l0.7,0l-4.1,16.8H707c-2.5,0-4.4,0.3-5.7,1
				c-1.3,0.6-2.2,1.5-2.7,2.6c-0.6,1.2-1.4,3.9-2.4,8.2l-4.4,18H676.6z"/>
			<path class="st13" d="M710.8,209.3L707,225c-2.6,0-4.6,0.3-5.9,1c-1.4,0.7-2.3,1.6-2.9,2.8c-0.6,1.2-1.4,4-2.4,8.3l-4.3,17.6
				h-14.1l10.8-44.7h14.1l-2,5.9C703.3,211.8,706.8,209.5,710.8,209.3 M712.1,208.2l-1.4,0.1c-2.9,0.2-5.6,1.3-8,3.5l0.4-1.3
				l0.4-1.3h-1.4h-14.1h-0.8l-0.2,0.8l-10.8,44.7l-0.3,1.2h1.3h14.1h0.8l0.2-0.8l4.3-17.6c1-4.2,1.8-7,2.4-8.1
				c0.5-1,1.3-1.8,2.5-2.3c1.2-0.6,3.1-0.9,5.5-0.9h0.8l0.2-0.8l3.8-15.7L712.1,208.2L712.1,208.2z"/>
		</g>
		<g>
			<path class="st12" d="M718.9,256.1c-3,0-5.7-0.4-7.8-1.3c-2.2-0.9-3.8-2.1-4.7-3.6c-1-1.5-1.5-3.2-1.6-5
				c-0.1-1.8,0.3-4.4,1.1-7.7l3.2-13c1-4,2.3-7.1,4-9.4c1.7-2.3,4-4.1,6.8-5.3c2.8-1.2,5.9-1.8,9.2-1.8c4,0,7.3,0.8,9.6,2.3
				c2.3,1.5,3.8,3.6,4.2,6.1c0.5,2.5,0.2,5.9-0.9,10.3l-1.5,6.3h-18.3L720,243c-0.6,2.5-0.6,3.4-0.5,3.7c0,0.1,0.1,0.5,1.1,0.5
				c0.9,0,1.6-0.3,2-1c0.5-0.7,1-2.2,1.6-4.3l1.5-6.3h14.4l-0.9,3.9c-0.7,2.8-1.4,5-2.1,6.5c-0.7,1.5-2,3.2-3.8,4.9
				c-1.8,1.7-3.8,3-6.1,3.9C724.8,255.6,722,256.1,718.9,256.1z M727.3,225.4l0.7-2.9c0.7-2.8,0.7-3.9,0.7-4.3
				c0-0.3-0.1-0.6-0.8-0.6c-0.8,0-1.3,0.2-1.6,0.6c-0.2,0.4-0.7,1.4-1.4,4.5l-0.6,2.6H727.3z"/>
			<path class="st13" d="M729.1,209.3c4,0,7.1,0.7,9.3,2.2c2.2,1.4,3.6,3.4,4,5.8c0.5,2.4,0.2,5.7-0.9,10.1l-1.4,5.9h-18.3l-2.3,9.7
				c-0.5,2-0.7,3.3-0.5,3.9c0.2,0.6,0.7,0.9,1.5,0.9c1.1,0,1.9-0.4,2.4-1.2c0.5-0.8,1.1-2.3,1.6-4.5l1.4-5.9h13.4l-0.8,3.3
				c-0.7,2.8-1.4,4.9-2.1,6.4c-0.7,1.5-1.9,3.1-3.7,4.7c-1.7,1.7-3.7,2.9-6,3.8c-2.2,0.8-4.9,1.3-8,1.3c-3,0-5.5-0.4-7.6-1.2
				c-2.1-0.8-3.6-2-4.5-3.4c-0.9-1.4-1.4-3-1.5-4.8c-0.1-1.7,0.3-4.3,1.1-7.6l3.2-13c0.9-3.9,2.2-7,3.9-9.2s3.9-4,6.6-5.2
				C722.9,209.9,725.9,209.3,729.1,209.3 M723.6,225.9h4.1l0.8-3.3c0.6-2.3,0.8-3.8,0.7-4.5c-0.1-0.7-0.5-1-1.3-1
				c-1,0-1.7,0.3-2,0.9s-0.9,2.1-1.5,4.6L723.6,225.9 M729.1,208.3c-3.4,0-6.5,0.6-9.4,1.9c-2.9,1.3-5.3,3.1-7.1,5.5
				c-1.7,2.4-3.1,5.6-4,9.6l-3.2,13c-0.8,3.4-1.2,6-1.1,7.9c0.1,1.9,0.6,3.7,1.6,5.3c1,1.6,2.7,2.9,5,3.8c2.2,0.9,4.9,1.3,8,1.3
				c3.2,0,6-0.4,8.3-1.3c2.4-0.9,4.5-2.2,6.3-4c1.8-1.8,3.1-3.4,3.9-5c0.7-1.5,1.5-3.7,2.2-6.6l0.8-3.3l0.3-1.2h-1.3H726h-0.8
				l-0.2,0.8l-1.4,5.9c-0.6,2.6-1.1,3.7-1.5,4.1c-0.2,0.3-0.6,0.7-1.6,0.7c-0.1,0-0.5,0-0.6-0.1c0-0.1-0.1-0.8,0.5-3.4l2.2-8.9h17.5
				h0.8l0.2-0.8l1.4-5.9c1.1-4.5,1.4-7.9,0.9-10.5c-0.5-2.7-2-4.8-4.5-6.4C736.6,209.1,733.3,208.3,729.1,208.3L729.1,208.3z
				 M724.9,224.9l0.5-2c0.8-3.3,1.2-4.1,1.3-4.3c0.2-0.3,0.6-0.4,1.2-0.4c0.2,0,0.3,0,0.3,0c0,0,0,0,0,0.1c0,0.2,0,1.1-0.7,4.1
				l-0.6,2.5H724.9L724.9,224.9z"/>
		</g>
	</g>
	<g>
		<g>
			<path class="st14" d="M218,255.2l13.4-55.5h15.1c4.7,0,8.2,0.4,10.4,1.1c2.4,0.7,4.1,2.2,5.1,4.5c1,2.2,0.9,5.7-0.2,10.6
				c-0.8,3.3-1.9,5.6-3.3,6.9c-1.1,1.1-2.9,1.9-5.2,2.6c2.3,0.8,3.8,1.9,4.5,3.4c0.9,1.8,0.8,4.5-0.1,8.2l-1.2,5.1
				c-0.9,3.7-2,6.5-3.4,8.4c-1.4,1.9-3.1,3.1-5.3,3.8c-2.1,0.7-6.1,1-12.1,1H218z M236.3,244.9c2-0.1,2.9-0.5,3.2-0.8
				c0.4-0.3,1.1-1.3,1.7-3.9l1.2-5.1c0.8-3.1,0.4-3.7,0.4-3.8c-0.1-0.1-0.6-0.5-3.1-0.6L236.3,244.9z M242,221.2c0.3,0,0.6,0,0.8,0
				c1.3,0,2.2-0.3,2.6-0.8c0.4-0.4,1-1.8,1.9-5.7c0.5-2,0.5-2.9,0.4-3.4c-0.2-0.8-0.5-0.9-0.7-0.9c-0.3-0.1-0.9-0.2-2.4-0.3
				L242,221.2z"/>
			<path class="st14" d="M246.5,200.3c4.6,0,8.1,0.3,10.3,1c2.2,0.7,3.8,2.1,4.8,4.2c1,2.1,0.9,5.5-0.3,10.2
				c-0.8,3.2-1.8,5.4-3.2,6.7c-1.3,1.3-3.6,2.2-6.8,2.9c3.2,0.7,5.2,2,6,3.7c0.8,1.7,0.8,4.4-0.1,7.9l-1.2,5.1
				c-0.9,3.7-2,6.4-3.3,8.2c-1.3,1.8-3,3-5.1,3.6c-2.1,0.7-6.1,1-12,1h-17l13.2-54.5H246.5 M241.4,221.7c0.6,0,1.1,0,1.5,0
				c1.4,0,2.4-0.3,3-1c0.6-0.7,1.2-2.6,2-5.9c0.4-1.7,0.5-2.9,0.4-3.6c-0.2-0.7-0.5-1.1-1-1.3c-0.5-0.2-1.5-0.3-3-0.3L241.4,221.7
				 M235.6,245.4c2.1-0.1,3.5-0.4,4.2-0.9c0.7-0.6,1.3-1.9,1.9-4.1l1.2-5.1c0.6-2.3,0.6-3.7,0.3-4.2c-0.4-0.5-1.7-0.8-3.9-0.8
				L235.6,245.4 M246.5,199.3h-14.7H231l-0.2,0.8l-13.2,54.5l-0.3,1.2h1.3h17c6.1,0,10.1-0.3,12.3-1c2.3-0.7,4.1-2.1,5.6-4
				c1.4-1.9,2.5-4.7,3.5-8.5l1.2-5.1c0.9-3.8,0.9-6.6,0-8.6c-0.6-1.3-1.8-2.4-3.5-3.2c1.8-0.6,3.1-1.4,4.1-2.3
				c1.5-1.4,2.6-3.7,3.5-7.2c1.2-5,1.3-8.5,0.2-10.9c-1.1-2.4-2.9-4-5.4-4.8C254.8,199.6,251.3,199.3,246.5,199.3L246.5,199.3z
				 M242.6,220.7l2.4-10.1c1.3,0.1,1.7,0.2,1.9,0.2c0.1,0.1,0.3,0.3,0.3,0.6c0.1,0.3,0.1,1.1-0.4,3.1c-1,4.2-1.6,5.2-1.8,5.5
				c-0.4,0.5-1.5,0.7-2.2,0.7C242.8,220.7,242.7,220.7,242.6,220.7L242.6,220.7z M236.9,244.3l3.2-13.1c1.6,0.1,2.2,0.3,2.3,0.4
				c0.1,0.2,0.2,0.9-0.4,3.4l-1.2,5.1c-0.6,2.7-1.3,3.4-1.5,3.6C239,243.9,238.4,244.2,236.9,244.3L236.9,244.3z"/>
		</g>
		<g>
			<path class="st14" d="M257.1,255.2l11.1-45.7h15.6l-11.1,45.7H257.1z M268.6,207.9l2-8.1h15.6l-2,8.1H268.6z"/>
			<path class="st14" d="M285.5,200.3l-1.7,7.1h-14.5l1.7-7.1H285.5 M283.1,210.1l-10.8,44.7h-14.5l10.8-44.7H283.1 M286.8,199.3
				h-1.3H271h-0.8L270,200l-1.7,7.1l-0.3,1.2h1.3h14.5h0.8l0.2-0.8l1.7-7.1L286.8,199.3L286.8,199.3z M284.4,209.1h-1.3h-14.5h-0.8
				l-0.2,0.8l-10.8,44.7l-0.3,1.2h1.3h14.5h0.8l0.2-0.8l10.8-44.7L284.4,209.1L284.4,209.1z"/>
		</g>
		<g>
			<polygon class="st14" points="274.7,255.2 277.1,245.2 293.7,219.5 284.4,219.5 286.8,209.6 310.8,209.6 308.3,220.2 292,245.3 
				302.2,245.3 299.8,255.2 			"/>
			<path class="st14" d="M310.2,210.1l-2.4,9.9l-16.7,25.8h10.4l-2.2,9h-24.1l2.3-9.4l17-26.4H285l2.2-9H310.2 M311.5,209.1h-1.3
				h-23h-0.8l-0.2,0.8l-2.2,9l-0.3,1.2h1.3h7.7l-16,24.8l-0.1,0.1l0,0.2l-2.3,9.4l-0.3,1.2h1.3h24.1h0.8l0.2-0.8l2.2-9l0.3-1.2h-1.3
				H293l15.7-24.3l0.1-0.1l0-0.2l2.4-9.9L311.5,209.1L311.5,209.1z"/>
		</g>
		<g>
			<path class="st14" d="M311.6,256.1c-2.6,0-4.8-0.7-6.6-2.1c-1.9-1.5-2.3-4.5-1.2-9.3l0.9-3.7c0.8-3.5,2-5.8,3.5-7.1
				c1.4-1.3,4.5-2.7,9.3-4.3c2-0.7,3.5-1.2,4.6-1.7h-14.2l0.9-3.6c0.8-3.5,1.9-6.2,3.2-8.2c1.3-1.9,3.5-3.7,6.4-5.1
				c2.9-1.5,6.4-2.2,10.5-2.2c4.9,0,8.4,0.9,10.5,2.5c2.2,1.7,3.2,3.9,3.1,6.4c-0.1,2.4-1,7.2-2.8,14.7l-5.5,22.8h-14.8l0.6-2.7
				c-0.9,0.9-1.9,1.7-3,2.2C315.4,255.6,313.6,256.1,311.6,256.1z M324,234.6c-2,1.3-3.2,2.3-3.7,3.2c-0.6,1-1.1,2.5-1.6,4.5
				c-0.7,2.8-0.7,3.8-0.6,4.2c0,0.2,0.1,0.6,1.1,0.6c0.7,0,1.2-0.2,1.5-0.6c0.2-0.3,0.7-1.3,1.3-4L324,234.6z M326.4,217.7
				c-0.8,0-1.3,0.2-1.6,0.7c-0.2,0.4-0.7,1.5-1.4,4.5l-1.2,5c2.7-1.1,3.3-1.5,3.4-1.7c0.3-0.4,0.8-1.3,1.3-3.5
				c0.7-2.8,0.7-3.9,0.6-4.3C327.3,218,327.1,217.7,326.4,217.7z"/>
			<path class="st14" d="M328.8,209.3c4.8,0,8.2,0.8,10.2,2.4c2,1.6,3,3.6,2.9,6c-0.1,2.4-1,7.2-2.8,14.6l-5.4,22.4H320l1-4
				c-1.2,1.6-2.7,2.8-4.2,3.6c-1.6,0.8-3.3,1.2-5.2,1.2c-2.5,0-4.6-0.7-6.3-2c-1.7-1.3-2.1-4.3-1-8.8l0.9-3.7
				c0.8-3.3,1.9-5.6,3.3-6.8c1.4-1.2,4.4-2.6,9.2-4.2c5.1-1.7,7.8-2.9,8.3-3.5c0.5-0.6,0.9-1.8,1.4-3.7c0.6-2.3,0.8-3.9,0.6-4.6
				c-0.2-0.7-0.7-1.1-1.5-1.1c-1,0-1.6,0.3-2,0.9c-0.4,0.6-0.9,2.1-1.5,4.6l-1.1,4.7h-13.3l0.7-3c0.8-3.5,1.9-6.1,3.2-8
				c1.3-1.9,3.3-3.5,6.2-5C321.4,210,324.9,209.3,328.8,209.3 M324.8,233.5c-2.6,1.6-4.3,2.9-4.9,4c-0.6,1.1-1.2,2.6-1.7,4.6
				c-0.6,2.3-0.8,3.8-0.6,4.5c0.2,0.7,0.7,1,1.6,1c0.9,0,1.5-0.3,1.9-0.8c0.4-0.5,0.9-1.9,1.4-4.2L324.8,233.5 M328.8,208.3
				c-4.1,0-7.7,0.8-10.7,2.3c-3,1.5-5.2,3.3-6.6,5.3c-1.3,2-2.5,4.8-3.3,8.3l-0.7,3l-0.3,1.2h1.3h10.8c-0.6,0.2-1.3,0.5-2,0.7
				c-4.9,1.7-8,3.1-9.5,4.4c-1.6,1.4-2.7,3.8-3.6,7.4l-0.9,3.7c-1.2,5-0.8,8.2,1.3,9.8c1.9,1.5,4.2,2.2,6.9,2.2c2,0,3.9-0.4,5.6-1.3
				c0.7-0.3,1.3-0.8,1.9-1.2l-0.1,0.5l-0.3,1.2h1.3h13.7h0.8l0.2-0.8l5.4-22.4c1.8-7.5,2.7-12.4,2.8-14.8c0.1-2.7-1-5-3.3-6.8
				C337.5,209.1,333.9,208.3,328.8,208.3L328.8,208.3z M322.9,227l1-4.1c0.8-3.1,1.2-4,1.3-4.3c0.1-0.1,0.3-0.4,1.2-0.4
				c0.5,0,0.5,0.1,0.6,0.3c0.1,0.2,0.2,1-0.6,4.1c-0.5,2.2-1,3-1.2,3.3C325.1,226,324.7,226.3,322.9,227L322.9,227z M319.2,246.6
				c-0.6,0-0.6-0.2-0.7-0.2c0-0.2-0.1-1,0.6-4c0.5-1.9,1-3.4,1.6-4.4c0.3-0.5,0.9-1.2,2.5-2.3l-1.6,6.8c-0.7,2.9-1.1,3.6-1.2,3.8
				C320.3,246.3,320,246.6,319.2,246.6L319.2,246.6z"/>
		</g>
		<g>
			<path class="st14" d="M338,255.2l11.1-45.7h15.2l-1.3,3.9c2.7-2.9,5.8-4.5,9.2-4.7l0.7,0l-4.1,16.8h-0.4c-2.5,0-4.4,0.3-5.7,1
				c-1.3,0.6-2.2,1.5-2.7,2.6c-0.6,1.2-1.4,3.9-2.4,8.2l-4.4,18H338z"/>
			<path class="st14" d="M372.1,209.3l-3.8,15.7c-2.6,0-4.6,0.3-5.9,1c-1.4,0.7-2.3,1.6-2.9,2.8c-0.6,1.2-1.4,4-2.4,8.3l-4.3,17.6
				h-14.1l10.8-44.7h14.1l-2,5.9C364.6,211.8,368.2,209.5,372.1,209.3 M373.4,208.2l-1.4,0.1c-2.9,0.2-5.6,1.3-8,3.4l0.4-1.3
				l0.4-1.3h-1.4h-14.1h-0.8l-0.2,0.8l-10.8,44.7l-0.3,1.2h1.3h14.1h0.8l0.2-0.8l4.3-17.6c1-4.2,1.8-7,2.4-8.1
				c0.5-1,1.3-1.8,2.5-2.3c1.2-0.6,3.1-0.9,5.5-0.9h0.8l0.2-0.8l3.8-15.7L373.4,208.2L373.4,208.2z"/>
		</g>
		<g>
			<path class="st14" d="M363.6,255.2l11.1-45.7h15.2l-1.3,3.9c2.7-2.9,5.8-4.5,9.2-4.7l0.7,0l-4.1,16.8h-0.4c-2.5,0-4.4,0.3-5.7,1
				c-1.3,0.6-2.2,1.5-2.7,2.6c-0.6,1.2-1.4,3.9-2.4,8.2l-4.4,18H363.6z"/>
			<path class="st14" d="M397.7,209.3l-3.8,15.7c-2.6,0-4.6,0.3-5.9,1c-1.4,0.7-2.3,1.6-2.9,2.8c-0.6,1.2-1.4,4-2.4,8.3l-4.3,17.6
				h-14.1l10.8-44.7h14.1l-2,5.9C390.3,211.8,393.8,209.5,397.7,209.3 M399,208.2l-1.4,0.1c-2.9,0.2-5.6,1.3-8,3.5l0.4-1.3l0.4-1.3
				h-1.4h-14.1h-0.8l-0.2,0.8l-10.8,44.7l-0.3,1.2h1.3h14.1h0.8l0.2-0.8l4.3-17.6c1-4.2,1.8-7,2.4-8.1c0.5-1,1.3-1.8,2.5-2.3
				c1.2-0.6,3.1-0.9,5.5-0.9h0.8l0.2-0.8l3.8-15.7L399,208.2L399,208.2z"/>
		</g>
		<g>
			<path class="st14" d="M405.9,256.1c-3,0-5.7-0.4-7.8-1.3c-2.2-0.9-3.8-2.1-4.7-3.6c-1-1.5-1.5-3.2-1.6-5
				c-0.1-1.8,0.3-4.4,1.1-7.7l3.2-13c1-4,2.3-7.1,4-9.4c1.7-2.3,4-4.1,6.8-5.3c2.8-1.2,5.9-1.8,9.2-1.8c4,0,7.3,0.8,9.6,2.3
				c2.3,1.5,3.8,3.6,4.2,6.1c0.5,2.5,0.2,5.9-0.9,10.3l-1.5,6.3h-18.3l-2.2,9.3c-0.6,2.5-0.6,3.4-0.5,3.7c0,0.1,0.1,0.5,1.1,0.5
				c0.9,0,1.6-0.3,2-1c0.5-0.7,1-2.2,1.6-4.3l1.5-6.3H427l-0.9,3.9c-0.7,2.8-1.4,5-2.1,6.5c-0.7,1.5-2,3.2-3.8,4.9
				c-1.8,1.7-3.8,3-6.1,3.9C411.7,255.6,409,256.1,405.9,256.1z M414.3,225.4l0.7-2.9c0.7-2.8,0.7-3.9,0.7-4.3
				c0-0.3-0.1-0.6-0.8-0.6c-0.8,0-1.3,0.2-1.6,0.6c-0.2,0.4-0.7,1.4-1.4,4.5l-0.6,2.6H414.3z"/>
			<path class="st14" d="M416.1,209.3c4,0,7.1,0.7,9.3,2.2c2.2,1.4,3.6,3.4,4,5.8c0.5,2.4,0.2,5.7-0.9,10.1l-1.4,5.9h-18.3l-2.3,9.7
				c-0.5,2-0.7,3.3-0.5,3.9c0.2,0.6,0.7,0.9,1.5,0.9c1.1,0,1.9-0.4,2.4-1.2c0.5-0.8,1.1-2.3,1.6-4.5l1.4-5.9h13.4l-0.8,3.3
				c-0.7,2.8-1.4,4.9-2.1,6.4c-0.7,1.5-1.9,3.1-3.7,4.7c-1.7,1.7-3.7,2.9-6,3.8c-2.2,0.8-4.9,1.3-8,1.3c-3,0-5.5-0.4-7.6-1.2
				c-2.1-0.8-3.6-2-4.5-3.4c-0.9-1.4-1.4-3-1.5-4.8c-0.1-1.7,0.3-4.3,1.1-7.6l3.2-13c0.9-3.9,2.2-7,3.9-9.2c1.6-2.3,3.9-4,6.6-5.2
				C409.8,209.9,412.9,209.3,416.1,209.3 M410.6,225.9h4.1l0.8-3.3c0.6-2.3,0.8-3.8,0.7-4.5c-0.1-0.7-0.5-1-1.3-1
				c-1,0-1.7,0.3-2,0.9s-0.9,2.1-1.5,4.6L410.6,225.9 M416.1,208.3c-3.4,0-6.5,0.6-9.4,1.9c-2.9,1.3-5.3,3.1-7.1,5.5
				c-1.7,2.4-3.1,5.6-4,9.6l-3.2,13c-0.8,3.4-1.2,6-1.1,7.9c0.1,1.9,0.6,3.7,1.6,5.3c1,1.6,2.7,2.9,5,3.8c2.2,0.9,4.9,1.3,8,1.3
				c3.2,0,6-0.4,8.3-1.3c2.4-0.9,4.5-2.2,6.3-4c1.8-1.8,3.1-3.4,3.9-5c0.7-1.5,1.5-3.7,2.2-6.6l0.8-3.3l0.3-1.2h-1.3H413h-0.8
				l-0.2,0.8l-1.4,5.9c-0.6,2.6-1.1,3.7-1.5,4.1c-0.2,0.3-0.6,0.7-1.6,0.7c-0.1,0-0.5,0-0.6-0.1c0-0.1-0.1-0.8,0.5-3.4l2.2-8.9h17.5
				h0.8l0.2-0.8l1.4-5.9c1.1-4.5,1.4-7.9,0.9-10.5c-0.5-2.7-2-4.8-4.5-6.4C423.5,209.1,420.2,208.3,416.1,208.3L416.1,208.3z
				 M411.8,224.9l0.5-2c0.8-3.3,1.2-4.1,1.3-4.3c0.2-0.3,0.6-0.4,1.2-0.4c0.2,0,0.3,0,0.3,0c0,0,0,0,0,0.1c0,0.2,0,1.1-0.7,4.1
				l-0.6,2.5H411.8L411.8,224.9z"/>
		</g>
		<g>
			<path class="st14" d="M457.8,255.2l1.6-9.8H455l-3.3,9.8h-16.3l21.1-55.5h22.2l-4.9,55.5H457.8z M461.4,234.8
				c0.6-5,1.4-10.9,2.5-17.8c-3,7.8-5.1,13.7-6.4,17.8H461.4z"/>
			<path class="st14" d="M478.2,200.3l-4.8,54.5h-15l1.6-9.8h-5.3l-3.3,9.8h-15.2l20.7-54.5H478.2 M465.2,212.4
				c-4,10.4-6.8,18.1-8.4,22.9h5.1C462.6,229.1,463.7,221.5,465.2,212.4 M479.3,199.3h-1.1h-21.3h-0.7l-0.2,0.6l-20.7,54.5l-0.5,1.4
				h1.4h15.2h0.7l0.2-0.7l3-9.1h3.4l-1.4,8.6l-0.2,1.2h1.2h15h0.9l0.1-0.9l4.8-54.5L479.3,199.3L479.3,199.3z M458.2,234.3
				c1.1-3.2,2.6-7.4,4.6-12.7c-0.7,4.7-1.3,9-1.7,12.7H458.2L458.2,234.3z"/>
		</g>
		<g>
			<path class="st14" d="M484.3,256.1c-2.3,0-4.2-0.6-5.6-1.8c-1.4-1.2-2.2-2.6-2.3-4.2c-0.1-1.5,0.2-3.9,1.1-7.3l5.1-20.9
				c0.8-3.5,1.7-5.9,2.5-7.4c0.8-1.5,2.3-2.8,4.2-4c2-1.1,4.1-1.7,6.5-1.7c1.8,0,3.4,0.3,4.8,1c1.1,0.5,2,1.2,2.8,2.1l2.9-12.1h15.2
				L508,255.2h-15.2l0.6-2.5c-1.3,1-2.7,1.7-4,2.2C487.8,255.7,486,256.1,484.3,256.1z M500.4,217.7c-0.7,0-1.2,0.2-1.5,0.6
				c-0.2,0.3-0.7,1.1-1.2,3.2l-5.3,21.9c-0.5,2.3-0.5,3.1-0.4,3.3c0,0.2,0.1,0.5,0.9,0.5c0.7,0,1.3-0.2,1.6-0.8
				c0.3-0.4,0.8-1.5,1.5-4.5l5-20.7c0.5-2,0.4-2.8,0.4-3C501.4,218,501.3,217.7,500.4,217.7z"/>
			<path class="st14" d="M520.8,200.3l-13.2,54.5h-14.1l0.8-3.2c-1.7,1.3-3.3,2.4-5,3c-1.7,0.7-3.3,1-4.9,1c-2.2,0-4-0.6-5.3-1.7
				c-1.3-1.1-2.1-2.4-2.2-3.9c-0.1-1.5,0.2-3.8,1-7.1L483,222c0.8-3.4,1.6-5.9,2.4-7.3c0.8-1.4,2.2-2.7,4-3.8c1.9-1.1,4-1.6,6.2-1.6
				c1.7,0,3.3,0.3,4.6,0.9c1.3,0.6,2.4,1.5,3.3,2.7l3.1-12.7H520.8 M492.9,247.6c0.9,0,1.6-0.3,2.1-1c0.5-0.6,1-2.2,1.6-4.7l5-20.7
				c0.4-1.6,0.5-2.7,0.4-3.3c-0.2-0.6-0.7-0.8-1.5-0.8c-0.8,0-1.5,0.3-1.9,0.8c-0.4,0.5-0.8,1.6-1.3,3.4l-5.3,21.9
				c-0.4,1.8-0.6,3-0.4,3.6C491.7,247.4,492.1,247.6,492.9,247.6 M522.1,199.3h-1.3h-14.1h-0.8l-0.2,0.8l-2.6,10.8
				c-0.7-0.6-1.5-1.2-2.4-1.6c-1.4-0.7-3.1-1-5-1c-2.4,0-4.7,0.6-6.7,1.8c-2,1.2-3.5,2.6-4.4,4.2c-0.9,1.5-1.7,4-2.5,7.6l-5.1,20.9
				c-0.8,3.4-1.2,5.9-1.1,7.4c0.1,1.7,1,3.3,2.5,4.6c1.5,1.3,3.5,1.9,5.9,1.9c1.8,0,3.5-0.4,5.3-1.1c1-0.4,2-0.9,3-1.6l-0.1,0.6
				l-0.3,1.2h1.3h14.1h0.8l0.2-0.8l13.2-54.5L522.1,199.3L522.1,199.3z M492.9,246.6c-0.3,0-0.4-0.1-0.4-0.1c0-0.2-0.1-0.8,0.4-3.1
				l5.3-21.9c0.5-2.2,0.9-2.8,1.1-3c0.1-0.1,0.3-0.4,1.1-0.4c0.4,0,0.6,0.1,0.6,0.1c0,0.1,0.1,0.7-0.4,2.8l-5,20.7
				c-0.7,3.1-1.2,4-1.4,4.3C494,246.4,493.7,246.6,492.9,246.6L492.9,246.6z"/>
		</g>
		<g>
			<path class="st14" d="M516.3,255.2l3.8-45.7h13.6l-3.4,28.6c1-3.1,2.5-7.5,4.3-13.2c1.6-5.2,3.3-10.2,5-15.1l0.1-0.3h13.7
				l-17.8,45.7H516.3z"/>
			<path class="st14" d="M552.7,210.1l-17.4,44.7h-18.5l3.7-44.7h12.6l-3.9,32.6c0.9-2.4,2.8-8.2,5.8-17.5c1.7-5.2,3.3-10.2,5-15.1
				H552.7 M554.2,209.1h-1.5h-12.6h-0.7l-0.2,0.7c-1.7,4.8-3.4,9.9-5,15.1c-1,3.2-2,6-2.7,8.4l2.8-23.1l0.1-1.1h-1.1h-12.6h-0.9
				l-0.1,0.9l-3.7,44.7l-0.1,1.1h1.1h18.5h0.7l0.2-0.6l17.4-44.7L554.2,209.1L554.2,209.1z"/>
		</g>
		<g>
			<path class="st14" d="M560,256.1c-3,0-5.7-0.4-7.8-1.3c-2.2-0.9-3.8-2.1-4.7-3.6c-1-1.5-1.5-3.2-1.6-5c-0.1-1.8,0.3-4.4,1.1-7.7
				l3.2-13c1-4,2.3-7.1,4-9.4c1.7-2.3,4-4.1,6.8-5.3c2.8-1.2,5.9-1.8,9.2-1.8c4,0,7.3,0.8,9.6,2.3c2.3,1.5,3.8,3.6,4.2,6.1
				c0.5,2.5,0.2,5.9-0.9,10.3l-1.5,6.3h-18.3l-2.2,9.3c-0.6,2.5-0.6,3.4-0.5,3.7c0,0.1,0.1,0.5,1.1,0.5c0.9,0,1.6-0.3,2-1
				c0.5-0.7,1-2.2,1.6-4.3l1.5-6.3h14.4l-0.9,3.9c-0.7,2.8-1.4,5-2.1,6.5c-0.7,1.5-2,3.2-3.8,4.9c-1.8,1.7-3.8,3-6.1,3.9
				C565.8,255.6,563.1,256.1,560,256.1z M568.4,225.4l0.7-2.9c0.7-2.8,0.7-3.9,0.7-4.3c0-0.3-0.1-0.6-0.8-0.6
				c-0.8,0-1.3,0.2-1.6,0.6c-0.2,0.4-0.7,1.4-1.4,4.5l-0.6,2.6H568.4z"/>
			<path class="st14" d="M570.2,209.3c4,0,7.1,0.7,9.3,2.2c2.2,1.4,3.6,3.4,4,5.8c0.5,2.4,0.2,5.7-0.9,10.1l-1.4,5.9h-18.3l-2.3,9.7
				c-0.5,2-0.7,3.3-0.5,3.9c0.2,0.6,0.7,0.9,1.5,0.9c1.1,0,1.9-0.4,2.4-1.2c0.5-0.8,1.1-2.3,1.6-4.5l1.4-5.9h13.4l-0.8,3.3
				c-0.7,2.8-1.4,4.9-2.1,6.4c-0.7,1.5-1.9,3.1-3.7,4.7c-1.7,1.7-3.7,2.9-6,3.8c-2.2,0.8-4.9,1.3-8,1.3c-3,0-5.5-0.4-7.6-1.2
				c-2.1-0.8-3.6-2-4.5-3.4c-0.9-1.4-1.4-3-1.5-4.8c-0.1-1.7,0.3-4.3,1.1-7.6l3.2-13c0.9-3.9,2.2-7,3.9-9.2c1.6-2.3,3.9-4,6.6-5.2
				C563.9,209.9,567,209.3,570.2,209.3 M564.7,225.9h4.1l0.8-3.3c0.6-2.3,0.8-3.8,0.7-4.5c-0.1-0.7-0.5-1-1.3-1c-1,0-1.7,0.3-2,0.9
				c-0.4,0.6-0.9,2.1-1.5,4.6L564.7,225.9 M570.2,208.3c-3.4,0-6.5,0.6-9.4,1.9c-2.9,1.3-5.3,3.1-7.1,5.5c-1.7,2.4-3.1,5.6-4,9.6
				l-3.2,13c-0.8,3.4-1.2,6-1.1,7.9c0.1,1.9,0.6,3.7,1.6,5.3c1,1.6,2.7,2.9,5,3.8c2.2,0.9,4.9,1.3,8,1.3c3.2,0,6-0.4,8.3-1.3
				c2.4-0.9,4.5-2.2,6.3-4c1.8-1.8,3.1-3.4,3.9-5c0.7-1.5,1.5-3.7,2.2-6.6l0.8-3.3l0.3-1.2h-1.3h-13.4h-0.8l-0.2,0.8l-1.4,5.9
				c-0.6,2.6-1.1,3.7-1.5,4.1c-0.2,0.3-0.6,0.7-1.6,0.7c-0.1,0-0.5,0-0.6-0.1c0-0.1-0.1-0.8,0.5-3.4l2.2-8.9h17.5h0.8l0.2-0.8
				l1.4-5.9c1.1-4.5,1.4-7.9,0.9-10.5c-0.5-2.7-2-4.8-4.5-6.4C577.6,209.1,574.3,208.3,570.2,208.3L570.2,208.3z M565.9,224.9l0.5-2
				c0.8-3.3,1.2-4.1,1.3-4.3c0.2-0.3,0.6-0.4,1.2-0.4c0.2,0,0.3,0,0.3,0c0,0,0,0,0,0.1c0,0.2,0,1.1-0.7,4.1l-0.6,2.5H565.9
				L565.9,224.9z"/>
		</g>
		<g>
			<path class="st14" d="M598.4,255.2l7.6-31.5c0.9-3.7,1.1-5,1-5.5c0-0.2,0-0.5-1-0.5c-0.8,0-1.4,0.3-1.7,0.9
				c-0.3,0.5-0.8,2-1.8,6.1l-7.4,30.6H580l11.1-45.7h15.4l-0.8,2.8c1.1-1,2.2-1.7,3.4-2.3c1.7-0.9,3.6-1.3,5.6-1.3
				c2.5,0,4.5,0.6,5.9,1.8c1.4,1.2,2.1,2.7,2.1,4.5c0,1.7-0.4,4.5-1.4,8.5l-7.7,31.7H598.4z"/>
			<path class="st14" d="M614.6,209.3c2.4,0,4.3,0.6,5.5,1.6c1.3,1.1,1.9,2.5,2,4.2c0,1.7-0.4,4.5-1.4,8.4l-7.6,31.3h-14.1l7.5-30.9
				c0.7-3.1,1.1-4.9,1-5.6c0-0.7-0.5-1-1.5-1c-1,0-1.7,0.4-2.2,1.2c-0.4,0.8-1.1,2.8-1.9,6.2l-7.3,30.2h-14.1l10.8-44.7h14.4
				l-1.2,4.1c1.4-1.6,3-2.9,4.7-3.7S612.7,209.3,614.6,209.3 M614.6,208.3c-2.1,0-4.1,0.4-5.9,1.3c-0.8,0.4-1.5,0.8-2.2,1.3l0.2-0.6
				l0.4-1.3h-1.3h-14.4h-0.8l-0.2,0.8l-10.8,44.7l-0.3,1.2h1.3h14.1h0.8l0.2-0.8l7.3-30.2c1-4.1,1.5-5.5,1.8-5.9
				c0.2-0.3,0.5-0.7,1.3-0.7c0.3,0,0.4,0,0.5,0.1c0,0.3-0.1,1.4-1,5.3l-7.5,30.9l-0.3,1.2h1.3h14.1h0.8l0.2-0.8l7.6-31.3
				c1-4,1.4-6.8,1.4-8.6c0-2-0.8-3.6-2.3-4.9C619.4,208.9,617.3,208.3,614.6,208.3L614.6,208.3z"/>
		</g>
		<g>
			<path class="st14" d="M631.6,255.2c-3.3,0-5.5-0.1-6.9-0.4c-1.4-0.3-2.6-0.9-3.5-1.9c-0.9-1-1.3-2.2-1.3-3.5c0-1.2,0.6-4,1.7-8.6
				l5.3-22.1h-3l2-8.1h3l1.7-7h15.2l-1.7,7h3.8l-2,8.1h-3.8l-5.7,23.5c-0.9,3.7-0.8,4.4-0.8,4.6c0,0,0,0,0,0c0.1,0,0.6,0.2,3.4,0.2
				h0.6l-2,8.2H631.6z"/>
			<path class="st14" d="M645.2,204.1l-1.7,7h3.8l-1.7,7.1h-3.8l-5.8,23.9c-0.7,2.9-1,4.6-0.7,4.9c0.2,0.3,1.5,0.5,3.8,0.5l-1.7,7.2
				h-5.7c-3.2,0-5.5-0.1-6.8-0.4c-1.3-0.3-2.4-0.9-3.2-1.8c-0.8-0.9-1.2-2-1.2-3.2c0-1.2,0.6-4,1.7-8.5l5.5-22.7h-3l1.7-7.1h3l1.7-7
				H645.2 M646.5,203.1h-1.3H631h-0.8l-0.2,0.8l-1.5,6.3h-2.3h-0.8l-0.2,0.8l-1.7,7.1l-0.3,1.2h1.3h1.8l-5.2,21.4
				c-1.1,4.6-1.7,7.4-1.7,8.7c0,1.5,0.4,2.8,1.4,3.9c1,1.1,2.2,1.8,3.8,2.1c1.4,0.3,3.7,0.4,7,0.4h5.7h0.8l0.2-0.8l1.7-7.2l0.3-1.2
				h-1.3c-1.7,0-2.5-0.1-2.9-0.2c0-0.5,0.2-1.5,0.8-4l5.6-23.1h3h0.8l0.2-0.8l1.7-7.1l0.3-1.2h-1.3h-2.5l1.4-5.8L646.5,203.1
				L646.5,203.1z"/>
		</g>
		<g>
			<path class="st14" d="M649.3,256.1c-2.2,0-4-0.4-5.3-1.1c-1.3-0.8-2.2-1.8-2.6-3.1c-0.4-1.3-0.5-2.6-0.4-3.9
				c0.2-1.3,0.7-3.9,1.6-7.7l7.4-30.5h15.2l-7.5,31c-1.1,4.5-1.2,5.7-1.2,6c0,0.2,0.1,0.5,1.1,0.5c0.9,0,1.4-0.2,1.7-0.7
				c0.2-0.4,0.7-1.9,1.8-6.4l7.4-30.4h15.2l-11.1,45.7h-15.4l0.8-2.4c-1,0.9-2,1.6-3.2,2.1C653.1,255.7,651.2,256.1,649.3,256.1z"/>
			<path class="st14" d="M683,210.1l-10.8,44.7h-14.4l1.1-3.7c-1.3,1.5-2.8,2.6-4.4,3.4c-1.6,0.8-3.4,1.1-5.2,1.1
				c-2.1,0-3.8-0.4-5-1.1c-1.2-0.7-2-1.7-2.4-2.9c-0.4-1.2-0.5-2.4-0.3-3.7c0.1-1.3,0.7-3.9,1.6-7.7l7.3-30.1h14.1l-7.4,30.4
				c-0.8,3.5-1.2,5.5-1.2,6.2c0.1,0.7,0.6,1,1.6,1c1,0,1.8-0.3,2.1-1c0.4-0.7,1-2.8,1.9-6.5l7.3-30.1H683 M684.3,209.1H683h-14.1
				h-0.8l-0.2,0.8l-7.3,30.1c-1.1,4.7-1.6,5.9-1.8,6.3c-0.1,0.1-0.3,0.5-1.2,0.5c-0.3,0-0.5-0.1-0.6-0.1c0-0.3,0.1-1.4,1.1-5.9
				l7.4-30.4l0.3-1.2h-1.3h-14.1h-0.8l-0.2,0.8l-7.3,30.1c-0.9,3.9-1.5,6.5-1.6,7.8c-0.2,1.4,0,2.8,0.4,4.1c0.5,1.4,1.4,2.6,2.8,3.4
				c1.4,0.8,3.2,1.2,5.5,1.2c2,0,3.9-0.4,5.6-1.2c0.7-0.3,1.4-0.7,2-1.2l-0.1,0.3l-0.4,1.3h1.4h14.4h0.8l0.2-0.8l10.8-44.7
				L684.3,209.1L684.3,209.1z"/>
		</g>
		<g>
			<path class="st14" d="M676.6,255.2l11.1-45.7h15.2l-1.3,3.9c2.7-2.9,5.8-4.5,9.2-4.7l0.7,0l-4.1,16.8H707c-2.5,0-4.4,0.3-5.7,1
				c-1.3,0.6-2.2,1.5-2.7,2.6c-0.6,1.2-1.4,3.9-2.4,8.2l-4.4,18H676.6z"/>
			<path class="st14" d="M710.8,209.3L707,225c-2.6,0-4.6,0.3-5.9,1c-1.4,0.7-2.3,1.6-2.9,2.8c-0.6,1.2-1.4,4-2.4,8.3l-4.3,17.6
				h-14.1l10.8-44.7h14.1l-2,5.9C703.3,211.8,706.8,209.5,710.8,209.3 M712.1,208.2l-1.4,0.1c-2.9,0.2-5.6,1.3-8,3.5l0.4-1.3
				l0.4-1.3h-1.4h-14.1h-0.8l-0.2,0.8l-10.8,44.7l-0.3,1.2h1.3h14.1h0.8l0.2-0.8l4.3-17.6c1-4.2,1.8-7,2.4-8.1
				c0.5-1,1.3-1.8,2.5-2.3c1.2-0.6,3.1-0.9,5.5-0.9h0.8l0.2-0.8l3.8-15.7L712.1,208.2L712.1,208.2z"/>
		</g>
		<g>
			<path class="st14" d="M718.9,256.1c-3,0-5.7-0.4-7.8-1.3c-2.2-0.9-3.8-2.1-4.7-3.6c-1-1.5-1.5-3.2-1.6-5
				c-0.1-1.8,0.3-4.4,1.1-7.7l3.2-13c1-4,2.3-7.1,4-9.4c1.7-2.3,4-4.1,6.8-5.3c2.8-1.2,5.9-1.8,9.2-1.8c4,0,7.3,0.8,9.6,2.3
				c2.3,1.5,3.8,3.6,4.2,6.1c0.5,2.5,0.2,5.9-0.9,10.3l-1.5,6.3h-18.3L720,243c-0.6,2.5-0.6,3.4-0.5,3.7c0,0.1,0.1,0.5,1.1,0.5
				c0.9,0,1.6-0.3,2-1c0.5-0.7,1-2.2,1.6-4.3l1.5-6.3h14.4l-0.9,3.9c-0.7,2.8-1.4,5-2.1,6.5c-0.7,1.5-2,3.2-3.8,4.9
				c-1.8,1.7-3.8,3-6.1,3.9C724.8,255.6,722,256.1,718.9,256.1z M727.3,225.4l0.7-2.9c0.7-2.8,0.7-3.9,0.7-4.3
				c0-0.3-0.1-0.6-0.8-0.6c-0.8,0-1.3,0.2-1.6,0.6c-0.2,0.4-0.7,1.4-1.4,4.5l-0.6,2.6H727.3z"/>
			<path class="st14" d="M729.1,209.3c4,0,7.1,0.7,9.3,2.2c2.2,1.4,3.6,3.4,4,5.8c0.5,2.4,0.2,5.7-0.9,10.1l-1.4,5.9h-18.3l-2.3,9.7
				c-0.5,2-0.7,3.3-0.5,3.9c0.2,0.6,0.7,0.9,1.5,0.9c1.1,0,1.9-0.4,2.4-1.2c0.5-0.8,1.1-2.3,1.6-4.5l1.4-5.9h13.4l-0.8,3.3
				c-0.7,2.8-1.4,4.9-2.1,6.4c-0.7,1.5-1.9,3.1-3.7,4.7c-1.7,1.7-3.7,2.9-6,3.8c-2.2,0.8-4.9,1.3-8,1.3c-3,0-5.5-0.4-7.6-1.2
				c-2.1-0.8-3.6-2-4.5-3.4c-0.9-1.4-1.4-3-1.5-4.8c-0.1-1.7,0.3-4.3,1.1-7.6l3.2-13c0.9-3.9,2.2-7,3.9-9.2s3.9-4,6.6-5.2
				C722.9,209.9,725.9,209.3,729.1,209.3 M723.6,225.9h4.1l0.8-3.3c0.6-2.3,0.8-3.8,0.7-4.5c-0.1-0.7-0.5-1-1.3-1
				c-1,0-1.7,0.3-2,0.9s-0.9,2.1-1.5,4.6L723.6,225.9 M729.1,208.3c-3.4,0-6.5,0.6-9.4,1.9c-2.9,1.3-5.3,3.1-7.1,5.5
				c-1.7,2.4-3.1,5.6-4,9.6l-3.2,13c-0.8,3.4-1.2,6-1.1,7.9c0.1,1.9,0.6,3.7,1.6,5.3c1,1.6,2.7,2.9,5,3.8c2.2,0.9,4.9,1.3,8,1.3
				c3.2,0,6-0.4,8.3-1.3c2.4-0.9,4.5-2.2,6.3-4c1.8-1.8,3.1-3.4,3.9-5c0.7-1.5,1.5-3.7,2.2-6.6l0.8-3.3l0.3-1.2h-1.3H726h-0.8
				l-0.2,0.8l-1.4,5.9c-0.6,2.6-1.1,3.7-1.5,4.1c-0.2,0.3-0.6,0.7-1.6,0.7c-0.1,0-0.5,0-0.6-0.1c0-0.1-0.1-0.8,0.5-3.4l2.2-8.9h17.5
				h0.8l0.2-0.8l1.4-5.9c1.1-4.5,1.4-7.9,0.9-10.5c-0.5-2.7-2-4.8-4.5-6.4C736.6,209.1,733.3,208.3,729.1,208.3L729.1,208.3z
				 M724.9,224.9l0.5-2c0.8-3.3,1.2-4.1,1.3-4.3c0.2-0.3,0.6-0.4,1.2-0.4c0.2,0,0.3,0,0.3,0c0,0,0,0,0,0.1c0,0.2,0,1.1-0.7,4.1
				l-0.6,2.5H724.9L724.9,224.9z"/>
		</g>
	</g>
	<g>
		<g>
			<path class="st15" d="M218,255.2l13.4-55.5h15.1c4.7,0,8.2,0.4,10.4,1.1c2.4,0.7,4.1,2.2,5.1,4.5c1,2.2,0.9,5.7-0.2,10.6
				c-0.8,3.3-1.9,5.6-3.3,6.9c-1.1,1.1-2.9,1.9-5.2,2.6c2.3,0.8,3.8,1.9,4.5,3.4c0.9,1.8,0.8,4.5-0.1,8.2l-1.2,5.1
				c-0.9,3.7-2,6.5-3.4,8.4c-1.4,1.9-3.1,3.1-5.3,3.8c-2.1,0.7-6.1,1-12.1,1H218z M236.3,244.9c2-0.1,2.9-0.5,3.2-0.8
				c0.4-0.3,1.1-1.3,1.7-3.9l1.2-5.1c0.8-3.1,0.4-3.7,0.4-3.8c-0.1-0.1-0.6-0.5-3.1-0.6L236.3,244.9z M242,221.2c0.3,0,0.6,0,0.8,0
				c1.3,0,2.2-0.3,2.6-0.8c0.4-0.4,1-1.8,1.9-5.7c0.5-2,0.5-2.9,0.4-3.4c-0.2-0.8-0.5-0.9-0.7-0.9c-0.3-0.1-0.9-0.2-2.4-0.3
				L242,221.2z"/>
			<path class="st15" d="M246.5,200.3c4.6,0,8.1,0.3,10.3,1c2.2,0.7,3.8,2.1,4.8,4.2c1,2.1,0.9,5.5-0.3,10.2
				c-0.8,3.2-1.8,5.4-3.2,6.7c-1.3,1.3-3.6,2.2-6.8,2.9c3.2,0.7,5.2,2,6,3.7c0.8,1.7,0.8,4.4-0.1,7.9l-1.2,5.1
				c-0.9,3.7-2,6.4-3.3,8.2c-1.3,1.8-3,3-5.1,3.6c-2.1,0.7-6.1,1-12,1h-17l13.2-54.5H246.5 M241.4,221.7c0.6,0,1.1,0,1.5,0
				c1.4,0,2.4-0.3,3-1c0.6-0.7,1.2-2.6,2-5.9c0.4-1.7,0.5-2.9,0.4-3.6c-0.2-0.7-0.5-1.1-1-1.3c-0.5-0.2-1.5-0.3-3-0.3L241.4,221.7
				 M235.6,245.4c2.1-0.1,3.5-0.4,4.2-0.9c0.7-0.6,1.3-1.9,1.9-4.1l1.2-5.1c0.6-2.3,0.6-3.7,0.3-4.2c-0.4-0.5-1.7-0.8-3.9-0.8
				L235.6,245.4 M246.5,199.3h-14.7H231l-0.2,0.8l-13.2,54.5l-0.3,1.2h1.3h17c6.1,0,10.1-0.3,12.3-1c2.3-0.7,4.1-2.1,5.6-4
				c1.4-1.9,2.5-4.7,3.5-8.5l1.2-5.1c0.9-3.8,0.9-6.6,0-8.6c-0.6-1.3-1.8-2.4-3.5-3.2c1.8-0.6,3.1-1.4,4.1-2.3
				c1.5-1.4,2.6-3.7,3.5-7.2c1.2-5,1.3-8.5,0.2-10.9c-1.1-2.4-2.9-4-5.4-4.8C254.8,199.6,251.3,199.3,246.5,199.3L246.5,199.3z
				 M242.6,220.7l2.4-10.1c1.3,0.1,1.7,0.2,1.9,0.2c0.1,0.1,0.3,0.3,0.3,0.6c0.1,0.3,0.1,1.1-0.4,3.1c-1,4.2-1.6,5.2-1.8,5.5
				c-0.4,0.5-1.5,0.7-2.2,0.7C242.8,220.7,242.7,220.7,242.6,220.7L242.6,220.7z M236.9,244.3l3.2-13.1c1.6,0.1,2.2,0.3,2.3,0.4
				c0.1,0.2,0.2,0.9-0.4,3.4l-1.2,5.1c-0.6,2.7-1.3,3.4-1.5,3.6C239,243.9,238.4,244.2,236.9,244.3L236.9,244.3z"/>
		</g>
		<g>
			<path class="st15" d="M257.1,255.2l11.1-45.7h15.6l-11.1,45.7H257.1z M268.6,207.9l2-8.1h15.6l-2,8.1H268.6z"/>
			<path class="st15" d="M285.5,200.3l-1.7,7.1h-14.5l1.7-7.1H285.5 M283.1,210.1l-10.8,44.7h-14.5l10.8-44.7H283.1 M286.8,199.3
				h-1.3H271h-0.8L270,200l-1.7,7.1l-0.3,1.2h1.3h14.5h0.8l0.2-0.8l1.7-7.1L286.8,199.3L286.8,199.3z M284.4,209.1h-1.3h-14.5h-0.8
				l-0.2,0.8l-10.8,44.7l-0.3,1.2h1.3h14.5h0.8l0.2-0.8l10.8-44.7L284.4,209.1L284.4,209.1z"/>
		</g>
		<g>
			<polygon class="st15" points="274.7,255.2 277.1,245.2 293.7,219.5 284.4,219.5 286.8,209.6 310.8,209.6 308.3,220.2 292,245.3 
				302.2,245.3 299.8,255.2 			"/>
			<path class="st15" d="M310.2,210.1l-2.4,9.9l-16.7,25.8h10.4l-2.2,9h-24.1l2.3-9.4l17-26.4H285l2.2-9H310.2 M311.5,209.1h-1.3
				h-23h-0.8l-0.2,0.8l-2.2,9l-0.3,1.2h1.3h7.7l-16,24.8l-0.1,0.1l0,0.2l-2.3,9.4l-0.3,1.2h1.3h24.1h0.8l0.2-0.8l2.2-9l0.3-1.2h-1.3
				H293l15.7-24.3l0.1-0.1l0-0.2l2.4-9.9L311.5,209.1L311.5,209.1z"/>
		</g>
		<g>
			<path class="st15" d="M311.6,256.1c-2.6,0-4.8-0.7-6.6-2.1c-1.9-1.5-2.3-4.5-1.2-9.3l0.9-3.7c0.8-3.5,2-5.8,3.5-7.1
				c1.4-1.3,4.5-2.7,9.3-4.3c2-0.7,3.5-1.2,4.6-1.7h-14.2l0.9-3.6c0.8-3.5,1.9-6.2,3.2-8.2c1.3-1.9,3.5-3.7,6.4-5.1
				c2.9-1.5,6.4-2.2,10.5-2.2c4.9,0,8.4,0.9,10.5,2.5c2.2,1.7,3.2,3.9,3.1,6.4c-0.1,2.4-1,7.2-2.8,14.7l-5.5,22.8h-14.8l0.6-2.7
				c-0.9,0.9-1.9,1.7-3,2.2C315.4,255.6,313.6,256.1,311.6,256.1z M324,234.6c-2,1.3-3.2,2.3-3.7,3.2c-0.6,1-1.1,2.5-1.6,4.5
				c-0.7,2.8-0.7,3.8-0.6,4.2c0,0.2,0.1,0.6,1.1,0.6c0.7,0,1.2-0.2,1.5-0.6c0.2-0.3,0.7-1.3,1.3-4L324,234.6z M326.4,217.7
				c-0.8,0-1.3,0.2-1.6,0.7c-0.2,0.4-0.7,1.5-1.4,4.5l-1.2,5c2.7-1.1,3.3-1.5,3.4-1.7c0.3-0.4,0.8-1.3,1.3-3.5
				c0.7-2.8,0.7-3.9,0.6-4.3C327.3,218,327.1,217.7,326.4,217.7z"/>
			<path class="st15" d="M328.8,209.3c4.8,0,8.2,0.8,10.2,2.4c2,1.6,3,3.6,2.9,6c-0.1,2.4-1,7.2-2.8,14.6l-5.4,22.4H320l1-4
				c-1.2,1.6-2.7,2.8-4.2,3.6c-1.6,0.8-3.3,1.2-5.2,1.2c-2.5,0-4.6-0.7-6.3-2c-1.7-1.3-2.1-4.3-1-8.8l0.9-3.7
				c0.8-3.3,1.9-5.6,3.3-6.8c1.4-1.2,4.4-2.6,9.2-4.2c5.1-1.7,7.8-2.9,8.3-3.5c0.5-0.6,0.9-1.8,1.4-3.7c0.6-2.3,0.8-3.9,0.6-4.6
				c-0.2-0.7-0.7-1.1-1.5-1.1c-1,0-1.6,0.3-2,0.9c-0.4,0.6-0.9,2.1-1.5,4.6l-1.1,4.7h-13.3l0.7-3c0.8-3.5,1.9-6.1,3.2-8
				c1.3-1.9,3.3-3.5,6.2-5C321.4,210,324.9,209.3,328.8,209.3 M324.8,233.5c-2.6,1.6-4.3,2.9-4.9,4c-0.6,1.1-1.2,2.6-1.7,4.6
				c-0.6,2.3-0.8,3.8-0.6,4.5c0.2,0.7,0.7,1,1.6,1c0.9,0,1.5-0.3,1.9-0.8c0.4-0.5,0.9-1.9,1.4-4.2L324.8,233.5 M328.8,208.3
				c-4.1,0-7.7,0.8-10.7,2.3c-3,1.5-5.2,3.3-6.6,5.3c-1.3,2-2.5,4.8-3.3,8.3l-0.7,3l-0.3,1.2h1.3h10.8c-0.6,0.2-1.3,0.5-2,0.7
				c-4.9,1.7-8,3.1-9.5,4.4c-1.6,1.4-2.7,3.8-3.6,7.4l-0.9,3.7c-1.2,5-0.8,8.2,1.3,9.8c1.9,1.5,4.2,2.2,6.9,2.2c2,0,3.9-0.4,5.6-1.3
				c0.7-0.3,1.3-0.8,1.9-1.2l-0.1,0.5l-0.3,1.2h1.3h13.7h0.8l0.2-0.8l5.4-22.4c1.8-7.5,2.7-12.4,2.8-14.8c0.1-2.7-1-5-3.3-6.8
				C337.5,209.1,333.9,208.3,328.8,208.3L328.8,208.3z M322.9,227l1-4.1c0.8-3.1,1.2-4,1.3-4.3c0.1-0.1,0.3-0.4,1.2-0.4
				c0.5,0,0.5,0.1,0.6,0.3c0.1,0.2,0.2,1-0.6,4.1c-0.5,2.2-1,3-1.2,3.3C325.1,226,324.7,226.3,322.9,227L322.9,227z M319.2,246.6
				c-0.6,0-0.6-0.2-0.7-0.2c0-0.2-0.1-1,0.6-4c0.5-1.9,1-3.4,1.6-4.4c0.3-0.5,0.9-1.2,2.5-2.3l-1.6,6.8c-0.7,2.9-1.1,3.6-1.2,3.8
				C320.3,246.3,320,246.6,319.2,246.6L319.2,246.6z"/>
		</g>
		<g>
			<path class="st15" d="M338,255.2l11.1-45.7h15.2l-1.3,3.9c2.7-2.9,5.8-4.5,9.2-4.7l0.7,0l-4.1,16.8h-0.4c-2.5,0-4.4,0.3-5.7,1
				c-1.3,0.6-2.2,1.5-2.7,2.6c-0.6,1.2-1.4,3.9-2.4,8.2l-4.4,18H338z"/>
			<path class="st15" d="M372.1,209.3l-3.8,15.7c-2.6,0-4.6,0.3-5.9,1c-1.4,0.7-2.3,1.6-2.9,2.8c-0.6,1.2-1.4,4-2.4,8.3l-4.3,17.6
				h-14.1l10.8-44.7h14.1l-2,5.9C364.6,211.8,368.2,209.5,372.1,209.3 M373.4,208.2l-1.4,0.1c-2.9,0.2-5.6,1.3-8,3.4l0.4-1.3
				l0.4-1.3h-1.4h-14.1h-0.8l-0.2,0.8l-10.8,44.7l-0.3,1.2h1.3h14.1h0.8l0.2-0.8l4.3-17.6c1-4.2,1.8-7,2.4-8.1
				c0.5-1,1.3-1.8,2.5-2.3c1.2-0.6,3.1-0.9,5.5-0.9h0.8l0.2-0.8l3.8-15.7L373.4,208.2L373.4,208.2z"/>
		</g>
		<g>
			<path class="st15" d="M363.6,255.2l11.1-45.7h15.2l-1.3,3.9c2.7-2.9,5.8-4.5,9.2-4.7l0.7,0l-4.1,16.8h-0.4c-2.5,0-4.4,0.3-5.7,1
				c-1.3,0.6-2.2,1.5-2.7,2.6c-0.6,1.2-1.4,3.9-2.4,8.2l-4.4,18H363.6z"/>
			<path class="st15" d="M397.7,209.3l-3.8,15.7c-2.6,0-4.6,0.3-5.9,1c-1.4,0.7-2.3,1.6-2.9,2.8c-0.6,1.2-1.4,4-2.4,8.3l-4.3,17.6
				h-14.1l10.8-44.7h14.1l-2,5.9C390.3,211.8,393.8,209.5,397.7,209.3 M399,208.2l-1.4,0.1c-2.9,0.2-5.6,1.3-8,3.5l0.4-1.3l0.4-1.3
				h-1.4h-14.1h-0.8l-0.2,0.8l-10.8,44.7l-0.3,1.2h1.3h14.1h0.8l0.2-0.8l4.3-17.6c1-4.2,1.8-7,2.4-8.1c0.5-1,1.3-1.8,2.5-2.3
				c1.2-0.6,3.1-0.9,5.5-0.9h0.8l0.2-0.8l3.8-15.7L399,208.2L399,208.2z"/>
		</g>
		<g>
			<path class="st15" d="M405.9,256.1c-3,0-5.7-0.4-7.8-1.3c-2.2-0.9-3.8-2.1-4.7-3.6c-1-1.5-1.5-3.2-1.6-5
				c-0.1-1.8,0.3-4.4,1.1-7.7l3.2-13c1-4,2.3-7.1,4-9.4c1.7-2.3,4-4.1,6.8-5.3c2.8-1.2,5.9-1.8,9.2-1.8c4,0,7.3,0.8,9.6,2.3
				c2.3,1.5,3.8,3.6,4.2,6.1c0.5,2.5,0.2,5.9-0.9,10.3l-1.5,6.3h-18.3l-2.2,9.3c-0.6,2.5-0.6,3.4-0.5,3.7c0,0.1,0.1,0.5,1.1,0.5
				c0.9,0,1.6-0.3,2-1c0.5-0.7,1-2.2,1.6-4.3l1.5-6.3H427l-0.9,3.9c-0.7,2.8-1.4,5-2.1,6.5c-0.7,1.5-2,3.2-3.8,4.9
				c-1.8,1.7-3.8,3-6.1,3.9C411.7,255.6,409,256.1,405.9,256.1z M414.3,225.4l0.7-2.9c0.7-2.8,0.7-3.9,0.7-4.3
				c0-0.3-0.1-0.6-0.8-0.6c-0.8,0-1.3,0.2-1.6,0.6c-0.2,0.4-0.7,1.4-1.4,4.5l-0.6,2.6H414.3z"/>
			<path class="st15" d="M416.1,209.3c4,0,7.1,0.7,9.3,2.2c2.2,1.4,3.6,3.4,4,5.8c0.5,2.4,0.2,5.7-0.9,10.1l-1.4,5.9h-18.3l-2.3,9.7
				c-0.5,2-0.7,3.3-0.5,3.9c0.2,0.6,0.7,0.9,1.5,0.9c1.1,0,1.9-0.4,2.4-1.2c0.5-0.8,1.1-2.3,1.6-4.5l1.4-5.9h13.4l-0.8,3.3
				c-0.7,2.8-1.4,4.9-2.1,6.4c-0.7,1.5-1.9,3.1-3.7,4.7c-1.7,1.7-3.7,2.9-6,3.8c-2.2,0.8-4.9,1.3-8,1.3c-3,0-5.5-0.4-7.6-1.2
				c-2.1-0.8-3.6-2-4.5-3.4c-0.9-1.4-1.4-3-1.5-4.8c-0.1-1.7,0.3-4.3,1.1-7.6l3.2-13c0.9-3.9,2.2-7,3.9-9.2c1.6-2.3,3.9-4,6.6-5.2
				C409.8,209.9,412.9,209.3,416.1,209.3 M410.6,225.9h4.1l0.8-3.3c0.6-2.3,0.8-3.8,0.7-4.5c-0.1-0.7-0.5-1-1.3-1
				c-1,0-1.7,0.3-2,0.9s-0.9,2.1-1.5,4.6L410.6,225.9 M416.1,208.3c-3.4,0-6.5,0.6-9.4,1.9c-2.9,1.3-5.3,3.1-7.1,5.5
				c-1.7,2.4-3.1,5.6-4,9.6l-3.2,13c-0.8,3.4-1.2,6-1.1,7.9c0.1,1.9,0.6,3.7,1.6,5.3c1,1.6,2.7,2.9,5,3.8c2.2,0.9,4.9,1.3,8,1.3
				c3.2,0,6-0.4,8.3-1.3c2.4-0.9,4.5-2.2,6.3-4c1.8-1.8,3.1-3.4,3.9-5c0.7-1.5,1.5-3.7,2.2-6.6l0.8-3.3l0.3-1.2h-1.3H413h-0.8
				l-0.2,0.8l-1.4,5.9c-0.6,2.6-1.1,3.7-1.5,4.1c-0.2,0.3-0.6,0.7-1.6,0.7c-0.1,0-0.5,0-0.6-0.1c0-0.1-0.1-0.8,0.5-3.4l2.2-8.9h17.5
				h0.8l0.2-0.8l1.4-5.9c1.1-4.5,1.4-7.9,0.9-10.5c-0.5-2.7-2-4.8-4.5-6.4C423.5,209.1,420.2,208.3,416.1,208.3L416.1,208.3z
				 M411.8,224.9l0.5-2c0.8-3.3,1.2-4.1,1.3-4.3c0.2-0.3,0.6-0.4,1.2-0.4c0.2,0,0.3,0,0.3,0c0,0,0,0,0,0.1c0,0.2,0,1.1-0.7,4.1
				l-0.6,2.5H411.8L411.8,224.9z"/>
		</g>
		<g>
			<path class="st15" d="M457.8,255.2l1.6-9.8H455l-3.3,9.8h-16.3l21.1-55.5h22.2l-4.9,55.5H457.8z M461.4,234.8
				c0.6-5,1.4-10.9,2.5-17.8c-3,7.8-5.1,13.7-6.4,17.8H461.4z"/>
			<path class="st15" d="M478.2,200.3l-4.8,54.5h-15l1.6-9.8h-5.3l-3.3,9.8h-15.2l20.7-54.5H478.2 M465.2,212.4
				c-4,10.4-6.8,18.1-8.4,22.9h5.1C462.6,229.1,463.7,221.5,465.2,212.4 M479.3,199.3h-1.1h-21.3h-0.7l-0.2,0.6l-20.7,54.5l-0.5,1.4
				h1.4h15.2h0.7l0.2-0.7l3-9.1h3.4l-1.4,8.6l-0.2,1.2h1.2h15h0.9l0.1-0.9l4.8-54.5L479.3,199.3L479.3,199.3z M458.2,234.3
				c1.1-3.2,2.6-7.4,4.6-12.7c-0.7,4.7-1.3,9-1.7,12.7H458.2L458.2,234.3z"/>
		</g>
		<g>
			<path class="st15" d="M484.3,256.1c-2.3,0-4.2-0.6-5.6-1.8c-1.4-1.2-2.2-2.6-2.3-4.2c-0.1-1.5,0.2-3.9,1.1-7.3l5.1-20.9
				c0.8-3.5,1.7-5.9,2.5-7.4c0.8-1.5,2.3-2.8,4.2-4c2-1.1,4.1-1.7,6.5-1.7c1.8,0,3.4,0.3,4.8,1c1.1,0.5,2,1.2,2.8,2.1l2.9-12.1h15.2
				L508,255.2h-15.2l0.6-2.5c-1.3,1-2.7,1.7-4,2.2C487.8,255.7,486,256.1,484.3,256.1z M500.4,217.7c-0.7,0-1.2,0.2-1.5,0.6
				c-0.2,0.3-0.7,1.1-1.2,3.2l-5.3,21.9c-0.5,2.3-0.5,3.1-0.4,3.3c0,0.2,0.1,0.5,0.9,0.5c0.7,0,1.3-0.2,1.6-0.8
				c0.3-0.4,0.8-1.5,1.5-4.5l5-20.7c0.5-2,0.4-2.8,0.4-3C501.4,218,501.3,217.7,500.4,217.7z"/>
			<path class="st15" d="M520.8,200.3l-13.2,54.5h-14.1l0.8-3.2c-1.7,1.3-3.3,2.4-5,3c-1.7,0.7-3.3,1-4.9,1c-2.2,0-4-0.6-5.3-1.7
				c-1.3-1.1-2.1-2.4-2.2-3.9c-0.1-1.5,0.2-3.8,1-7.1L483,222c0.8-3.4,1.6-5.9,2.4-7.3c0.8-1.4,2.2-2.7,4-3.8c1.9-1.1,4-1.6,6.2-1.6
				c1.7,0,3.3,0.3,4.6,0.9c1.3,0.6,2.4,1.5,3.3,2.7l3.1-12.7H520.8 M492.9,247.6c0.9,0,1.6-0.3,2.1-1c0.5-0.6,1-2.2,1.6-4.7l5-20.7
				c0.4-1.6,0.5-2.7,0.4-3.3c-0.2-0.6-0.7-0.8-1.5-0.8c-0.8,0-1.5,0.3-1.9,0.8c-0.4,0.5-0.8,1.6-1.3,3.4l-5.3,21.9
				c-0.4,1.8-0.6,3-0.4,3.6C491.7,247.4,492.1,247.6,492.9,247.6 M522.1,199.3h-1.3h-14.1h-0.8l-0.2,0.8l-2.6,10.8
				c-0.7-0.6-1.5-1.2-2.4-1.6c-1.4-0.7-3.1-1-5-1c-2.4,0-4.7,0.6-6.7,1.8c-2,1.2-3.5,2.6-4.4,4.2c-0.9,1.5-1.7,4-2.5,7.6l-5.1,20.9
				c-0.8,3.4-1.2,5.9-1.1,7.4c0.1,1.7,1,3.3,2.5,4.6c1.5,1.3,3.5,1.9,5.9,1.9c1.8,0,3.5-0.4,5.3-1.1c1-0.4,2-0.9,3-1.6l-0.1,0.6
				l-0.3,1.2h1.3h14.1h0.8l0.2-0.8l13.2-54.5L522.1,199.3L522.1,199.3z M492.9,246.6c-0.3,0-0.4-0.1-0.4-0.1c0-0.2-0.1-0.8,0.4-3.1
				l5.3-21.9c0.5-2.2,0.9-2.8,1.1-3c0.1-0.1,0.3-0.4,1.1-0.4c0.4,0,0.6,0.1,0.6,0.1c0,0.1,0.1,0.7-0.4,2.8l-5,20.7
				c-0.7,3.1-1.2,4-1.4,4.3C494,246.4,493.7,246.6,492.9,246.6L492.9,246.6z"/>
		</g>
		<g>
			<path class="st15" d="M516.3,255.2l3.8-45.7h13.6l-3.4,28.6c1-3.1,2.5-7.5,4.3-13.2c1.6-5.2,3.3-10.2,5-15.1l0.1-0.3h13.7
				l-17.8,45.7H516.3z"/>
			<path class="st15" d="M552.7,210.1l-17.4,44.7h-18.5l3.7-44.7h12.6l-3.9,32.6c0.9-2.4,2.8-8.2,5.8-17.5c1.7-5.2,3.3-10.2,5-15.1
				H552.7 M554.2,209.1h-1.5h-12.6h-0.7l-0.2,0.7c-1.7,4.8-3.4,9.9-5,15.1c-1,3.2-2,6-2.7,8.4l2.8-23.1l0.1-1.1h-1.1h-12.6h-0.9
				l-0.1,0.9l-3.7,44.7l-0.1,1.1h1.1h18.5h0.7l0.2-0.6l17.4-44.7L554.2,209.1L554.2,209.1z"/>
		</g>
		<g>
			<path class="st15" d="M560,256.1c-3,0-5.7-0.4-7.8-1.3c-2.2-0.9-3.8-2.1-4.7-3.6c-1-1.5-1.5-3.2-1.6-5c-0.1-1.8,0.3-4.4,1.1-7.7
				l3.2-13c1-4,2.3-7.1,4-9.4c1.7-2.3,4-4.1,6.8-5.3c2.8-1.2,5.9-1.8,9.2-1.8c4,0,7.3,0.8,9.6,2.3c2.3,1.5,3.8,3.6,4.2,6.1
				c0.5,2.5,0.2,5.9-0.9,10.3l-1.5,6.3h-18.3l-2.2,9.3c-0.6,2.5-0.6,3.4-0.5,3.7c0,0.1,0.1,0.5,1.1,0.5c0.9,0,1.6-0.3,2-1
				c0.5-0.7,1-2.2,1.6-4.3l1.5-6.3h14.4l-0.9,3.9c-0.7,2.8-1.4,5-2.1,6.5c-0.7,1.5-2,3.2-3.8,4.9c-1.8,1.7-3.8,3-6.1,3.9
				C565.8,255.6,563.1,256.1,560,256.1z M568.4,225.4l0.7-2.9c0.7-2.8,0.7-3.9,0.7-4.3c0-0.3-0.1-0.6-0.8-0.6
				c-0.8,0-1.3,0.2-1.6,0.6c-0.2,0.4-0.7,1.4-1.4,4.5l-0.6,2.6H568.4z"/>
			<path class="st15" d="M570.2,209.3c4,0,7.1,0.7,9.3,2.2c2.2,1.4,3.6,3.4,4,5.8c0.5,2.4,0.2,5.7-0.9,10.1l-1.4,5.9h-18.3l-2.3,9.7
				c-0.5,2-0.7,3.3-0.5,3.9c0.2,0.6,0.7,0.9,1.5,0.9c1.1,0,1.9-0.4,2.4-1.2c0.5-0.8,1.1-2.3,1.6-4.5l1.4-5.9h13.4l-0.8,3.3
				c-0.7,2.8-1.4,4.9-2.1,6.4c-0.7,1.5-1.9,3.1-3.7,4.7c-1.7,1.7-3.7,2.9-6,3.8c-2.2,0.8-4.9,1.3-8,1.3c-3,0-5.5-0.4-7.6-1.2
				c-2.1-0.8-3.6-2-4.5-3.4c-0.9-1.4-1.4-3-1.5-4.8c-0.1-1.7,0.3-4.3,1.1-7.6l3.2-13c0.9-3.9,2.2-7,3.9-9.2c1.6-2.3,3.9-4,6.6-5.2
				C563.9,209.9,567,209.3,570.2,209.3 M564.7,225.9h4.1l0.8-3.3c0.6-2.3,0.8-3.8,0.7-4.5c-0.1-0.7-0.5-1-1.3-1c-1,0-1.7,0.3-2,0.9
				c-0.4,0.6-0.9,2.1-1.5,4.6L564.7,225.9 M570.2,208.3c-3.4,0-6.5,0.6-9.4,1.9c-2.9,1.3-5.3,3.1-7.1,5.5c-1.7,2.4-3.1,5.6-4,9.6
				l-3.2,13c-0.8,3.4-1.2,6-1.1,7.9c0.1,1.9,0.6,3.7,1.6,5.3c1,1.6,2.7,2.9,5,3.8c2.2,0.9,4.9,1.3,8,1.3c3.2,0,6-0.4,8.3-1.3
				c2.4-0.9,4.5-2.2,6.3-4c1.8-1.8,3.1-3.4,3.9-5c0.7-1.5,1.5-3.7,2.2-6.6l0.8-3.3l0.3-1.2h-1.3h-13.4h-0.8l-0.2,0.8l-1.4,5.9
				c-0.6,2.6-1.1,3.7-1.5,4.1c-0.2,0.3-0.6,0.7-1.6,0.7c-0.1,0-0.5,0-0.6-0.1c0-0.1-0.1-0.8,0.5-3.4l2.2-8.9h17.5h0.8l0.2-0.8
				l1.4-5.9c1.1-4.5,1.4-7.9,0.9-10.5c-0.5-2.7-2-4.8-4.5-6.4C577.6,209.1,574.3,208.3,570.2,208.3L570.2,208.3z M565.9,224.9l0.5-2
				c0.8-3.3,1.2-4.1,1.3-4.3c0.2-0.3,0.6-0.4,1.2-0.4c0.2,0,0.3,0,0.3,0c0,0,0,0,0,0.1c0,0.2,0,1.1-0.7,4.1l-0.6,2.5H565.9
				L565.9,224.9z"/>
		</g>
		<g>
			<path class="st15" d="M598.4,255.2l7.6-31.5c0.9-3.7,1.1-5,1-5.5c0-0.2,0-0.5-1-0.5c-0.8,0-1.4,0.3-1.7,0.9
				c-0.3,0.5-0.8,2-1.8,6.1l-7.4,30.6H580l11.1-45.7h15.4l-0.8,2.8c1.1-1,2.2-1.7,3.4-2.3c1.7-0.9,3.6-1.3,5.6-1.3
				c2.5,0,4.5,0.6,5.9,1.8c1.4,1.2,2.1,2.7,2.1,4.5c0,1.7-0.4,4.5-1.4,8.5l-7.7,31.7H598.4z"/>
			<path class="st15" d="M614.6,209.3c2.4,0,4.3,0.6,5.5,1.6c1.3,1.1,1.9,2.5,2,4.2c0,1.7-0.4,4.5-1.4,8.4l-7.6,31.3h-14.1l7.5-30.9
				c0.7-3.1,1.1-4.9,1-5.6c0-0.7-0.5-1-1.5-1c-1,0-1.7,0.4-2.2,1.2c-0.4,0.8-1.1,2.8-1.9,6.2l-7.3,30.2h-14.1l10.8-44.7h14.4
				l-1.2,4.1c1.4-1.6,3-2.9,4.7-3.7S612.7,209.3,614.6,209.3 M614.6,208.3c-2.1,0-4.1,0.4-5.9,1.3c-0.8,0.4-1.5,0.8-2.2,1.3l0.2-0.6
				l0.4-1.3h-1.3h-14.4h-0.8l-0.2,0.8l-10.8,44.7l-0.3,1.2h1.3h14.1h0.8l0.2-0.8l7.3-30.2c1-4.1,1.5-5.5,1.8-5.9
				c0.2-0.3,0.5-0.7,1.3-0.7c0.3,0,0.4,0,0.5,0.1c0,0.3-0.1,1.4-1,5.3l-7.5,30.9l-0.3,1.2h1.3h14.1h0.8l0.2-0.8l7.6-31.3
				c1-4,1.4-6.8,1.4-8.6c0-2-0.8-3.6-2.3-4.9C619.4,208.9,617.3,208.3,614.6,208.3L614.6,208.3z"/>
		</g>
		<g>
			<path class="st15" d="M631.6,255.2c-3.3,0-5.5-0.1-6.9-0.4c-1.4-0.3-2.6-0.9-3.5-1.9c-0.9-1-1.3-2.2-1.3-3.5c0-1.2,0.6-4,1.7-8.6
				l5.3-22.1h-3l2-8.1h3l1.7-7h15.2l-1.7,7h3.8l-2,8.1h-3.8l-5.7,23.5c-0.9,3.7-0.8,4.4-0.8,4.6c0,0,0,0,0,0c0.1,0,0.6,0.2,3.4,0.2
				h0.6l-2,8.2H631.6z"/>
			<path class="st15" d="M645.2,204.1l-1.7,7h3.8l-1.7,7.1h-3.8l-5.8,23.9c-0.7,2.9-1,4.6-0.7,4.9c0.2,0.3,1.5,0.5,3.8,0.5l-1.7,7.2
				h-5.7c-3.2,0-5.5-0.1-6.8-0.4c-1.3-0.3-2.4-0.9-3.2-1.8c-0.8-0.9-1.2-2-1.2-3.2c0-1.2,0.6-4,1.7-8.5l5.5-22.7h-3l1.7-7.1h3l1.7-7
				H645.2 M646.5,203.1h-1.3H631h-0.8l-0.2,0.8l-1.5,6.3h-2.3h-0.8l-0.2,0.8l-1.7,7.1l-0.3,1.2h1.3h1.8l-5.2,21.4
				c-1.1,4.6-1.7,7.4-1.7,8.7c0,1.5,0.4,2.8,1.4,3.9c1,1.1,2.2,1.8,3.8,2.1c1.4,0.3,3.7,0.4,7,0.4h5.7h0.8l0.2-0.8l1.7-7.2l0.3-1.2
				h-1.3c-1.7,0-2.5-0.1-2.9-0.2c0-0.5,0.2-1.5,0.8-4l5.6-23.1h3h0.8l0.2-0.8l1.7-7.1l0.3-1.2h-1.3h-2.5l1.4-5.8L646.5,203.1
				L646.5,203.1z"/>
		</g>
		<g>
			<path class="st15" d="M649.3,256.1c-2.2,0-4-0.4-5.3-1.1c-1.3-0.8-2.2-1.8-2.6-3.1c-0.4-1.3-0.5-2.6-0.4-3.9
				c0.2-1.3,0.7-3.9,1.6-7.7l7.4-30.5h15.2l-7.5,31c-1.1,4.5-1.2,5.7-1.2,6c0,0.2,0.1,0.5,1.1,0.5c0.9,0,1.4-0.2,1.7-0.7
				c0.2-0.4,0.7-1.9,1.8-6.4l7.4-30.4h15.2l-11.1,45.7h-15.4l0.8-2.4c-1,0.9-2,1.6-3.2,2.1C653.1,255.7,651.2,256.1,649.3,256.1z"/>
			<path class="st15" d="M683,210.1l-10.8,44.7h-14.4l1.1-3.7c-1.3,1.5-2.8,2.6-4.4,3.4c-1.6,0.8-3.4,1.1-5.2,1.1
				c-2.1,0-3.8-0.4-5-1.1c-1.2-0.7-2-1.7-2.4-2.9c-0.4-1.2-0.5-2.4-0.3-3.7c0.1-1.3,0.7-3.9,1.6-7.7l7.3-30.1h14.1l-7.4,30.4
				c-0.8,3.5-1.2,5.5-1.2,6.2c0.1,0.7,0.6,1,1.6,1c1,0,1.8-0.3,2.1-1c0.4-0.7,1-2.8,1.9-6.5l7.3-30.1H683 M684.3,209.1H683h-14.1
				h-0.8l-0.2,0.8l-7.3,30.1c-1.1,4.7-1.6,5.9-1.8,6.3c-0.1,0.1-0.3,0.5-1.2,0.5c-0.3,0-0.5-0.1-0.6-0.1c0-0.3,0.1-1.4,1.1-5.9
				l7.4-30.4l0.3-1.2h-1.3h-14.1h-0.8l-0.2,0.8l-7.3,30.1c-0.9,3.9-1.5,6.5-1.6,7.8c-0.2,1.4,0,2.8,0.4,4.1c0.5,1.4,1.4,2.6,2.8,3.4
				c1.4,0.8,3.2,1.2,5.5,1.2c2,0,3.9-0.4,5.6-1.2c0.7-0.3,1.4-0.7,2-1.2l-0.1,0.3l-0.4,1.3h1.4h14.4h0.8l0.2-0.8l10.8-44.7
				L684.3,209.1L684.3,209.1z"/>
		</g>
		<g>
			<path class="st15" d="M676.6,255.2l11.1-45.7h15.2l-1.3,3.9c2.7-2.9,5.8-4.5,9.2-4.7l0.7,0l-4.1,16.8H707c-2.5,0-4.4,0.3-5.7,1
				c-1.3,0.6-2.2,1.5-2.7,2.6c-0.6,1.2-1.4,3.9-2.4,8.2l-4.4,18H676.6z"/>
			<path class="st15" d="M710.8,209.3L707,225c-2.6,0-4.6,0.3-5.9,1c-1.4,0.7-2.3,1.6-2.9,2.8c-0.6,1.2-1.4,4-2.4,8.3l-4.3,17.6
				h-14.1l10.8-44.7h14.1l-2,5.9C703.3,211.8,706.8,209.5,710.8,209.3 M712.1,208.2l-1.4,0.1c-2.9,0.2-5.6,1.3-8,3.5l0.4-1.3
				l0.4-1.3h-1.4h-14.1h-0.8l-0.2,0.8l-10.8,44.7l-0.3,1.2h1.3h14.1h0.8l0.2-0.8l4.3-17.6c1-4.2,1.8-7,2.4-8.1
				c0.5-1,1.3-1.8,2.5-2.3c1.2-0.6,3.1-0.9,5.5-0.9h0.8l0.2-0.8l3.8-15.7L712.1,208.2L712.1,208.2z"/>
		</g>
		<g>
			<path class="st15" d="M718.9,256.1c-3,0-5.7-0.4-7.8-1.3c-2.2-0.9-3.8-2.1-4.7-3.6c-1-1.5-1.5-3.2-1.6-5
				c-0.1-1.8,0.3-4.4,1.1-7.7l3.2-13c1-4,2.3-7.1,4-9.4c1.7-2.3,4-4.1,6.8-5.3c2.8-1.2,5.9-1.8,9.2-1.8c4,0,7.3,0.8,9.6,2.3
				c2.3,1.5,3.8,3.6,4.2,6.1c0.5,2.5,0.2,5.9-0.9,10.3l-1.5,6.3h-18.3L720,243c-0.6,2.5-0.6,3.4-0.5,3.7c0,0.1,0.1,0.5,1.1,0.5
				c0.9,0,1.6-0.3,2-1c0.5-0.7,1-2.2,1.6-4.3l1.5-6.3h14.4l-0.9,3.9c-0.7,2.8-1.4,5-2.1,6.5c-0.7,1.5-2,3.2-3.8,4.9
				c-1.8,1.7-3.8,3-6.1,3.9C724.8,255.6,722,256.1,718.9,256.1z M727.3,225.4l0.7-2.9c0.7-2.8,0.7-3.9,0.7-4.3
				c0-0.3-0.1-0.6-0.8-0.6c-0.8,0-1.3,0.2-1.6,0.6c-0.2,0.4-0.7,1.4-1.4,4.5l-0.6,2.6H727.3z"/>
			<path class="st15" d="M729.1,209.3c4,0,7.1,0.7,9.3,2.2c2.2,1.4,3.6,3.4,4,5.8c0.5,2.4,0.2,5.7-0.9,10.1l-1.4,5.9h-18.3l-2.3,9.7
				c-0.5,2-0.7,3.3-0.5,3.9c0.2,0.6,0.7,0.9,1.5,0.9c1.1,0,1.9-0.4,2.4-1.2c0.5-0.8,1.1-2.3,1.6-4.5l1.4-5.9h13.4l-0.8,3.3
				c-0.7,2.8-1.4,4.9-2.1,6.4c-0.7,1.5-1.9,3.1-3.7,4.7c-1.7,1.7-3.7,2.9-6,3.8c-2.2,0.8-4.9,1.3-8,1.3c-3,0-5.5-0.4-7.6-1.2
				c-2.1-0.8-3.6-2-4.5-3.4c-0.9-1.4-1.4-3-1.5-4.8c-0.1-1.7,0.3-4.3,1.1-7.6l3.2-13c0.9-3.9,2.2-7,3.9-9.2s3.9-4,6.6-5.2
				C722.9,209.9,725.9,209.3,729.1,209.3 M723.6,225.9h4.1l0.8-3.3c0.6-2.3,0.8-3.8,0.7-4.5c-0.1-0.7-0.5-1-1.3-1
				c-1,0-1.7,0.3-2,0.9s-0.9,2.1-1.5,4.6L723.6,225.9 M729.1,208.3c-3.4,0-6.5,0.6-9.4,1.9c-2.9,1.3-5.3,3.1-7.1,5.5
				c-1.7,2.4-3.1,5.6-4,9.6l-3.2,13c-0.8,3.4-1.2,6-1.1,7.9c0.1,1.9,0.6,3.7,1.6,5.3c1,1.6,2.7,2.9,5,3.8c2.2,0.9,4.9,1.3,8,1.3
				c3.2,0,6-0.4,8.3-1.3c2.4-0.9,4.5-2.2,6.3-4c1.8-1.8,3.1-3.4,3.9-5c0.7-1.5,1.5-3.7,2.2-6.6l0.8-3.3l0.3-1.2h-1.3H726h-0.8
				l-0.2,0.8l-1.4,5.9c-0.6,2.6-1.1,3.7-1.5,4.1c-0.2,0.3-0.6,0.7-1.6,0.7c-0.1,0-0.5,0-0.6-0.1c0-0.1-0.1-0.8,0.5-3.4l2.2-8.9h17.5
				h0.8l0.2-0.8l1.4-5.9c1.1-4.5,1.4-7.9,0.9-10.5c-0.5-2.7-2-4.8-4.5-6.4C736.6,209.1,733.3,208.3,729.1,208.3L729.1,208.3z
				 M724.9,224.9l0.5-2c0.8-3.3,1.2-4.1,1.3-4.3c0.2-0.3,0.6-0.4,1.2-0.4c0.2,0,0.3,0,0.3,0c0,0,0,0,0,0.1c0,0.2,0,1.1-0.7,4.1
				l-0.6,2.5H724.9L724.9,224.9z"/>
		</g>
	</g>
	<g>
		<g>
			<path class="st16" d="M218,255.2l13.4-55.5h15.1c4.7,0,8.2,0.4,10.4,1.1c2.4,0.7,4.1,2.2,5.1,4.5c1,2.2,0.9,5.7-0.2,10.6
				c-0.8,3.3-1.9,5.6-3.3,6.9c-1.1,1.1-2.9,1.9-5.2,2.6c2.3,0.8,3.8,1.9,4.5,3.4c0.9,1.8,0.8,4.5-0.1,8.2l-1.2,5.1
				c-0.9,3.7-2,6.5-3.4,8.4c-1.4,1.9-3.1,3.1-5.3,3.8c-2.1,0.7-6.1,1-12.1,1H218z M236.3,244.9c2-0.1,2.9-0.5,3.2-0.8
				c0.4-0.3,1.1-1.3,1.7-3.9l1.2-5.1c0.8-3.1,0.4-3.7,0.4-3.8c-0.1-0.1-0.6-0.5-3.1-0.6L236.3,244.9z M242,221.2c0.3,0,0.6,0,0.8,0
				c1.3,0,2.2-0.3,2.6-0.8c0.4-0.4,1-1.8,1.9-5.7c0.5-2,0.5-2.9,0.4-3.4c-0.2-0.8-0.5-0.9-0.7-0.9c-0.3-0.1-0.9-0.2-2.4-0.3
				L242,221.2z"/>
			<path class="st16" d="M246.5,200.3c4.6,0,8.1,0.3,10.3,1c2.2,0.7,3.8,2.1,4.8,4.2c1,2.1,0.9,5.5-0.3,10.2
				c-0.8,3.2-1.8,5.4-3.2,6.7c-1.3,1.3-3.6,2.2-6.8,2.9c3.2,0.7,5.2,2,6,3.7c0.8,1.7,0.8,4.4-0.1,7.9l-1.2,5.1
				c-0.9,3.7-2,6.4-3.3,8.2c-1.3,1.8-3,3-5.1,3.6c-2.1,0.7-6.1,1-12,1h-17l13.2-54.5H246.5 M241.4,221.7c0.6,0,1.1,0,1.5,0
				c1.4,0,2.4-0.3,3-1c0.6-0.7,1.2-2.6,2-5.9c0.4-1.7,0.5-2.9,0.4-3.6c-0.2-0.7-0.5-1.1-1-1.3c-0.5-0.2-1.5-0.3-3-0.3L241.4,221.7
				 M235.6,245.4c2.1-0.1,3.5-0.4,4.2-0.9c0.7-0.6,1.3-1.9,1.9-4.1l1.2-5.1c0.6-2.3,0.6-3.7,0.3-4.2c-0.4-0.5-1.7-0.8-3.9-0.8
				L235.6,245.4 M246.5,199.3h-14.7H231l-0.2,0.8l-13.2,54.5l-0.3,1.2h1.3h17c6.1,0,10.1-0.3,12.3-1c2.3-0.7,4.1-2.1,5.6-4
				c1.4-1.9,2.5-4.7,3.5-8.5l1.2-5.1c0.9-3.8,0.9-6.6,0-8.6c-0.6-1.3-1.8-2.4-3.5-3.2c1.8-0.6,3.1-1.4,4.1-2.3
				c1.5-1.4,2.6-3.7,3.5-7.2c1.2-5,1.3-8.5,0.2-10.9c-1.1-2.4-2.9-4-5.4-4.8C254.8,199.6,251.3,199.3,246.5,199.3L246.5,199.3z
				 M242.6,220.7l2.4-10.1c1.3,0.1,1.7,0.2,1.9,0.2c0.1,0.1,0.3,0.3,0.3,0.6c0.1,0.3,0.1,1.1-0.4,3.1c-1,4.2-1.6,5.2-1.8,5.5
				c-0.4,0.5-1.5,0.7-2.2,0.7C242.8,220.7,242.7,220.7,242.6,220.7L242.6,220.7z M236.9,244.3l3.2-13.1c1.6,0.1,2.2,0.3,2.3,0.4
				c0.1,0.2,0.2,0.9-0.4,3.4l-1.2,5.1c-0.6,2.7-1.3,3.4-1.5,3.6C239,243.9,238.4,244.2,236.9,244.3L236.9,244.3z"/>
		</g>
		<g>
			<path class="st16" d="M257.1,255.2l11.1-45.7h15.6l-11.1,45.7H257.1z M268.6,207.9l2-8.1h15.6l-2,8.1H268.6z"/>
			<path class="st16" d="M285.5,200.3l-1.7,7.1h-14.5l1.7-7.1H285.5 M283.1,210.1l-10.8,44.7h-14.5l10.8-44.7H283.1 M286.8,199.3
				h-1.3H271h-0.8L270,200l-1.7,7.1l-0.3,1.2h1.3h14.5h0.8l0.2-0.8l1.7-7.1L286.8,199.3L286.8,199.3z M284.4,209.1h-1.3h-14.5h-0.8
				l-0.2,0.8l-10.8,44.7l-0.3,1.2h1.3h14.5h0.8l0.2-0.8l10.8-44.7L284.4,209.1L284.4,209.1z"/>
		</g>
		<g>
			<polygon class="st16" points="274.7,255.2 277.1,245.2 293.7,219.5 284.4,219.5 286.8,209.6 310.8,209.6 308.3,220.2 292,245.3 
				302.2,245.3 299.8,255.2 			"/>
			<path class="st16" d="M310.2,210.1l-2.4,9.9l-16.7,25.8h10.4l-2.2,9h-24.1l2.3-9.4l17-26.4H285l2.2-9H310.2 M311.5,209.1h-1.3
				h-23h-0.8l-0.2,0.8l-2.2,9l-0.3,1.2h1.3h7.7l-16,24.8l-0.1,0.1l0,0.2l-2.3,9.4l-0.3,1.2h1.3h24.1h0.8l0.2-0.8l2.2-9l0.3-1.2h-1.3
				H293l15.7-24.3l0.1-0.1l0-0.2l2.4-9.9L311.5,209.1L311.5,209.1z"/>
		</g>
		<g>
			<path class="st16" d="M311.6,256.1c-2.6,0-4.8-0.7-6.6-2.1c-1.9-1.5-2.3-4.5-1.2-9.3l0.9-3.7c0.8-3.5,2-5.8,3.5-7.1
				c1.4-1.3,4.5-2.7,9.3-4.3c2-0.7,3.5-1.2,4.6-1.7h-14.2l0.9-3.6c0.8-3.5,1.9-6.2,3.2-8.2c1.3-1.9,3.5-3.7,6.4-5.1
				c2.9-1.5,6.4-2.2,10.5-2.2c4.9,0,8.4,0.9,10.5,2.5c2.2,1.7,3.2,3.9,3.1,6.4c-0.1,2.4-1,7.2-2.8,14.7l-5.5,22.8h-14.8l0.6-2.7
				c-0.9,0.9-1.9,1.7-3,2.2C315.4,255.6,313.6,256.1,311.6,256.1z M324,234.6c-2,1.3-3.2,2.3-3.7,3.2c-0.6,1-1.1,2.5-1.6,4.5
				c-0.7,2.8-0.7,3.8-0.6,4.2c0,0.2,0.1,0.6,1.1,0.6c0.7,0,1.2-0.2,1.5-0.6c0.2-0.3,0.7-1.3,1.3-4L324,234.6z M326.4,217.7
				c-0.8,0-1.3,0.2-1.6,0.7c-0.2,0.4-0.7,1.5-1.4,4.5l-1.2,5c2.7-1.1,3.3-1.5,3.4-1.7c0.3-0.4,0.8-1.3,1.3-3.5
				c0.7-2.8,0.7-3.9,0.6-4.3C327.3,218,327.1,217.7,326.4,217.7z"/>
			<path class="st16" d="M328.8,209.3c4.8,0,8.2,0.8,10.2,2.4c2,1.6,3,3.6,2.9,6c-0.1,2.4-1,7.2-2.8,14.6l-5.4,22.4H320l1-4
				c-1.2,1.6-2.7,2.8-4.2,3.6c-1.6,0.8-3.3,1.2-5.2,1.2c-2.5,0-4.6-0.7-6.3-2c-1.7-1.3-2.1-4.3-1-8.8l0.9-3.7
				c0.8-3.3,1.9-5.6,3.3-6.8c1.4-1.2,4.4-2.6,9.2-4.2c5.1-1.7,7.8-2.9,8.3-3.5c0.5-0.6,0.9-1.8,1.4-3.7c0.6-2.3,0.8-3.9,0.6-4.6
				c-0.2-0.7-0.7-1.1-1.5-1.1c-1,0-1.6,0.3-2,0.9c-0.4,0.6-0.9,2.1-1.5,4.6l-1.1,4.7h-13.3l0.7-3c0.8-3.5,1.9-6.1,3.2-8
				c1.3-1.9,3.3-3.5,6.2-5C321.4,210,324.9,209.3,328.8,209.3 M324.8,233.5c-2.6,1.6-4.3,2.9-4.9,4c-0.6,1.1-1.2,2.6-1.7,4.6
				c-0.6,2.3-0.8,3.8-0.6,4.5c0.2,0.7,0.7,1,1.6,1c0.9,0,1.5-0.3,1.9-0.8c0.4-0.5,0.9-1.9,1.4-4.2L324.8,233.5 M328.8,208.3
				c-4.1,0-7.7,0.8-10.7,2.3c-3,1.5-5.2,3.3-6.6,5.3c-1.3,2-2.5,4.8-3.3,8.3l-0.7,3l-0.3,1.2h1.3h10.8c-0.6,0.2-1.3,0.5-2,0.7
				c-4.9,1.7-8,3.1-9.5,4.4c-1.6,1.4-2.7,3.8-3.6,7.4l-0.9,3.7c-1.2,5-0.8,8.2,1.3,9.8c1.9,1.5,4.2,2.2,6.9,2.2c2,0,3.9-0.4,5.6-1.3
				c0.7-0.3,1.3-0.8,1.9-1.2l-0.1,0.5l-0.3,1.2h1.3h13.7h0.8l0.2-0.8l5.4-22.4c1.8-7.5,2.7-12.4,2.8-14.8c0.1-2.7-1-5-3.3-6.8
				C337.5,209.1,333.9,208.3,328.8,208.3L328.8,208.3z M322.9,227l1-4.1c0.8-3.1,1.2-4,1.3-4.3c0.1-0.1,0.3-0.4,1.2-0.4
				c0.5,0,0.5,0.1,0.6,0.3c0.1,0.2,0.2,1-0.6,4.1c-0.5,2.2-1,3-1.2,3.3C325.1,226,324.7,226.3,322.9,227L322.9,227z M319.2,246.6
				c-0.6,0-0.6-0.2-0.7-0.2c0-0.2-0.1-1,0.6-4c0.5-1.9,1-3.4,1.6-4.4c0.3-0.5,0.9-1.2,2.5-2.3l-1.6,6.8c-0.7,2.9-1.1,3.6-1.2,3.8
				C320.3,246.3,320,246.6,319.2,246.6L319.2,246.6z"/>
		</g>
		<g>
			<path class="st16" d="M338,255.2l11.1-45.7h15.2l-1.3,3.9c2.7-2.9,5.8-4.5,9.2-4.7l0.7,0l-4.1,16.8h-0.4c-2.5,0-4.4,0.3-5.7,1
				c-1.3,0.6-2.2,1.5-2.7,2.6c-0.6,1.2-1.4,3.9-2.4,8.2l-4.4,18H338z"/>
			<path class="st16" d="M372.1,209.3l-3.8,15.7c-2.6,0-4.6,0.3-5.9,1c-1.4,0.7-2.3,1.6-2.9,2.8c-0.6,1.2-1.4,4-2.4,8.3l-4.3,17.6
				h-14.1l10.8-44.7h14.1l-2,5.9C364.6,211.8,368.2,209.5,372.1,209.3 M373.4,208.2l-1.4,0.1c-2.9,0.2-5.6,1.3-8,3.4l0.4-1.3
				l0.4-1.3h-1.4h-14.1h-0.8l-0.2,0.8l-10.8,44.7l-0.3,1.2h1.3h14.1h0.8l0.2-0.8l4.3-17.6c1-4.2,1.8-7,2.4-8.1
				c0.5-1,1.3-1.8,2.5-2.3c1.2-0.6,3.1-0.9,5.5-0.9h0.8l0.2-0.8l3.8-15.7L373.4,208.2L373.4,208.2z"/>
		</g>
		<g>
			<path class="st16" d="M363.6,255.2l11.1-45.7h15.2l-1.3,3.9c2.7-2.9,5.8-4.5,9.2-4.7l0.7,0l-4.1,16.8h-0.4c-2.5,0-4.4,0.3-5.7,1
				c-1.3,0.6-2.2,1.5-2.7,2.6c-0.6,1.2-1.4,3.9-2.4,8.2l-4.4,18H363.6z"/>
			<path class="st16" d="M397.7,209.3l-3.8,15.7c-2.6,0-4.6,0.3-5.9,1c-1.4,0.7-2.3,1.6-2.9,2.8c-0.6,1.2-1.4,4-2.4,8.3l-4.3,17.6
				h-14.1l10.8-44.7h14.1l-2,5.9C390.3,211.8,393.8,209.5,397.7,209.3 M399,208.2l-1.4,0.1c-2.9,0.2-5.6,1.3-8,3.5l0.4-1.3l0.4-1.3
				h-1.4h-14.1h-0.8l-0.2,0.8l-10.8,44.7l-0.3,1.2h1.3h14.1h0.8l0.2-0.8l4.3-17.6c1-4.2,1.8-7,2.4-8.1c0.5-1,1.3-1.8,2.5-2.3
				c1.2-0.6,3.1-0.9,5.5-0.9h0.8l0.2-0.8l3.8-15.7L399,208.2L399,208.2z"/>
		</g>
		<g>
			<path class="st16" d="M405.9,256.1c-3,0-5.7-0.4-7.8-1.3c-2.2-0.9-3.8-2.1-4.7-3.6c-1-1.5-1.5-3.2-1.6-5
				c-0.1-1.8,0.3-4.4,1.1-7.7l3.2-13c1-4,2.3-7.1,4-9.4c1.7-2.3,4-4.1,6.8-5.3c2.8-1.2,5.9-1.8,9.2-1.8c4,0,7.3,0.8,9.6,2.3
				c2.3,1.5,3.8,3.6,4.2,6.1c0.5,2.5,0.2,5.9-0.9,10.3l-1.5,6.3h-18.3l-2.2,9.3c-0.6,2.5-0.6,3.4-0.5,3.7c0,0.1,0.1,0.5,1.1,0.5
				c0.9,0,1.6-0.3,2-1c0.5-0.7,1-2.2,1.6-4.3l1.5-6.3H427l-0.9,3.9c-0.7,2.8-1.4,5-2.1,6.5c-0.7,1.5-2,3.2-3.8,4.9
				c-1.8,1.7-3.8,3-6.1,3.9C411.7,255.6,409,256.1,405.9,256.1z M414.3,225.4l0.7-2.9c0.7-2.8,0.7-3.9,0.7-4.3
				c0-0.3-0.1-0.6-0.8-0.6c-0.8,0-1.3,0.2-1.6,0.6c-0.2,0.4-0.7,1.4-1.4,4.5l-0.6,2.6H414.3z"/>
			<path class="st16" d="M416.1,209.3c4,0,7.1,0.7,9.3,2.2c2.2,1.4,3.6,3.4,4,5.8c0.5,2.4,0.2,5.7-0.9,10.1l-1.4,5.9h-18.3l-2.3,9.7
				c-0.5,2-0.7,3.3-0.5,3.9c0.2,0.6,0.7,0.9,1.5,0.9c1.1,0,1.9-0.4,2.4-1.2c0.5-0.8,1.1-2.3,1.6-4.5l1.4-5.9h13.4l-0.8,3.3
				c-0.7,2.8-1.4,4.9-2.1,6.4c-0.7,1.5-1.9,3.1-3.7,4.7c-1.7,1.7-3.7,2.9-6,3.8c-2.2,0.8-4.9,1.3-8,1.3c-3,0-5.5-0.4-7.6-1.2
				c-2.1-0.8-3.6-2-4.5-3.4c-0.9-1.4-1.4-3-1.5-4.8c-0.1-1.7,0.3-4.3,1.1-7.6l3.2-13c0.9-3.9,2.2-7,3.9-9.2c1.6-2.3,3.9-4,6.6-5.2
				C409.8,209.9,412.9,209.3,416.1,209.3 M410.6,225.9h4.1l0.8-3.3c0.6-2.3,0.8-3.8,0.7-4.5c-0.1-0.7-0.5-1-1.3-1
				c-1,0-1.7,0.3-2,0.9s-0.9,2.1-1.5,4.6L410.6,225.9 M416.1,208.3c-3.4,0-6.5,0.6-9.4,1.9c-2.9,1.3-5.3,3.1-7.1,5.5
				c-1.7,2.4-3.1,5.6-4,9.6l-3.2,13c-0.8,3.4-1.2,6-1.1,7.9c0.1,1.9,0.6,3.7,1.6,5.3c1,1.6,2.7,2.9,5,3.8c2.2,0.9,4.9,1.3,8,1.3
				c3.2,0,6-0.4,8.3-1.3c2.4-0.9,4.5-2.2,6.3-4c1.8-1.8,3.1-3.4,3.9-5c0.7-1.5,1.5-3.7,2.2-6.6l0.8-3.3l0.3-1.2h-1.3H413h-0.8
				l-0.2,0.8l-1.4,5.9c-0.6,2.6-1.1,3.7-1.5,4.1c-0.2,0.3-0.6,0.7-1.6,0.7c-0.1,0-0.5,0-0.6-0.1c0-0.1-0.1-0.8,0.5-3.4l2.2-8.9h17.5
				h0.8l0.2-0.8l1.4-5.9c1.1-4.5,1.4-7.9,0.9-10.5c-0.5-2.7-2-4.8-4.5-6.4C423.5,209.1,420.2,208.3,416.1,208.3L416.1,208.3z
				 M411.8,224.9l0.5-2c0.8-3.3,1.2-4.1,1.3-4.3c0.2-0.3,0.6-0.4,1.2-0.4c0.2,0,0.3,0,0.3,0c0,0,0,0,0,0.1c0,0.2,0,1.1-0.7,4.1
				l-0.6,2.5H411.8L411.8,224.9z"/>
		</g>
		<g>
			<path class="st16" d="M457.8,255.2l1.6-9.8H455l-3.3,9.8h-16.3l21.1-55.5h22.2l-4.9,55.5H457.8z M461.4,234.8
				c0.6-5,1.4-10.9,2.5-17.8c-3,7.8-5.1,13.7-6.4,17.8H461.4z"/>
			<path class="st16" d="M478.2,200.3l-4.8,54.5h-15l1.6-9.8h-5.3l-3.3,9.8h-15.2l20.7-54.5H478.2 M465.2,212.4
				c-4,10.4-6.8,18.1-8.4,22.9h5.1C462.6,229.1,463.7,221.5,465.2,212.4 M479.3,199.3h-1.1h-21.3h-0.7l-0.2,0.6l-20.7,54.5l-0.5,1.4
				h1.4h15.2h0.7l0.2-0.7l3-9.1h3.4l-1.4,8.6l-0.2,1.2h1.2h15h0.9l0.1-0.9l4.8-54.5L479.3,199.3L479.3,199.3z M458.2,234.3
				c1.1-3.2,2.6-7.4,4.6-12.7c-0.7,4.7-1.3,9-1.7,12.7H458.2L458.2,234.3z"/>
		</g>
		<g>
			<path class="st16" d="M484.3,256.1c-2.3,0-4.2-0.6-5.6-1.8c-1.4-1.2-2.2-2.6-2.3-4.2c-0.1-1.5,0.2-3.9,1.1-7.3l5.1-20.9
				c0.8-3.5,1.7-5.9,2.5-7.4c0.8-1.5,2.3-2.8,4.2-4c2-1.1,4.1-1.7,6.5-1.7c1.8,0,3.4,0.3,4.8,1c1.1,0.5,2,1.2,2.8,2.1l2.9-12.1h15.2
				L508,255.2h-15.2l0.6-2.5c-1.3,1-2.7,1.7-4,2.2C487.8,255.7,486,256.1,484.3,256.1z M500.4,217.7c-0.7,0-1.2,0.2-1.5,0.6
				c-0.2,0.3-0.7,1.1-1.2,3.2l-5.3,21.9c-0.5,2.3-0.5,3.1-0.4,3.3c0,0.2,0.1,0.5,0.9,0.5c0.7,0,1.3-0.2,1.6-0.8
				c0.3-0.4,0.8-1.5,1.5-4.5l5-20.7c0.5-2,0.4-2.8,0.4-3C501.4,218,501.3,217.7,500.4,217.7z"/>
			<path class="st16" d="M520.8,200.3l-13.2,54.5h-14.1l0.8-3.2c-1.7,1.3-3.3,2.4-5,3c-1.7,0.7-3.3,1-4.9,1c-2.2,0-4-0.6-5.3-1.7
				c-1.3-1.1-2.1-2.4-2.2-3.9c-0.1-1.5,0.2-3.8,1-7.1L483,222c0.8-3.4,1.6-5.9,2.4-7.3c0.8-1.4,2.2-2.7,4-3.8c1.9-1.1,4-1.6,6.2-1.6
				c1.7,0,3.3,0.3,4.6,0.9c1.3,0.6,2.4,1.5,3.3,2.7l3.1-12.7H520.8 M492.9,247.6c0.9,0,1.6-0.3,2.1-1c0.5-0.6,1-2.2,1.6-4.7l5-20.7
				c0.4-1.6,0.5-2.7,0.4-3.3c-0.2-0.6-0.7-0.8-1.5-0.8c-0.8,0-1.5,0.3-1.9,0.8c-0.4,0.5-0.8,1.6-1.3,3.4l-5.3,21.9
				c-0.4,1.8-0.6,3-0.4,3.6C491.7,247.4,492.1,247.6,492.9,247.6 M522.1,199.3h-1.3h-14.1h-0.8l-0.2,0.8l-2.6,10.8
				c-0.7-0.6-1.5-1.2-2.4-1.6c-1.4-0.7-3.1-1-5-1c-2.4,0-4.7,0.6-6.7,1.8c-2,1.2-3.5,2.6-4.4,4.2c-0.9,1.5-1.7,4-2.5,7.6l-5.1,20.9
				c-0.8,3.4-1.2,5.9-1.1,7.4c0.1,1.7,1,3.3,2.5,4.6c1.5,1.3,3.5,1.9,5.9,1.9c1.8,0,3.5-0.4,5.3-1.1c1-0.4,2-0.9,3-1.6l-0.1,0.6
				l-0.3,1.2h1.3h14.1h0.8l0.2-0.8l13.2-54.5L522.1,199.3L522.1,199.3z M492.9,246.6c-0.3,0-0.4-0.1-0.4-0.1c0-0.2-0.1-0.8,0.4-3.1
				l5.3-21.9c0.5-2.2,0.9-2.8,1.1-3c0.1-0.1,0.3-0.4,1.1-0.4c0.4,0,0.6,0.1,0.6,0.1c0,0.1,0.1,0.7-0.4,2.8l-5,20.7
				c-0.7,3.1-1.2,4-1.4,4.3C494,246.4,493.7,246.6,492.9,246.6L492.9,246.6z"/>
		</g>
		<g>
			<path class="st16" d="M516.3,255.2l3.8-45.7h13.6l-3.4,28.6c1-3.1,2.5-7.5,4.3-13.2c1.6-5.2,3.3-10.2,5-15.1l0.1-0.3h13.7
				l-17.8,45.7H516.3z"/>
			<path class="st16" d="M552.7,210.1l-17.4,44.7h-18.5l3.7-44.7h12.6l-3.9,32.6c0.9-2.4,2.8-8.2,5.8-17.5c1.7-5.2,3.3-10.2,5-15.1
				H552.7 M554.2,209.1h-1.5h-12.6h-0.7l-0.2,0.7c-1.7,4.8-3.4,9.9-5,15.1c-1,3.2-2,6-2.7,8.4l2.8-23.1l0.1-1.1h-1.1h-12.6h-0.9
				l-0.1,0.9l-3.7,44.7l-0.1,1.1h1.1h18.5h0.7l0.2-0.6l17.4-44.7L554.2,209.1L554.2,209.1z"/>
		</g>
		<g>
			<path class="st16" d="M560,256.1c-3,0-5.7-0.4-7.8-1.3c-2.2-0.9-3.8-2.1-4.7-3.6c-1-1.5-1.5-3.2-1.6-5c-0.1-1.8,0.3-4.4,1.1-7.7
				l3.2-13c1-4,2.3-7.1,4-9.4c1.7-2.3,4-4.1,6.8-5.3c2.8-1.2,5.9-1.8,9.2-1.8c4,0,7.3,0.8,9.6,2.3c2.3,1.5,3.8,3.6,4.2,6.1
				c0.5,2.5,0.2,5.9-0.9,10.3l-1.5,6.3h-18.3l-2.2,9.3c-0.6,2.5-0.6,3.4-0.5,3.7c0,0.1,0.1,0.5,1.1,0.5c0.9,0,1.6-0.3,2-1
				c0.5-0.7,1-2.2,1.6-4.3l1.5-6.3h14.4l-0.9,3.9c-0.7,2.8-1.4,5-2.1,6.5c-0.7,1.5-2,3.2-3.8,4.9c-1.8,1.7-3.8,3-6.1,3.9
				C565.8,255.6,563.1,256.1,560,256.1z M568.4,225.4l0.7-2.9c0.7-2.8,0.7-3.9,0.7-4.3c0-0.3-0.1-0.6-0.8-0.6
				c-0.8,0-1.3,0.2-1.6,0.6c-0.2,0.4-0.7,1.4-1.4,4.5l-0.6,2.6H568.4z"/>
			<path class="st16" d="M570.2,209.3c4,0,7.1,0.7,9.3,2.2c2.2,1.4,3.6,3.4,4,5.8c0.5,2.4,0.2,5.7-0.9,10.1l-1.4,5.9h-18.3l-2.3,9.7
				c-0.5,2-0.7,3.3-0.5,3.9c0.2,0.6,0.7,0.9,1.5,0.9c1.1,0,1.9-0.4,2.4-1.2c0.5-0.8,1.1-2.3,1.6-4.5l1.4-5.9h13.4l-0.8,3.3
				c-0.7,2.8-1.4,4.9-2.1,6.4c-0.7,1.5-1.9,3.1-3.7,4.7c-1.7,1.7-3.7,2.9-6,3.8c-2.2,0.8-4.9,1.3-8,1.3c-3,0-5.5-0.4-7.6-1.2
				c-2.1-0.8-3.6-2-4.5-3.4c-0.9-1.4-1.4-3-1.5-4.8c-0.1-1.7,0.3-4.3,1.1-7.6l3.2-13c0.9-3.9,2.2-7,3.9-9.2c1.6-2.3,3.9-4,6.6-5.2
				C563.9,209.9,567,209.3,570.2,209.3 M564.7,225.9h4.1l0.8-3.3c0.6-2.3,0.8-3.8,0.7-4.5c-0.1-0.7-0.5-1-1.3-1c-1,0-1.7,0.3-2,0.9
				c-0.4,0.6-0.9,2.1-1.5,4.6L564.7,225.9 M570.2,208.3c-3.4,0-6.5,0.6-9.4,1.9c-2.9,1.3-5.3,3.1-7.1,5.5c-1.7,2.4-3.1,5.6-4,9.6
				l-3.2,13c-0.8,3.4-1.2,6-1.1,7.9c0.1,1.9,0.6,3.7,1.6,5.3c1,1.6,2.7,2.9,5,3.8c2.2,0.9,4.9,1.3,8,1.3c3.2,0,6-0.4,8.3-1.3
				c2.4-0.9,4.5-2.2,6.3-4c1.8-1.8,3.1-3.4,3.9-5c0.7-1.5,1.5-3.7,2.2-6.6l0.8-3.3l0.3-1.2h-1.3h-13.4h-0.8l-0.2,0.8l-1.4,5.9
				c-0.6,2.6-1.1,3.7-1.5,4.1c-0.2,0.3-0.6,0.7-1.6,0.7c-0.1,0-0.5,0-0.6-0.1c0-0.1-0.1-0.8,0.5-3.4l2.2-8.9h17.5h0.8l0.2-0.8
				l1.4-5.9c1.1-4.5,1.4-7.9,0.9-10.5c-0.5-2.7-2-4.8-4.5-6.4C577.6,209.1,574.3,208.3,570.2,208.3L570.2,208.3z M565.9,224.9l0.5-2
				c0.8-3.3,1.2-4.1,1.3-4.3c0.2-0.3,0.6-0.4,1.2-0.4c0.2,0,0.3,0,0.3,0c0,0,0,0,0,0.1c0,0.2,0,1.1-0.7,4.1l-0.6,2.5H565.9
				L565.9,224.9z"/>
		</g>
		<g>
			<path class="st16" d="M598.4,255.2l7.6-31.5c0.9-3.7,1.1-5,1-5.5c0-0.2,0-0.5-1-0.5c-0.8,0-1.4,0.3-1.7,0.9
				c-0.3,0.5-0.8,2-1.8,6.1l-7.4,30.6H580l11.1-45.7h15.4l-0.8,2.8c1.1-1,2.2-1.7,3.4-2.3c1.7-0.9,3.6-1.3,5.6-1.3
				c2.5,0,4.5,0.6,5.9,1.8c1.4,1.2,2.1,2.7,2.1,4.5c0,1.7-0.4,4.5-1.4,8.5l-7.7,31.7H598.4z"/>
			<path class="st16" d="M614.6,209.3c2.4,0,4.3,0.6,5.5,1.6c1.3,1.1,1.9,2.5,2,4.2c0,1.7-0.4,4.5-1.4,8.4l-7.6,31.3h-14.1l7.5-30.9
				c0.7-3.1,1.1-4.9,1-5.6c0-0.7-0.5-1-1.5-1c-1,0-1.7,0.4-2.2,1.2c-0.4,0.8-1.1,2.8-1.9,6.2l-7.3,30.2h-14.1l10.8-44.7h14.4
				l-1.2,4.1c1.4-1.6,3-2.9,4.7-3.7S612.7,209.3,614.6,209.3 M614.6,208.3c-2.1,0-4.1,0.4-5.9,1.3c-0.8,0.4-1.5,0.8-2.2,1.3l0.2-0.6
				l0.4-1.3h-1.3h-14.4h-0.8l-0.2,0.8l-10.8,44.7l-0.3,1.2h1.3h14.1h0.8l0.2-0.8l7.3-30.2c1-4.1,1.5-5.5,1.8-5.9
				c0.2-0.3,0.5-0.7,1.3-0.7c0.3,0,0.4,0,0.5,0.1c0,0.3-0.1,1.4-1,5.3l-7.5,30.9l-0.3,1.2h1.3h14.1h0.8l0.2-0.8l7.6-31.3
				c1-4,1.4-6.8,1.4-8.6c0-2-0.8-3.6-2.3-4.9C619.4,208.9,617.3,208.3,614.6,208.3L614.6,208.3z"/>
		</g>
		<g>
			<path class="st16" d="M631.6,255.2c-3.3,0-5.5-0.1-6.9-0.4c-1.4-0.3-2.6-0.9-3.5-1.9c-0.9-1-1.3-2.2-1.3-3.5c0-1.2,0.6-4,1.7-8.6
				l5.3-22.1h-3l2-8.1h3l1.7-7h15.2l-1.7,7h3.8l-2,8.1h-3.8l-5.7,23.5c-0.9,3.7-0.8,4.4-0.8,4.6c0,0,0,0,0,0c0.1,0,0.6,0.2,3.4,0.2
				h0.6l-2,8.2H631.6z"/>
			<path class="st16" d="M645.2,204.1l-1.7,7h3.8l-1.7,7.1h-3.8l-5.8,23.9c-0.7,2.9-1,4.6-0.7,4.9c0.2,0.3,1.5,0.5,3.8,0.5l-1.7,7.2
				h-5.7c-3.2,0-5.5-0.1-6.8-0.4c-1.3-0.3-2.4-0.9-3.2-1.8c-0.8-0.9-1.2-2-1.2-3.2c0-1.2,0.6-4,1.7-8.5l5.5-22.7h-3l1.7-7.1h3l1.7-7
				H645.2 M646.5,203.1h-1.3H631h-0.8l-0.2,0.8l-1.5,6.3h-2.3h-0.8l-0.2,0.8l-1.7,7.1l-0.3,1.2h1.3h1.8l-5.2,21.4
				c-1.1,4.6-1.7,7.4-1.7,8.7c0,1.5,0.4,2.8,1.4,3.9c1,1.1,2.2,1.8,3.8,2.1c1.4,0.3,3.7,0.4,7,0.4h5.7h0.8l0.2-0.8l1.7-7.2l0.3-1.2
				h-1.3c-1.7,0-2.5-0.1-2.9-0.2c0-0.5,0.2-1.5,0.8-4l5.6-23.1h3h0.8l0.2-0.8l1.7-7.1l0.3-1.2h-1.3h-2.5l1.4-5.8L646.5,203.1
				L646.5,203.1z"/>
		</g>
		<g>
			<path class="st16" d="M649.3,256.1c-2.2,0-4-0.4-5.3-1.1c-1.3-0.8-2.2-1.8-2.6-3.1c-0.4-1.3-0.5-2.6-0.4-3.9
				c0.2-1.3,0.7-3.9,1.6-7.7l7.4-30.5h15.2l-7.5,31c-1.1,4.5-1.2,5.7-1.2,6c0,0.2,0.1,0.5,1.1,0.5c0.9,0,1.4-0.2,1.7-0.7
				c0.2-0.4,0.7-1.9,1.8-6.4l7.4-30.4h15.2l-11.1,45.7h-15.4l0.8-2.4c-1,0.9-2,1.6-3.2,2.1C653.1,255.7,651.2,256.1,649.3,256.1z"/>
			<path class="st16" d="M683,210.1l-10.8,44.7h-14.4l1.1-3.7c-1.3,1.5-2.8,2.6-4.4,3.4c-1.6,0.8-3.4,1.1-5.2,1.1
				c-2.1,0-3.8-0.4-5-1.1c-1.2-0.7-2-1.7-2.4-2.9c-0.4-1.2-0.5-2.4-0.3-3.7c0.1-1.3,0.7-3.9,1.6-7.7l7.3-30.1h14.1l-7.4,30.4
				c-0.8,3.5-1.2,5.5-1.2,6.2c0.1,0.7,0.6,1,1.6,1c1,0,1.8-0.3,2.1-1c0.4-0.7,1-2.8,1.9-6.5l7.3-30.1H683 M684.3,209.1H683h-14.1
				h-0.8l-0.2,0.8l-7.3,30.1c-1.1,4.7-1.6,5.9-1.8,6.3c-0.1,0.1-0.3,0.5-1.2,0.5c-0.3,0-0.5-0.1-0.6-0.1c0-0.3,0.1-1.4,1.1-5.9
				l7.4-30.4l0.3-1.2h-1.3h-14.1h-0.8l-0.2,0.8l-7.3,30.1c-0.9,3.9-1.5,6.5-1.6,7.8c-0.2,1.4,0,2.8,0.4,4.1c0.5,1.4,1.4,2.6,2.8,3.4
				c1.4,0.8,3.2,1.2,5.5,1.2c2,0,3.9-0.4,5.6-1.2c0.7-0.3,1.4-0.7,2-1.2l-0.1,0.3l-0.4,1.3h1.4h14.4h0.8l0.2-0.8l10.8-44.7
				L684.3,209.1L684.3,209.1z"/>
		</g>
		<g>
			<path class="st16" d="M676.6,255.2l11.1-45.7h15.2l-1.3,3.9c2.7-2.9,5.8-4.5,9.2-4.7l0.7,0l-4.1,16.8H707c-2.5,0-4.4,0.3-5.7,1
				c-1.3,0.6-2.2,1.5-2.7,2.6c-0.6,1.2-1.4,3.9-2.4,8.2l-4.4,18H676.6z"/>
			<path class="st16" d="M710.8,209.3L707,225c-2.6,0-4.6,0.3-5.9,1c-1.4,0.7-2.3,1.6-2.9,2.8c-0.6,1.2-1.4,4-2.4,8.3l-4.3,17.6
				h-14.1l10.8-44.7h14.1l-2,5.9C703.3,211.8,706.8,209.5,710.8,209.3 M712.1,208.2l-1.4,0.1c-2.9,0.2-5.6,1.3-8,3.5l0.4-1.3
				l0.4-1.3h-1.4h-14.1h-0.8l-0.2,0.8l-10.8,44.7l-0.3,1.2h1.3h14.1h0.8l0.2-0.8l4.3-17.6c1-4.2,1.8-7,2.4-8.1
				c0.5-1,1.3-1.8,2.5-2.3c1.2-0.6,3.1-0.9,5.5-0.9h0.8l0.2-0.8l3.8-15.7L712.1,208.2L712.1,208.2z"/>
		</g>
		<g>
			<path class="st16" d="M718.9,256.1c-3,0-5.7-0.4-7.8-1.3c-2.2-0.9-3.8-2.1-4.7-3.6c-1-1.5-1.5-3.2-1.6-5
				c-0.1-1.8,0.3-4.4,1.1-7.7l3.2-13c1-4,2.3-7.1,4-9.4c1.7-2.3,4-4.1,6.8-5.3c2.8-1.2,5.9-1.8,9.2-1.8c4,0,7.3,0.8,9.6,2.3
				c2.3,1.5,3.8,3.6,4.2,6.1c0.5,2.5,0.2,5.9-0.9,10.3l-1.5,6.3h-18.3L720,243c-0.6,2.5-0.6,3.4-0.5,3.7c0,0.1,0.1,0.5,1.1,0.5
				c0.9,0,1.6-0.3,2-1c0.5-0.7,1-2.2,1.6-4.3l1.5-6.3h14.4l-0.9,3.9c-0.7,2.8-1.4,5-2.1,6.5c-0.7,1.5-2,3.2-3.8,4.9
				c-1.8,1.7-3.8,3-6.1,3.9C724.8,255.6,722,256.1,718.9,256.1z M727.3,225.4l0.7-2.9c0.7-2.8,0.7-3.9,0.7-4.3
				c0-0.3-0.1-0.6-0.8-0.6c-0.8,0-1.3,0.2-1.6,0.6c-0.2,0.4-0.7,1.4-1.4,4.5l-0.6,2.6H727.3z"/>
			<path class="st16" d="M729.1,209.3c4,0,7.1,0.7,9.3,2.2c2.2,1.4,3.6,3.4,4,5.8c0.5,2.4,0.2,5.7-0.9,10.1l-1.4,5.9h-18.3l-2.3,9.7
				c-0.5,2-0.7,3.3-0.5,3.9c0.2,0.6,0.7,0.9,1.5,0.9c1.1,0,1.9-0.4,2.4-1.2c0.5-0.8,1.1-2.3,1.6-4.5l1.4-5.9h13.4l-0.8,3.3
				c-0.7,2.8-1.4,4.9-2.1,6.4c-0.7,1.5-1.9,3.1-3.7,4.7c-1.7,1.7-3.7,2.9-6,3.8c-2.2,0.8-4.9,1.3-8,1.3c-3,0-5.5-0.4-7.6-1.2
				c-2.1-0.8-3.6-2-4.5-3.4c-0.9-1.4-1.4-3-1.5-4.8c-0.1-1.7,0.3-4.3,1.1-7.6l3.2-13c0.9-3.9,2.2-7,3.9-9.2s3.9-4,6.6-5.2
				C722.9,209.9,725.9,209.3,729.1,209.3 M723.6,225.9h4.1l0.8-3.3c0.6-2.3,0.8-3.8,0.7-4.5c-0.1-0.7-0.5-1-1.3-1
				c-1,0-1.7,0.3-2,0.9s-0.9,2.1-1.5,4.6L723.6,225.9 M729.1,208.3c-3.4,0-6.5,0.6-9.4,1.9c-2.9,1.3-5.3,3.1-7.1,5.5
				c-1.7,2.4-3.1,5.6-4,9.6l-3.2,13c-0.8,3.4-1.2,6-1.1,7.9c0.1,1.9,0.6,3.7,1.6,5.3c1,1.6,2.7,2.9,5,3.8c2.2,0.9,4.9,1.3,8,1.3
				c3.2,0,6-0.4,8.3-1.3c2.4-0.9,4.5-2.2,6.3-4c1.8-1.8,3.1-3.4,3.9-5c0.7-1.5,1.5-3.7,2.2-6.6l0.8-3.3l0.3-1.2h-1.3H726h-0.8
				l-0.2,0.8l-1.4,5.9c-0.6,2.6-1.1,3.7-1.5,4.1c-0.2,0.3-0.6,0.7-1.6,0.7c-0.1,0-0.5,0-0.6-0.1c0-0.1-0.1-0.8,0.5-3.4l2.2-8.9h17.5
				h0.8l0.2-0.8l1.4-5.9c1.1-4.5,1.4-7.9,0.9-10.5c-0.5-2.7-2-4.8-4.5-6.4C736.6,209.1,733.3,208.3,729.1,208.3L729.1,208.3z
				 M724.9,224.9l0.5-2c0.8-3.3,1.2-4.1,1.3-4.3c0.2-0.3,0.6-0.4,1.2-0.4c0.2,0,0.3,0,0.3,0c0,0,0,0,0,0.1c0,0.2,0,1.1-0.7,4.1
				l-0.6,2.5H724.9L724.9,224.9z"/>
		</g>
	</g>
</g>
<g>
	<g>
		<path d="M720.2,56.3c0,11.8-8.6,21.5-16.5,28.1l-5.1-4c0,0,6-5.6,7.5-13.9c-4.8-1.2-8.5-5.1-8.5-10.2c0-6.3,5-11.4,11.2-11.4
			C715.1,45,720.2,50.1,720.2,56.3z"/>
		<path class="st0" d="M720.2,56.3c0,11.8-8.6,21.5-16.5,28.1l-5.1-4c0,0,6-5.6,7.5-13.9c-4.8-1.2-8.5-5.1-8.5-10.2
			c0-6.3,5-11.4,11.2-11.4C715.1,45,720.2,50.1,720.2,56.3z"/>
	</g>
	<g>
		
			<linearGradient id="SVGID_11_" gradientUnits="userSpaceOnUse" x1="701.9253" y1="182.421" x2="701.9253" y2="142.9747" gradientTransform="matrix(-1 0 0 -1 1403.8506 220.383)">
			<stop  offset="0" style="stop-color:#FFFFFF"/>
			<stop  offset="1" style="stop-color:#EF0097"/>
		</linearGradient>
		<path class="st17" d="M713.2,49.3c0,11.8-8.6,21.5-16.5,28.1l-5.1-4c0,0,6-5.6,7.5-13.9c-4.8-1.2-8.5-5.1-8.5-10.2
			c0-6.3,5-11.4,11.2-11.4C708.1,38,713.2,43.1,713.2,49.3z"/>
		<path class="st11" d="M713.2,49.3c0,11.8-8.6,21.5-16.5,28.1l-5.1-4c0,0,6-5.6,7.5-13.9c-4.8-1.2-8.5-5.1-8.5-10.2
			c0-6.3,5-11.4,11.2-11.4C708.1,38,713.2,43.1,713.2,49.3z"/>
	</g>
</g>
<g>
	<g>
		<path d="M764.4,97.1l-6.2,14.8c0,0-9.7-5.6-18.9-5.6c-6.9,0-10.2,2.9-9.6,7.3c0.6,4.5,9.5,7.8,20.3,11.7
			c10.5,3.8,22.5,11.5,24,22.2c2.7,19.4-12.6,26.2-30,26.2c-20.9,0-35.1-10.7-35.1-10.7l8-15.6c0,0,13.2,9.2,23.2,9.2
			c4.4,0,12.8-0.4,11.8-8c-0.8-5.9-10.7-8.6-22-13.4c-11.4-4.8-18.8-12.4-19.9-20.9c-2.1-15.2,11.3-24.8,25.7-24.8
			C751.8,89.4,764.4,97.1,764.4,97.1z"/>
		<path class="st0" d="M764.4,97.1l-6.2,14.8c0,0-9.7-5.6-18.9-5.6c-6.9,0-10.2,2.9-9.6,7.3c0.6,4.5,9.5,7.8,20.3,11.7
			c10.5,3.8,22.5,11.5,24,22.2c2.7,19.4-12.6,26.2-30,26.2c-20.9,0-35.1-10.7-35.1-10.7l8-15.6c0,0,13.2,9.2,23.2,9.2
			c4.4,0,12.8-0.4,11.8-8c-0.8-5.9-10.7-8.6-22-13.4c-11.4-4.8-18.8-12.4-19.9-20.9c-2.1-15.2,11.3-24.8,25.7-24.8
			C751.8,89.4,764.4,97.1,764.4,97.1z"/>
	</g>
	<g>
		
			<linearGradient id="SVGID_12_" gradientUnits="userSpaceOnUse" x1="734.9707" y1="174.4561" x2="734.9707" y2="81.8008" gradientTransform="matrix(1 0 0.1275 0.9091 -20.1333 8.0387)">
			<stop  offset="0" style="stop-color:#FFFFFF"/>
			<stop  offset="1" style="stop-color:#EF0097"/>
		</linearGradient>
		<path class="st18" d="M757.4,90.1l-6.2,14.8c0,0-9.7-5.6-18.9-5.6c-6.9,0-10.2,2.9-9.6,7.3c0.6,4.5,9.5,7.8,20.3,11.7
			c10.5,3.8,22.5,11.5,24,22.2c2.7,19.4-12.6,26.2-30,26.2c-20.9,0-35.1-10.7-35.1-10.7l8-15.6c0,0,13.2,9.2,23.2,9.2
			c4.4,0,12.8-0.4,11.8-8c-0.8-5.9-10.7-8.6-22-13.4c-11.4-4.8-18.8-12.4-19.9-20.9c-2.1-15.2,11.3-24.8,25.7-24.8
			C744.8,82.4,757.4,90.1,757.4,90.1z"/>
		<path class="st11" d="M757.4,90.1l-6.2,14.8c0,0-9.7-5.6-18.9-5.6c-6.9,0-10.2,2.9-9.6,7.3c0.6,4.5,9.5,7.8,20.3,11.7
			c10.5,3.8,22.5,11.5,24,22.2c2.7,19.4-12.6,26.2-30,26.2c-20.9,0-35.1-10.7-35.1-10.7l8-15.6c0,0,13.2,9.2,23.2,9.2
			c4.4,0,12.8-0.4,11.8-8c-0.8-5.9-10.7-8.6-22-13.4c-11.4-4.8-18.8-12.4-19.9-20.9c-2.1-15.2,11.3-24.8,25.7-24.8
			C744.8,82.4,757.4,90.1,757.4,90.1z"/>
	</g>
</g>
</svg>
